<svg width="170" height="191" viewBox="0 0 170 191" fill="none" xmlns="http://www.w3.org/2000/svg">
<path d="M169.99 72.0213C170.197 89.7455 167.078 107.79 161.092 124.333C149.82 147.246 135.65 152.878 120.284 159.715C79.7194 179.006 20.5471 177.779 5.2835 124.333C-3.64344 96.4529 -0.800842 74.3927 10.3695 51.3405C20.9789 26.5562 42.9255 11.6619 54.982 6.01645C97.3674 -13.4351 164.802 15.7787 169.99 72.0213Z" fill="white"/>
<mask id="mask0_232_5057" style="mask-type:alpha" maskUnits="userSpaceOnUse" x="0" y="0" width="170" height="172">
<path d="M169.99 72.0213C170.197 89.7455 167.078 107.79 161.092 124.333C149.82 147.246 135.65 152.878 120.284 159.715C79.7194 179.006 20.5471 177.779 5.2835 124.333C-3.64344 96.4529 -0.800842 74.3927 10.3695 51.3405C20.9789 26.5562 42.9255 11.6619 54.982 6.01645C97.3674 -13.4351 164.802 15.7787 169.99 72.0213Z" fill="white"/>
</mask>
<g mask="url(#mask0_232_5057)">
</g>
<path d="M85.4997 134.563C47.0916 135.821 45.3277 127.224 43.6884 115.351C50.4416 108.148 73.5213 106.87 98.9839 107.51C124.447 108.149 139.184 110.45 139.208 115.682C138.288 127.008 137.831 131.407 85.4997 134.563Z" fill="#B87D09"/>
<ellipse rx="14.7819" ry="46.9135" transform="matrix(-0.683958 0.729521 -0.999685 -0.0251052 91.6033 114.619)" fill="#FFAA00"/>
<path fill-rule="evenodd" clip-rule="evenodd" d="M82.0755 118.904C84.1117 118.48 87.926 118.272 92.025 118.362C97.2686 118.477 102.181 119.041 105.348 119.876C103.232 120.654 98.5492 121.153 93.0746 121.08C92.8417 121.077 92.6061 121.073 92.3761 121.068C86.5976 120.942 81.7476 120.202 80.0379 119.263C80.6442 119.18 81.3095 119.063 82.0755 118.904ZM74.7772 114.831C73.6026 112.748 72.9764 111.637 71.3168 109.78C70.3641 108.717 72.0547 108.248 74.0862 108.293C75.2197 108.318 76.4579 108.501 77.4045 108.831C78.4487 109.192 79.4315 109.637 80.3592 110.056C81.9547 110.777 83.3873 111.424 84.6894 111.453C84.7697 111.454 84.8529 111.454 84.9334 111.451C86.8152 111.29 87.7853 110.286 88.7908 109.245C89.2429 108.777 89.7022 108.301 90.2547 107.892C90.9143 107.403 92.4371 107.122 93.9115 107.154C95.0395 107.179 96.1413 107.388 96.8083 107.826C97.2413 108.11 97.6687 108.414 98.0948 108.717C99.6135 109.798 101.116 110.867 102.8 110.986C102.839 110.988 102.875 110.989 102.908 110.99C104.527 111.025 105.884 110.424 107.564 109.68C108.24 109.381 108.969 109.059 109.787 108.745C110.475 108.481 111.253 108.378 112.002 108.395C114.078 108.44 115.95 109.4 115.239 110.362C113.638 112.53 113.02 113.81 112.479 114.932C111.967 115.994 111.523 116.913 110.379 118.308C110.114 118.633 109.088 119.13 108.232 119.111C108.079 119.108 107.933 119.089 107.798 119.049C103.739 117.883 97.6745 117.265 92.0512 117.142C87.3591 117.039 82.9701 117.281 80.3127 117.834C79.0286 118.101 78.2111 118.206 77.6651 118.194C76.8141 118.176 76.6212 117.868 76.3489 117.434C76.2399 117.26 76.1182 117.066 75.9364 116.862C75.4828 116.082 75.1083 115.418 74.7772 114.831Z" fill="#502314"/>
<path d="M72.6778 116.601C34.2697 117.859 32.5058 109.262 30.8665 97.3895C37.6197 90.1864 60.6994 88.9084 86.162 89.5479C111.625 90.1873 126.362 92.4878 126.386 97.7206C125.466 109.047 125.009 113.446 72.6778 116.601Z" fill="#B87D09"/>
<ellipse rx="14.7819" ry="46.869" transform="matrix(-0.683958 0.729521 -0.999685 -0.0251052 78.7561 96.6572)" fill="#FFAA00"/>
<path fill-rule="evenodd" clip-rule="evenodd" d="M65.6585 99.3741C68.5176 98.9688 73.8787 98.7946 79.6427 98.9209C87.0162 99.0825 93.9276 99.6908 98.3888 100.553C95.4205 101.313 88.8406 101.77 81.1426 101.649C80.8151 101.644 80.4839 101.638 80.1604 101.631C72.0347 101.453 65.209 100.67 62.7969 99.7156C63.6486 99.638 64.5829 99.5268 65.6585 99.3741ZM55.3609 95.2353C53.6908 93.1414 52.8005 92.025 50.4506 90.1529C49.1016 89.0811 51.4744 88.6277 54.3311 88.6903C55.925 88.7252 57.6675 88.9194 59.0014 89.2575C60.4728 89.6287 61.8585 90.0816 63.1666 90.5091C65.4163 91.2444 67.4363 91.9047 69.2673 91.9448C69.3803 91.9473 69.4973 91.9478 69.6104 91.9452C72.2548 91.8012 73.6098 90.8053 75.0142 89.7731C75.6458 89.3089 76.2873 88.8374 77.0605 88.4327C77.9835 87.9495 80.1221 87.6824 82.1955 87.7278C83.7816 87.7626 85.3326 87.9809 86.2742 88.425C86.8856 88.7131 87.4892 89.021 88.091 89.328C90.236 90.4222 92.3582 91.5048 94.7272 91.6397C94.7817 91.6419 94.8324 91.643 94.8791 91.6441C97.1551 91.6939 99.0585 91.1047 101.414 90.3757C102.362 90.0823 103.383 89.7662 104.53 89.4601C105.495 89.2017 106.589 89.1061 107.641 89.1292C110.56 89.1931 113.202 90.1697 112.21 91.1254C109.978 93.2796 109.121 94.555 108.37 95.6717C107.66 96.7294 107.044 97.6448 105.448 99.0297C105.078 99.3528 103.64 99.8409 102.436 99.8145C102.222 99.8098 102.015 99.7891 101.825 99.7484C96.1082 98.5455 87.5761 97.8743 79.6687 97.7011C73.0707 97.5565 66.9018 97.7586 63.1705 98.2886C61.3674 98.5438 60.2189 98.6423 59.4512 98.6254C58.2544 98.5992 57.9806 98.29 57.5938 97.8532C57.439 97.6784 57.2661 97.4831 57.0087 97.2774C56.3641 96.4932 55.8315 95.8255 55.3609 95.2353Z" fill="#502314"/>
<path d="M88.7463 98.4171C50.3382 99.6754 48.5743 91.0785 46.935 79.2058C53.6882 72.0026 76.7679 70.7247 102.23 71.3642C127.693 72.0036 142.431 74.3041 142.455 79.5369C141.535 90.8629 141.077 95.2618 88.7463 98.4171Z" fill="#B87D09"/>
<ellipse rx="14.7819" ry="46.7327" transform="matrix(-0.683958 0.729521 -0.999685 -0.0251053 94.5445 78.8437)" fill="#FFAA00"/>
<path fill-rule="evenodd" clip-rule="evenodd" d="M81.0372 82.2231C83.7163 81.8139 88.739 81.6322 94.1387 81.7505C101.046 81.9019 107.52 82.5006 111.698 83.3568C108.917 84.1204 102.752 84.5869 95.54 84.4765C95.2333 84.4718 94.923 84.466 94.62 84.4594C87.0078 84.2926 80.6143 83.5194 78.3559 82.5685C79.1539 82.4897 80.0293 82.3773 81.0372 82.2231ZM71.3958 78.0987C69.8341 76.0071 69.0016 74.892 66.8027 73.0232C65.5404 71.9533 67.764 71.4965 70.4401 71.5552C71.9333 71.5879 73.5655 71.7797 74.8146 72.116C76.1925 72.4851 77.4901 72.9361 78.715 73.3618C80.8215 74.0939 82.7131 74.7514 84.4283 74.789C84.5342 74.7913 84.6438 74.7917 84.7498 74.7889C87.2273 74.6413 88.4981 73.6435 89.8153 72.6093C90.4076 72.1443 91.0092 71.6719 91.7342 71.2662C92.5995 70.7817 94.6034 70.5117 96.5457 70.5542C98.0316 70.5868 99.4843 70.803 100.366 71.2457C100.938 71.533 101.503 71.84 102.067 72.1462C104.075 73.2373 106.061 74.317 108.28 74.4486C108.332 74.4508 108.379 74.4518 108.423 74.4528C110.555 74.4995 112.339 73.9077 114.546 73.1753C115.435 72.8807 116.392 72.5632 117.467 72.2555C118.372 71.9957 119.397 71.8987 120.382 71.9203C123.117 71.9802 125.59 72.9531 124.66 73.9101C122.566 76.0674 121.761 77.3439 121.056 78.4617C120.389 79.5203 119.811 80.4365 118.313 81.8235C117.967 82.1472 116.619 82.6372 115.491 82.6125C115.29 82.6081 115.097 82.5877 114.919 82.5473C109.565 81.3523 101.572 80.693 94.1647 80.5307C87.9837 80.3952 82.2042 80.6059 78.7079 81.141C77.0183 81.3988 75.9423 81.4988 75.223 81.483C74.1019 81.4584 73.8458 81.1496 73.4841 80.7134C73.3393 80.5388 73.1776 80.3438 72.9367 80.1384C72.3339 79.3551 71.8359 78.6881 71.3958 78.0987Z" fill="#502314"/>
<path d="M81.5557 83.2326C43.1477 84.4908 41.3838 75.894 39.7444 64.0212C46.4977 56.8181 69.5773 55.5402 95.0399 56.1796C120.503 56.8191 135.24 59.1196 135.264 64.3523C134.344 75.6783 133.887 80.0773 81.5557 83.2326Z" fill="#B87D09"/>
<ellipse rx="14.7819" ry="46.8297" transform="matrix(-0.683959 0.729521 -0.999685 -0.0251053 87.6493 63.29)" fill="#FFAA00"/>
<path fill-rule="evenodd" clip-rule="evenodd" d="M73.5922 67.1126C76.2713 66.7034 81.2941 66.5217 86.6938 66.6401C93.6013 66.7914 100.075 67.3901 104.253 68.2464C101.472 69.0099 95.3067 69.4765 88.0951 69.3661C87.7884 69.3614 87.478 69.3556 87.175 69.3489C79.5628 69.1821 73.1694 68.409 70.9109 67.458C71.7089 67.3793 72.5844 67.2668 73.5922 67.1126ZM63.9508 62.9882C62.3892 60.8966 61.5566 59.7815 59.3578 57.9127C58.0955 56.8428 60.319 56.3861 62.9951 56.4447C64.4884 56.4775 66.1205 56.6692 67.3697 57.0055C68.7476 57.3746 70.0452 57.8256 71.2701 58.2513C73.3766 58.9835 75.2681 59.6409 76.9834 59.6785C77.0893 59.6808 77.1988 59.6812 77.3048 59.6785C79.7824 59.5308 81.0532 58.5331 82.3703 57.4989C82.9626 57.0339 83.5643 56.5615 84.2892 56.1557C85.1546 55.6713 87.1585 55.4012 89.1008 55.4438C90.5867 55.4763 92.0394 55.6925 92.9209 56.1352C93.4933 56.4225 94.0583 56.7296 94.6217 57.0357C96.6297 58.1269 98.6164 59.2065 100.835 59.3382C100.887 59.3403 100.934 59.3414 100.978 59.3423C103.11 59.3891 104.894 58.7972 107.102 58.0649C107.99 57.7702 108.947 57.4528 110.023 57.145C110.927 56.8853 111.952 56.7882 112.937 56.8098C115.672 56.8698 118.145 57.8427 117.215 58.7997C115.121 60.9569 114.316 62.2334 113.611 63.3512C112.944 64.4098 112.366 65.326 110.868 66.7131C110.522 67.0367 109.174 67.5268 108.046 67.5021C107.845 67.4977 107.652 67.4772 107.474 67.4369C102.12 66.2418 94.1275 65.5825 86.7198 65.4202C80.5388 65.2848 74.7593 65.4954 71.2629 66.0306C69.5734 66.2883 68.4973 66.3883 67.7781 66.3725C66.6569 66.348 66.4008 66.0391 66.0391 65.6029C65.8943 65.4283 65.7326 65.2333 65.4918 65.028C64.8889 64.2447 64.3909 63.5777 63.9508 62.9882Z" fill="#502314"/>
<path d="M79.8188 67.7134C41.4107 68.9717 39.6468 60.3748 38.0074 48.5021C44.7607 41.2989 67.8404 40.021 93.303 40.6604C118.766 41.2999 133.503 43.6004 133.527 48.8331C132.607 60.1592 132.15 64.5581 79.8188 67.7134Z" fill="#B87D09"/>
<ellipse rx="14.7819" ry="46.7184" transform="matrix(-0.683958 0.729521 -0.999685 -0.0251053 85.6315 48.032)" fill="#FFAA00"/>
<path fill-rule="evenodd" clip-rule="evenodd" d="M76.6751 52.2359C78.7113 51.8126 82.5256 51.6044 86.6246 51.6943C91.8682 51.8092 96.7803 52.3736 99.9479 53.2078C97.8319 53.9859 93.1488 54.4849 87.6741 54.4125C87.4413 54.4095 87.2057 54.4053 86.9757 54.4003C81.1972 54.2737 76.3472 53.5343 74.6375 52.5954C75.2438 52.5125 75.9091 52.3954 76.6751 52.2359ZM69.3768 48.1628C68.2022 46.0797 67.576 44.9691 65.9165 43.1122C64.9637 42.049 66.6543 41.5806 68.6858 41.6251C69.8193 41.65 71.0575 41.8331 72.0041 42.1628C73.0483 42.5246 74.0311 42.9687 74.9588 43.3879C76.5543 44.1088 77.9869 44.7562 79.289 44.7847C79.3693 44.7865 79.4525 44.7863 79.533 44.783C81.4148 44.6223 82.3849 43.6179 83.3904 42.577C83.8425 42.1089 84.3018 41.6334 84.8543 41.2238C85.5139 40.7349 87.0367 40.4543 88.5111 40.4866C89.6391 40.5113 90.7409 40.7198 91.4078 41.1578C91.8409 41.442 92.2683 41.7461 92.6944 42.0492C94.2131 43.1297 95.7158 44.1987 97.3999 44.3186C97.4386 44.3205 97.4747 44.3213 97.5079 44.322C99.1265 44.3575 100.484 43.7563 102.164 43.0124C102.84 42.7131 103.568 42.3906 104.386 42.0773C105.074 41.8128 105.853 41.7103 106.601 41.7267C108.677 41.7722 110.55 42.7319 109.838 43.6938C108.237 45.8618 107.619 47.1424 107.079 48.2638C106.566 49.3258 106.123 50.2449 104.978 51.6397C104.713 51.9651 103.688 52.4623 102.831 52.4435C102.679 52.4402 102.532 52.4207 102.397 52.3813C98.3385 51.2147 92.274 50.5976 86.6508 50.4744C81.9587 50.3716 77.5697 50.6127 74.9123 51.1663C73.6282 51.4329 72.8107 51.5385 72.2647 51.5266C71.4137 51.5079 71.2208 51.2004 70.9485 50.7662C70.8395 50.5924 70.7178 50.3983 70.536 50.1942C70.0825 49.4142 69.7079 48.7499 69.3768 48.1628Z" fill="#502314"/>
<circle cx="85" cy="171" r="20" fill="#FFAA00"/>
<path d="M80.3665 181H88.7665C89.9425 181 90.8945 180.216 91.0065 179.012L91.2585 176.212C91.3985 174.756 89.4105 174.252 88.7945 175.26L88.1785 176.268C87.6185 177.192 86.8345 177.472 85.5185 177.472H84.0625C83.7265 177.472 83.5305 177.136 83.8385 176.884C88.1225 173.608 91.0065 170.276 91.0065 166.972C91.0065 163.444 88.4025 161.008 84.3985 161.008C80.0305 161.008 77.6225 163.78 77.6225 166.636C77.6225 168.568 78.7705 170.08 80.4785 170.08C82.0185 170.08 82.7745 169.24 82.7745 168.092C82.7745 167.196 82.0745 166.552 82.0745 165.908C82.0745 164.956 83.0265 164.368 84.2025 164.368C85.4625 164.368 86.5825 165.628 86.5825 167.112C86.5825 169.268 85.1825 171.816 81.7385 174.392L79.3025 176.212C78.3785 176.912 77.7905 177.668 77.7905 178.648C77.7905 179.852 78.7425 181 80.3665 181Z" fill="#502314"/>
</svg>
