<svg width="169" height="169" viewBox="0 0 169 169" fill="none" xmlns="http://www.w3.org/2000/svg">
<path d="M168.99 71.1387C169.196 88.6457 166.095 106.47 160.145 122.809C148.939 145.441 134.852 151.004 119.577 157.758C79.2504 176.812 20.4262 175.6 5.25242 122.809C-3.62201 95.2709 -0.796131 73.481 10.3085 50.7113C20.8554 26.2308 42.673 11.519 54.6586 5.94272C96.7947 -13.2705 163.832 15.5853 168.99 71.1387Z" fill="white"/>
<g clip-path="url(#clip0_175_5056)">
<path d="M143.2 55.5H121.1V147.2H143.2V55.5Z" fill="#502314"/>
<path d="M64 98.1C64 87.7 64.3 76.6 65 65C65.2 63.1 64.9 61.1 64.2 59.3C63.5 57.5 62.4 55.8 61 54.5C58.3 52.1 54.8 50.8 51.2 50.7C47.6 50.6 44.1 51.8 41.3 54.1C38.9 56.4 37.1 59.3 36.1 62.5C35.7 64.2 34.8 65.8 33.5 67C32.3 67.7 31 68 29.6 68H29.3C26 68.1 22.8 69.5 20.4 71.8C18.2 74.2 16.9 77.3 17 80.6V83.3C17 85 17.3 86.6 17.9 88.2C18.5 89.7 19.5 91.1 20.6 92.3C21.8 93.5 23.2 94.4 24.7 95C26.2 95.6 27.9 95.9 29.6 95.9C31 95.9 32.5 95.8 33.9 95.7V110C33.9 119.8 33.6 130.6 32.9 142.3C32.7 144.2 33 146.1 33.6 147.9C34.2 149.7 35.3 151.4 36.6 152.7C37.9 154 39.5 155 41.3 155.7C43 156.4 44.9 156.7 46.8 156.6H50.9C52.8 156.7 54.7 156.4 56.5 155.7C58.3 155 59.9 153.9 61.2 152.5C62.5 151.1 63.5 149.5 64.1 147.7C64.7 145.9 64.9 144 64.7 142.1C64 130.6 63.7 119.8 63.7 110V98.1H64Z" fill="#FFAA00"/>
<path d="M45.1 113.8C45.5 113.8 45.9 113.9 46.3 114C47 114.2 47.7 114.3 48.4 114.3C49.3 114.3 50.5 114.4 52.2 114.4C53.9 114.4 55.1 114.4 56 114.3C56.7 114.3 57.4 114.2 58.1 114C58.5 113.9 58.9 113.8 59.3 113.8C60.1 113.8 60.5 114.3 60.5 115.3V123.1C60.6 124.8 60.2 126.6 59.3 128.1C58.9 128.7 58.4 129.2 57.7 129.5C57.1 129.8 56.3 130 55.6 130C54.8 130 54 129.8 53.3 129.3C52.7 128.9 52.2 128.3 52 127.6C51.9 127.4 51.8 127.3 51.7 127.3C51.6 127.3 51.5 127.4 51.4 127.6C51.1 128.3 50.6 128.9 49.9 129.3C49.1 129.8 48.3 130.1 47.5 130.4C47.2 130.5 46.8 130.6 46.5 130.8C46.3 130.9 46.1 131 45.9 131.1C45.7 131.1 45.5 131.1 45.3 131.1C44.3 131.1 43.8 130.4 43.8 129.1V125.1C43.8 123.7 44.3 123 45.4 123C45.8 123 46.1 123 46.4 123H48.6C48.9 123 49.2 122.9 49.5 122.7C49.6 122.6 49.7 122.5 49.7 122.4C49.7 122.3 49.8 122.2 49.8 122C49.8 121.9 49.8 121.7 49.7 121.6C49.7 121.5 49.6 121.4 49.5 121.3C49.3 121.1 49 121.1 48.8 121.1C48.4 121.1 48 121.1 47.6 121.2C47.2 121.3 46.8 121.4 46.5 121.5C46.3 121.6 46.1 121.7 45.9 121.8C45.7 121.9 45.4 122 45.1 122C44.2 122 43.8 121.4 43.8 120.3V115C43.9 114.3 44.3 113.8 45.1 113.8ZM54 122.9C54.1 123.1 54.3 123.2 54.5 123.2C54.7 123.2 54.9 123.3 55.1 123.3C55.3 123.3 55.5 123.3 55.7 123.2C55.9 123.1 56.1 123 56.2 122.9C56.4 122.6 56.6 122.3 56.6 121.9C56.6 121.7 56.6 121.6 56.5 121.4C56.4 121.4 56.4 121.3 56.3 121.3C56.2 121.3 56.1 121.3 56.1 121.3H54.3C53.9 121.3 53.8 121.5 53.8 121.9C53.7 122.2 53.8 122.6 54 122.9Z" fill="#502314"/>
<path d="M42.8 137.2C42.9 136.8 43.2 136.6 43.4 136.6C43.5 136.6 43.6 136.6 43.7 136.7C43.8 136.7 43.9 136.8 44.1 136.9C44.2 137 44.3 137 44.4 137.1H44.5C44.6 137.1 44.7 137 44.8 136.7C44.9 135.6 45.1 134.5 45.5 133.5C45.6 133.1 45.8 132.8 46.1 132.5C46.3 132.3 46.5 132.2 46.8 132.1C47.1 132 47.5 132 47.8 132C48.3 132 48.8 132 49.3 131.9C49.4 131.9 49.5 131.9 49.5 131.9C49.7 131.9 49.9 131.9 50.1 132C50.3 132.1 50.4 132.2 50.6 132.4C50.9 132.7 51 133.2 51 133.6C51 133.9 50.9 134.2 50.8 134.5C50.6 134.8 50.4 135.1 50.1 135.3C49.8 135.6 49.6 135.9 49.4 136.3C49.2 136.7 49.1 137.1 49.1 137.5C49.1 137.7 49.1 137.9 49.3 138.1C49.3 138.2 49.4 138.2 49.5 138.3C49.6 138.3 49.6 138.4 49.7 138.4C49.8 138.4 49.9 138.3 50 138.3C50.1 138.2 50.2 138.1 50.2 138C50.4 137.5 50.6 137 50.7 136.5C51 135.3 51.6 134.2 52.4 133.3C52.8 132.9 53.2 132.5 53.7 132.3C54.2 132.1 54.8 132 55.3 132C55.8 132 56.4 132.1 56.9 132.4C57.4 132.6 57.8 133 58.2 133.4C59.1 134.4 59.7 135.6 59.8 136.9C59.8 137.1 59.9 137.2 60.1 137.2C60.2 137.2 60.4 137.1 60.5 137C60.6 136.9 60.7 136.8 60.9 136.7C61 136.6 61.1 136.6 61.2 136.6C61.5 136.6 61.7 136.8 61.8 137.2C62 137.7 62 138.2 62 138.7C62 139.2 61.9 139.7 61.8 140.2C61.7 140.6 61.5 140.8 61.2 140.8C61.1 140.8 61 140.8 60.9 140.7C60.7 140.5 60.5 140.4 60.3 140.3H60.2H60.1C60.1 140.3 60 140.3 60 140.4C59.9 140.5 59.9 140.6 59.9 140.7L59.7 142.6C59.7 143.1 59.5 143.5 59.1 143.9C58.8 144.2 58.4 144.4 58 144.5C57.7 144.5 57.5 144.6 57.2 144.6C56.8 144.7 56.3 144.8 55.8 144.8C55.6 144.8 55.4 144.8 55.3 144.7C55.1 144.6 55 144.5 54.9 144.4C54.7 144.1 54.5 143.7 54.5 143.3C54.5 143 54.6 142.7 54.7 142.4C54.8 142.1 55 141.8 55.2 141.5C55.6 140.9 55.9 140.2 56 139.5C56 139.3 56 139.1 55.9 138.9C55.9 138.8 55.8 138.8 55.8 138.7C55.7 138.7 55.7 138.6 55.6 138.6C55.5 138.6 55.3 138.7 55.1 138.9C54.9 139.3 54.7 139.8 54.6 140.3C54.3 141.7 53.7 143 52.8 144.1C52.4 144.5 51.9 144.9 51.4 145.1C50.9 145.3 50.3 145.4 49.7 145.4C48.5 145.4 47.4 145 46.6 144.2C45.7 143.3 45.2 142.1 45 140.8C44.9 140.5 44.8 140.4 44.6 140.5L44.3 140.7C44.2 140.8 44.1 140.9 43.9 140.9C43.8 140.9 43.7 141 43.6 141C43.3 141 43.1 140.8 43 140.4C42.9 139.9 42.8 139.4 42.8 138.9C42.6 138.2 42.7 137.7 42.8 137.2Z" fill="#502314"/>
<path d="M76.5 102.9C76.2 102.7 76 102.4 75.9 102C75.8 101.7 75.7 101.3 75.7 100.9C75.7 100.5 75.7 100.2 75.9 99.8C76 99.5 76.3 99.2 76.5 98.9C77.1 98.5 77.8 98.3 78.6 98.3C80.7 98.3 82.4 98.5 83.7 98.5C85 98.5 86.8 98.5 88.8 98.3C89.5 98.2 90.2 98.4 90.8 98.9C91.1 99.1 91.3 99.4 91.4 99.8C91.5 100.1 91.6 100.5 91.6 100.9C91.6 101.3 91.6 101.6 91.4 102C91.3 102.3 91 102.6 90.8 102.9C90.2 103.4 89.5 103.6 88.8 103.5C87.3 103.5 85.6 103.3 83.7 103.3C81.8 103.3 80.1 103.3 78.6 103.5C77.8 103.6 77.1 103.4 76.5 102.9ZM76.5 110C76.2 109.8 76 109.5 75.9 109.1C75.8 108.8 75.7 108.4 75.7 108C75.7 107.6 75.7 107.3 75.9 106.9C76 106.6 76.3 106.3 76.5 106C77.1 105.6 77.8 105.3 78.6 105.4C80.7 105.5 82.4 105.6 83.7 105.6C85 105.6 86.8 105.6 88.8 105.4C89.5 105.3 90.3 105.5 90.8 106C91.1 106.2 91.3 106.5 91.4 106.9C91.5 107.3 91.6 107.6 91.6 108C91.6 108.4 91.6 108.7 91.4 109.1C91.3 109.4 91 109.7 90.7 110C90.1 110.5 89.4 110.7 88.7 110.6C87.2 110.5 85.5 110.4 83.6 110.4C81.7 110.4 80 110.4 78.5 110.6C77.8 110.7 77.1 110.5 76.5 110Z" fill="#FFAA00"/>
<path d="M144.1 75.5C144.1 60.3 144.6 44.2 145.6 27.4C145.8 25.1 145.5 22.8 144.7 20.6C143.9 18.4 142.7 16.5 141 14.8C137.7 12 133.6 10.4 129.3 10.3C125 10.2 120.8 11.6 117.4 14.3C114.4 17.3 112.2 21 111 25C110.2 28.1 108.5 30.8 106.2 33C103.9 34.6 101.2 35.4 98.4 35.3H98.1C94.2 35.4 90.5 37 87.7 39.8C85.1 42.6 83.7 46.2 83.8 50V53.9C83.8 55.8 84.1 57.8 84.9 59.6C85.6 61.4 86.7 63 88.1 64.4C89.5 65.8 91.1 66.9 92.9 67.6C94.7 68.3 96.6 68.7 98.6 68.7C101.9 68.7 105.2 68.5 108.4 67.9V92.8C108.4 107 107.9 122.7 106.9 139.6C106.7 141.9 107 144.2 107.7 146.3C108.4 148.5 109.7 150.4 111.2 152.1C112.8 153.6 114.7 154.8 116.8 155.6C118.9 156.4 121.1 156.7 123.3 156.6H129.2C131.4 156.7 133.6 156.3 135.7 155.6C137.8 154.8 139.7 153.6 141.3 152.1C142.9 150.4 144.1 148.4 144.9 146.2C145.6 144 145.9 141.7 145.7 139.4C144.7 122.7 144.2 107 144.2 92.7L144.1 75.5ZM125.1 62.8C125.1 61.8 125.5 61.3 126.3 61.3C126.7 61.3 127.1 61.4 127.4 61.5C128 61.7 128.7 61.8 129.4 61.8C130.2 61.8 131.5 61.8 133.1 61.8C134.8 61.8 135.9 61.8 136.8 61.8C137.5 61.8 138.2 61.6 138.8 61.5C139.2 61.4 139.5 61.3 139.9 61.3C140.7 61.3 141.1 61.8 141.1 62.8V69.8C141.2 71.5 140.7 73.1 139.8 74.5C139.3 75.1 138.8 75.6 138.1 75.9C137.4 76.2 136.7 76.3 135.9 76.3C135.2 76.4 134.4 76.2 133.8 75.9C133.1 75.6 132.6 75.1 132.2 74.5C131.3 73 130.9 71.3 131 69.6C131 69.3 130.9 69 130.8 68.8C130.7 68.7 130.6 68.6 130.4 68.6C130.3 68.6 130.1 68.5 130 68.6C129.6 68.6 129.1 68.6 128.7 68.7C128.3 68.8 128 68.9 127.7 69.1C127.5 69.2 127.3 69.3 127 69.4C126.8 69.4 126.6 69.4 126.3 69.4C125.5 69.4 125.1 68.9 125.1 67.8V62.8ZM140.5 141.1C139.8 142.3 138.8 143.4 137.6 144.1C136.2 144.9 134.6 145.2 133.1 145.2C131.5 145.2 130 144.9 128.6 144.1C127.4 143.4 126.4 142.4 125.7 141.1C125.1 139.8 124.7 138.3 124.7 136.8C124.7 135.3 125 133.9 125.7 132.5C126.3 131.2 127.3 130.2 128.6 129.5C130 128.7 131.6 128.4 133.1 128.4C134.7 128.3 136.3 128.7 137.6 129.5C138.8 130.2 139.8 131.2 140.5 132.5C141.2 133.8 141.5 135.3 141.5 136.8C141.5 138.3 141.1 139.8 140.5 141.1ZM131 99.8C130.9 99.8 130.8 99.8 130.8 99.8C130.2 99.8 129.6 99.9 129 100C128.5 100.1 128 100.3 127.5 100.6C127.2 100.8 126.8 100.9 126.4 101C126.2 101 126 101 125.9 100.9C125.7 100.8 125.6 100.7 125.5 100.6C125.2 100.3 125.1 99.9 125.1 99.5V95.6C125.1 94.6 125.5 94.1 126.3 94.1C126.7 94.1 127.1 94.2 127.4 94.3C128 94.5 128.7 94.6 129.4 94.6C130.2 94.6 131.5 94.6 133.1 94.6C134.8 94.6 135.9 94.6 136.8 94.6C137.5 94.6 138.2 94.5 138.8 94.3C139.2 94.2 139.5 94.1 139.9 94.1C140.1 94.1 140.2 94.1 140.4 94.2C140.6 94.3 140.7 94.4 140.8 94.5C141.1 94.9 141.2 95.3 141.1 95.7V98C141.1 98.6 141 99.1 140.8 99.7C140.5 100.2 140.2 100.6 139.8 100.9C138.6 102 137.3 103.2 135.9 104.2C135.8 104.2 135.8 104.3 135.7 104.4C135.7 104.5 135.6 104.5 135.6 104.6C135.6 104.7 135.6 104.7 135.6 104.8L135.7 104.9H135.8H135.9C136.6 104.9 137.2 104.8 137.9 104.6C138.1 104.5 138.3 104.4 138.5 104.3L138.8 104.1C139 104 139.1 103.9 139.3 103.8C139.4 103.7 139.6 103.7 139.8 103.7C140 103.7 140.1 103.7 140.3 103.8C140.4 103.9 140.6 104 140.7 104.1C141 104.4 141.1 104.9 141.1 105.3V109.1C141.1 109.5 141 109.9 140.8 110.3C140.7 110.4 140.6 110.5 140.4 110.6C140.2 110.7 140.1 110.7 139.9 110.7C139.5 110.7 139.2 110.6 138.8 110.4C138.5 110.3 138.1 110.2 137.8 110.2L136.1 110.1C134.2 110.1 132.7 110 131.6 110C130.5 110 129.1 110 127.2 110.1C126.9 110.1 126.6 110.1 126.3 110C126 109.9 125.7 109.7 125.5 109.5C125 109 124.8 108.3 124.9 107.6V107.3C124.9 106.7 125 106.1 125.3 105.6C125.6 105.1 125.9 104.6 126.3 104.3C127.3 103.4 128.9 102.2 130.8 100.7C130.9 100.7 130.9 100.6 131 100.5C131 100.4 131.1 100.4 131.1 100.3V100.2C131.1 99.9 131.1 99.8 131 99.8ZM136.5 123.2C136.3 123.1 136.1 123.1 135.9 123.1C134.9 123.1 133.9 123.1 132.9 123.1C131.9 123.1 131.1 123.1 130.1 123.1C129.5 123.1 128.9 123.2 128.4 123.3L127 123.7C126.7 123.8 126.5 123.9 126.2 123.9C126 123.9 125.9 123.9 125.8 123.8C125.7 123.7 125.5 123.6 125.4 123.5C125.2 123.2 125.1 122.9 125.1 122.6V116.9C125.1 116.6 125.2 116.2 125.4 116C125.5 115.9 125.6 115.8 125.8 115.7C125.9 115.6 126.1 115.6 126.2 115.6C126.5 115.6 126.8 115.7 127 115.8L128.4 116.2C129 116.3 129.5 116.3 130.1 116.4C131.1 116.4 132.1 116.4 132.9 116.4C133.7 116.4 134.9 116.4 135.9 116.4C136.1 116.4 136.3 116.4 136.5 116.3C136.6 116.3 136.6 116.2 136.7 116.1C136.7 116 136.7 116 136.7 115.9C136.7 115.8 136.7 115.7 136.6 115.7C136.6 115.6 136.5 115.6 136.4 115.5C136.2 115.4 136 115.3 135.7 115.3C135.5 115.3 135.3 115.2 135.2 115.1C135 115 134.9 114.9 134.8 114.7C134.6 114.3 134.4 113.9 134.5 113.4C134.5 112.9 134.6 112.3 135 111.9C135.1 111.7 135.3 111.5 135.6 111.4C135.8 111.3 136.1 111.2 136.3 111.3L137.2 111.4C137.7 111.5 138.2 111.5 138.7 111.6C139.2 111.6 139.7 111.7 140.2 111.8C140.4 111.9 140.5 112 140.7 112.2C140.8 112.4 140.9 112.5 141 112.7C141.2 113.3 141.3 113.9 141.2 114.5V125C141.2 125.6 141.1 126.3 141 126.9C140.9 127.1 140.8 127.3 140.7 127.4C140.6 127.6 140.4 127.7 140.2 127.8C139.7 128 139.2 128.1 138.7 128C138.2 128 137.7 128.1 137.2 128.2H136.3C136.1 128.2 135.8 128.2 135.6 128.1C135.4 128 135.2 127.8 135 127.6C134.7 127.2 134.5 126.6 134.5 126.1C134.5 125.7 134.6 125.2 134.8 124.8C134.9 124.6 135 124.5 135.2 124.4C135.4 124.3 135.5 124.2 135.7 124.2C135.9 124.2 136.2 124.1 136.4 124C136.5 124 136.5 123.9 136.6 123.8C136.6 123.7 136.7 123.7 136.7 123.6C136.7 123.5 136.7 123.5 136.6 123.5C136.6 123.3 136.6 123.3 136.5 123.2ZM140.5 89.6C139.8 90.8 138.8 91.9 137.6 92.6C136.2 93.4 134.6 93.7 133.1 93.7C131.5 93.7 130 93.4 128.6 92.6C127.4 91.9 126.4 90.9 125.7 89.6C125 88.3 124.7 86.8 124.7 85.3C124.7 83.8 125 82.3 125.7 81C126.3 79.7 127.3 78.7 128.6 78C130 77.3 131.6 76.9 133.1 76.9C134.7 76.9 136.2 77.2 137.6 78C138.8 78.7 139.8 79.7 140.5 81C141.2 82.3 141.5 83.8 141.5 85.3C141.5 86.8 141.1 88.3 140.5 89.6Z" fill="#FFAA00"/>
</g>
<defs>
<clipPath id="clip0_175_5056">
<rect width="129" height="147" fill="white" transform="translate(17 10)"/>
</clipPath>
</defs>
</svg>
