<svg width="170" height="177" viewBox="0 0 170 177" fill="none" xmlns="http://www.w3.org/2000/svg">
<path d="M169.99 71.1387C170.197 88.6457 167.078 106.469 161.092 122.809C149.82 145.441 135.65 151.004 120.284 157.758C79.7194 176.812 20.5471 175.6 5.2835 122.809C-3.64344 95.2709 -0.800842 73.481 10.3695 50.7113C20.9789 26.2308 42.9255 11.519 54.982 5.94272C97.3674 -13.2705 164.802 15.5853 169.99 71.1387Z" fill="white"/>
<path d="M86.6985 33.414L101.551 120.744C101.551 120.744 104.23 132.283 97.951 133.327C91.6717 134.37 50.6481 139.861 47.3931 140.76C44.1381 141.659 34.5119 80.9094 32.7641 69.5739C31.0163 58.2383 27.4787 39.5488 28.6013 36.7786C29.7247 34.0082 31.147 34.1695 36.5467 33.1134C41.9464 32.0572 66.886 26.3632 71.9993 26.6658C77.1127 26.9683 83.3441 24.9394 84.8595 28.2252L85.5655 29.7555C86.1019 30.9201 86.4835 32.1499 86.6985 33.414Z" fill="#502315"/>
<path d="M84.5406 38.3511L97.9194 117.005C97.9194 117.005 100.333 127.397 94.6781 128.337C89.0232 129.276 52.0784 134.22 49.147 135.03C46.2156 135.839 37.5442 81.1254 35.9697 70.9161C34.3953 60.7068 31.2087 43.8741 32.2196 41.3792C33.2312 38.8842 34.5121 39.0294 39.3749 38.0784C44.2377 37.1275 66.6976 32.0001 71.3026 32.2728C75.9076 32.5455 81.5194 30.7184 82.8842 33.6778L83.5201 35.056C84.0032 36.1049 84.347 37.2126 84.5406 38.3511Z" fill="white"/>
<path d="M67.3821 105.331C50.1754 108.149 48.8756 104.409 47.4388 99.1964C50.0531 95.5792 60.3619 93.6525 71.8558 92.4432C83.3498 91.2339 90.116 91.3971 90.4349 93.7353C90.688 98.8533 90.7413 100.847 67.3821 105.331Z" fill="#B87D09"/>
<ellipse rx="6.67987" ry="20.9253" transform="matrix(-0.585912 0.810628 -0.994574 0.104636 69.0709 95.8706)" fill="#FFAA00"/>
<path fill-rule="evenodd" clip-rule="evenodd" d="M64.9187 98.5292C65.81 98.2203 67.5141 97.9032 69.3639 97.7026C71.7301 97.4461 73.9737 97.41 75.4482 97.5969C74.5419 98.0692 72.464 98.5674 69.9962 98.8566C69.8913 98.8689 69.785 98.8808 69.6812 98.8921C67.0736 99.1748 64.8476 99.1291 64.023 98.8096C64.2909 98.7369 64.5834 98.6455 64.9187 98.5292ZM61.3948 97.1364C60.7435 96.2739 60.3963 95.814 59.5402 95.0811C59.0489 94.6617 59.782 94.3529 60.6987 94.2535C61.2103 94.198 61.7782 94.2072 62.2236 94.299C62.7147 94.3995 63.1831 94.5404 63.6253 94.6733C64.3857 94.902 65.0685 95.1074 65.656 95.0437C65.6923 95.0397 65.7297 95.0348 65.7658 95.0286C66.6031 94.8462 66.9804 94.3401 67.3716 93.8155C67.5474 93.5796 67.7261 93.34 67.9506 93.1245C68.2186 92.8671 68.8873 92.6521 69.5527 92.58C70.0617 92.5248 70.5698 92.5533 70.8957 92.71C71.1073 92.8117 71.3175 92.9226 71.5271 93.0331C72.2741 93.427 73.0132 93.8168 73.7781 93.7716C73.7957 93.7701 73.8119 93.7684 73.8269 93.7667C74.5573 93.6875 75.1328 93.339 75.8449 92.9077C76.1315 92.7341 76.4401 92.5471 76.7899 92.3589C77.0839 92.2003 77.4282 92.1087 77.7659 92.0721C78.7027 91.9705 79.6019 92.2897 79.3384 92.7616C78.7456 93.8252 78.543 94.4341 78.3657 94.9673C78.1977 95.4723 78.0523 95.9094 77.6194 96.6003C77.5193 96.7614 77.0871 97.044 76.7006 97.0859C76.6318 97.0933 76.5647 97.0932 76.5017 97.0835C74.6066 96.8002 71.8414 96.8804 69.3038 97.1556C67.1864 97.3852 65.2256 97.7508 64.0625 98.1544C63.5004 98.349 63.1387 98.4443 62.8924 98.471C62.5083 98.5127 62.4034 98.3865 62.2553 98.2083C62.196 98.137 62.1298 98.0573 62.036 97.9767C61.786 97.6546 61.5783 97.3795 61.3948 97.1364Z" fill="#502314"/>
<path d="M72.1266 121.908C54.9221 124.73 53.6169 120.987 52.1728 115.771C54.7823 112.151 65.0896 110.222 76.583 109.011C88.0764 107.8 94.8435 107.962 95.1657 110.302C95.4259 115.424 95.482 117.419 72.1266 121.908Z" fill="#B87D09"/>
<ellipse rx="6.67987" ry="20.9253" transform="matrix(-0.584839 0.811297 -0.994529 0.104814 73.3834 112.43)" fill="#FFAA00"/>
<path fill-rule="evenodd" clip-rule="evenodd" d="M66.022 115.901C67.2846 115.551 69.6866 115.158 72.2876 114.876C75.6148 114.514 78.7604 114.38 80.8184 114.503C79.5275 115.017 76.5937 115.609 73.1229 116.007C72.9752 116.024 72.8258 116.041 72.6799 116.057C69.0132 116.455 65.896 116.506 64.7545 116.222C65.1332 116.137 65.547 116.032 66.022 115.901ZM61.1452 114.656C60.2706 113.817 59.8044 113.371 58.6369 112.672C57.9669 112.272 59.0079 111.93 60.2969 111.79C61.0162 111.711 61.8117 111.696 62.4317 111.769C63.1156 111.848 63.7657 111.969 64.3795 112.083C65.4349 112.28 66.3827 112.456 67.2089 112.366C67.2599 112.361 67.3125 112.354 67.3633 112.346C68.5447 112.127 69.0958 111.602 69.667 111.057C69.9239 110.813 70.1848 110.564 70.5089 110.338C70.8958 110.067 71.8424 109.822 72.7779 109.721C73.4937 109.643 74.2043 109.649 74.6542 109.792C74.9462 109.885 75.2359 109.987 75.5247 110.089C76.5542 110.452 77.5728 110.812 78.6466 110.733C78.6713 110.731 78.6941 110.728 78.7152 110.726C79.7423 110.614 80.564 110.239 81.5809 109.774C81.9901 109.587 82.4309 109.386 82.9294 109.182C83.3483 109.009 83.8349 108.902 84.3097 108.851C85.6269 108.708 86.8729 108.989 86.4829 109.475C85.6053 110.569 85.2946 111.19 85.0225 111.733C84.7649 112.248 84.5419 112.693 83.9048 113.407C83.7575 113.573 83.1393 113.876 82.5959 113.935C82.4992 113.945 82.4052 113.948 82.3172 113.941C79.6741 113.739 75.7956 113.941 72.2275 114.329C69.2503 114.652 66.4865 115.105 64.8387 115.561C64.0424 115.782 63.5315 115.893 63.185 115.931C62.645 115.989 62.5036 115.867 62.3039 115.695C62.2239 115.626 62.1347 115.549 62.0068 115.472C61.6706 115.159 61.3917 114.892 61.1452 114.656Z" fill="#502314"/>
<path d="M66.71 88.9684C49.5033 91.7864 48.2034 88.0462 46.7667 82.8341C49.3809 79.2169 59.6898 77.2902 71.1837 76.0809C82.6776 74.8716 89.4439 75.0348 89.7628 77.373C90.0159 82.491 90.0692 84.4847 66.71 88.9684Z" fill="#B87D09"/>
<ellipse rx="6.67988" ry="20.9253" transform="matrix(-0.585911 0.810628 -0.994574 0.104636 68.3985 79.5083)" fill="#FFAA00"/>
<path fill-rule="evenodd" clip-rule="evenodd" d="M62.2864 82.1786C63.4678 81.8383 65.7172 81.4621 68.1538 81.1979C71.271 80.8599 74.2193 80.7474 76.1498 80.8849C74.943 81.3897 72.1965 81.9603 68.945 82.3345C68.8067 82.3504 68.6667 82.366 68.5299 82.3808C65.0949 82.7533 62.1724 82.783 61.1002 82.4905C61.4546 82.4084 61.8419 82.3067 62.2864 82.1786ZM57.7051 80.9006C56.8792 80.0571 56.4389 79.6074 55.3395 78.9009C54.7084 78.4967 55.6821 78.1619 56.8897 78.031C57.5635 77.9579 58.3093 77.9478 58.8912 78.0248C59.5329 78.1089 60.1433 78.2344 60.7196 78.3528C61.7106 78.5565 62.6004 78.7393 63.3745 78.6554C63.4222 78.6502 63.4716 78.644 63.5191 78.6365C64.6252 78.425 65.1383 77.9043 65.6701 77.3645C65.9092 77.1218 66.1521 76.8753 66.4544 76.6513C66.8152 76.3838 67.701 76.1454 68.5775 76.0504C69.2481 75.9777 69.9145 75.989 70.3372 76.1352C70.6117 76.23 70.884 76.3342 71.1556 76.438C72.1233 76.8079 73.0809 77.174 74.0872 77.1026C74.1103 77.1005 74.1317 77.0982 74.1515 77.096C75.1136 76.9917 75.8815 76.6224 76.8317 76.1653C77.2141 75.9813 77.626 75.7832 78.0919 75.5824C78.4835 75.4132 78.9389 75.3096 79.3838 75.2614C80.6178 75.1276 81.788 75.4173 81.4257 75.8999C80.6105 76.9874 80.3236 77.6055 80.0723 78.1466C79.8344 78.6592 79.6284 79.1027 79.0361 79.8109C78.8991 79.976 78.3216 80.2742 77.8125 80.3294C77.7219 80.3392 77.6337 80.3415 77.5512 80.3339C75.0716 80.1139 71.4365 80.2885 68.0937 80.6509C65.3045 80.9533 62.7163 81.3869 61.1745 81.8315C60.4295 82.046 59.9511 82.1539 59.6266 82.1891C59.1207 82.2439 58.9872 82.1209 58.7988 81.9471C58.7233 81.8775 58.6391 81.7998 58.5186 81.7221C58.2012 81.4073 57.9379 81.1383 57.7051 80.9006Z" fill="#502314"/>
<path d="M62.5796 82.5965C45.3729 85.4145 44.0731 81.6743 42.6363 76.4622C45.2506 72.845 55.5594 70.9183 67.0534 69.709C78.5473 68.4997 85.3135 68.6629 85.6325 71.0011C85.8855 76.1191 85.9388 78.1128 62.5796 82.5965Z" fill="#B87D09"/>
<ellipse rx="6.67988" ry="20.9253" transform="matrix(-0.585912 0.810628 -0.994574 0.104636 64.2682 73.1364)" fill="#FFAA00"/>
<path fill-rule="evenodd" clip-rule="evenodd" d="M58.0461 75.8547C59.2275 75.5144 61.4769 75.1383 63.9136 74.8741C67.0307 74.5361 69.9791 74.4236 71.9096 74.5611C70.7028 75.0659 67.9562 75.6365 64.7047 76.0106C64.5664 76.0266 64.4264 76.0422 64.2897 76.057C60.8546 76.4295 57.9322 76.4592 56.86 76.1666C57.2144 76.0846 57.6017 75.9829 58.0461 75.8547ZM53.4649 74.5768C52.639 73.7333 52.1987 73.2836 51.0992 72.5771C50.4682 72.1729 51.4418 71.8381 52.6495 71.7071C53.3233 71.6341 54.069 71.624 54.6509 71.701C55.2927 71.7851 55.9031 71.9106 56.4793 72.029C57.4703 72.2326 58.3602 72.4155 59.1342 72.3316C59.182 72.3264 59.2313 72.3202 59.2789 72.3127C60.385 72.1012 60.8981 71.5804 61.4298 71.0407C61.6689 70.798 61.9119 70.5514 62.2142 70.3274C62.575 70.06 63.4608 69.8216 64.3373 69.7266C65.0078 69.6539 65.6742 69.6652 66.097 69.8114C66.3714 69.9062 66.6438 70.0103 66.9153 70.1142C67.8831 70.4841 68.8406 70.8502 69.8469 70.7787C69.87 70.7767 69.8915 70.7744 69.9112 70.7722C70.8734 70.6679 71.6413 70.2985 72.5915 69.8415C72.9738 69.6575 73.3857 69.4594 73.8517 69.2586C74.2433 69.0894 74.6987 68.9858 75.1435 68.9376C76.3775 68.8038 77.5478 69.0935 77.1855 69.5761C76.3703 70.6636 76.0833 71.2816 75.8321 71.8228C75.5941 72.3353 75.3882 72.7789 74.7958 73.4871C74.6588 73.6521 74.0813 73.9504 73.5722 74.0056C73.4816 74.0154 73.3935 74.0176 73.311 74.01C70.8314 73.7901 67.1963 73.9647 63.8535 74.3271C61.0642 74.6295 58.476 75.0631 56.9343 75.5077C56.1892 75.7222 55.7109 75.8301 55.3864 75.8653C54.8804 75.9201 54.747 75.7971 54.5585 75.6233C54.4831 75.5537 54.3989 75.476 54.2784 75.3983C53.961 75.0835 53.6976 74.8145 53.4649 74.5768Z" fill="#502314"/>
<path d="M60.8821 75.7547C43.6754 78.5727 42.3756 74.8325 40.9388 69.6203C43.5531 66.0032 53.8619 64.0765 65.3558 62.8672C76.8498 61.6579 83.616 61.821 83.9349 64.1593C84.188 69.2773 84.2413 71.271 60.8821 75.7547Z" fill="#B87D09"/>
<ellipse rx="6.67988" ry="20.9253" transform="matrix(-0.585912 0.810628 -0.994574 0.104636 62.571 66.295)" fill="#FFAA00"/>
<path fill-rule="evenodd" clip-rule="evenodd" d="M58.5566 69.0184C59.4478 68.7095 61.1518 68.3926 63.0014 68.1924C65.3675 67.9362 67.6109 67.9006 69.0854 68.088C68.1792 68.5602 66.1015 69.0582 63.634 69.347C63.529 69.3593 63.4228 69.3713 63.319 69.3825C60.7115 69.6648 58.4856 69.6185 57.661 69.2987C57.9289 69.2261 58.2213 69.1346 58.5566 69.0184ZM55.0325 67.6241C54.3811 66.761 54.0338 66.3009 53.1775 65.5674C52.6862 65.1476 53.4192 64.8389 54.3359 64.7396C54.8474 64.6842 55.4153 64.6935 55.8606 64.7855C56.3518 64.8861 56.8202 65.0271 57.2624 65.1603C58.0228 65.3893 58.7056 65.5949 59.2931 65.5313C59.3294 65.5273 59.3668 65.5224 59.4028 65.5162C60.24 65.3339 60.6173 64.8276 61.0083 64.3029C61.1841 64.0669 61.3627 63.8272 61.5871 63.6116C61.8551 63.3541 62.5237 63.1392 63.189 63.0672C63.698 63.0121 64.206 63.0407 64.532 63.1976C64.7436 63.2993 64.9538 63.4103 65.1634 63.5209C65.9105 63.9153 66.6497 64.3054 67.4145 64.2603C67.4321 64.2588 67.4483 64.2571 67.4634 64.2555C68.1937 64.1764 68.7691 63.8278 69.4811 63.3964C69.7675 63.2228 70.0762 63.0358 70.4259 62.8476C70.7198 62.6889 71.0641 62.5974 71.4018 62.5608C72.3384 62.4594 73.2377 62.779 72.9743 63.251C72.3818 64.315 72.1794 64.9242 72.0021 65.4576C71.8343 65.9629 71.689 66.4001 71.2563 67.0913C71.1563 67.2525 70.7241 67.5351 70.3376 67.5769C70.2688 67.5843 70.2018 67.5842 70.1387 67.5745C68.2437 67.2906 65.4786 67.3703 62.9412 67.6451C60.8239 67.8743 58.8633 68.2396 57.7003 68.6432C57.1383 68.8378 56.7767 68.933 56.5303 68.9597C56.1463 69.0013 56.0414 68.875 55.8932 68.6967C55.8339 68.6254 55.7677 68.5456 55.6739 68.465C55.4238 68.1426 55.2161 67.8674 55.0325 67.6241Z" fill="#502314"/>
<path d="M124.479 51.9754C124.877 51.4688 125.339 50.7771 125.913 50.2009C127.057 49.055 128.614 49.034 129.805 50.0696C131.052 51.1551 131.369 52.9677 130.536 54.1792C129.015 56.3935 127.505 58.6169 125.978 60.8273C125.642 61.3351 125.268 61.8177 124.86 62.2711C122.647 64.6336 120.646 64.5864 118.612 62.0584C117.88 61.1475 117.349 60.0791 116.645 59.1406C115.9 58.1287 115.091 57.1643 114.224 56.253C113.446 55.455 113.221 54.6019 113.75 53.6699C114.301 52.696 115.241 52.9192 116.088 53.2092C116.861 53.4718 117.597 53.8419 118.349 54.1635L118.686 53.901C117.701 52.5307 116.829 51.0567 115.708 49.8084C111.134 44.7315 103.932 45.0019 99.9421 50.5736C98.085 53.1646 96.8168 56.1664 95.2992 58.9884C95.1347 59.2916 95.1334 59.7103 94.9132 59.9439C94.6187 60.2563 94.1464 60.6698 93.8214 60.6159C93.4964 60.5621 93.0427 59.9977 93.0255 59.6394C92.9579 58.648 93.0248 57.6521 93.2245 56.6783C94.0748 52.9717 95.404 49.4265 97.7838 46.4063C103.136 39.6099 113.026 39.1361 119.454 45.4692C121.379 47.3776 122.801 49.7717 124.479 51.9754Z" fill="#FF8732"/>
<path d="M123.377 127.813C99.8973 124.088 97.197 117.694 95.76 101.175C95.851 101.252 95.8111 101.36 95.8281 101.455C95.6946 102.347 96.5534 104.158 96.971 99.5945C97.1118 99.0129 97.2161 98.3687 97.3136 97.6703C97.3486 97.3633 97.167 96.7961 97.8032 97.2276C98.1951 97.5003 98.7095 97.6429 99.2025 97.8497C102.474 99.0117 101.432 98.4378 104.942 99.8521C104.872 101.987 104.354 104.28 104.535 106.353C104.328 106.401 104.468 106.992 104.427 107.545C104.31 108.633 104.212 109.689 104.171 110.957C103.958 112.37 104.089 114.08 103.926 115.548C104.138 115.992 103.19 117.871 104.106 118.227C105.144 119.034 106.28 119.424 107.48 119.976C108.392 120.499 108.186 119.966 107.966 119.321L107.966 119.321C107.928 118.651 107.74 118.068 107.627 117.361C107.15 114.191 106.843 114.831 106.386 108.198C106.337 107.123 106.278 105.915 106.201 104.742C106.281 104.529 105.923 103.603 106.326 103.493C108.192 103.534 110.077 102.732 111.993 102.573C112.666 102.506 113.27 101.993 113.492 103.066C114.199 104.805 114.453 106.797 115.102 108.566C115.239 110.321 115.592 112.099 116.067 113.803C116.473 116.707 117.074 119.674 117.723 122.695C117.969 123.178 118.58 122.953 119.089 123.032C119.546 123.059 120.256 123.418 120.701 123.012C120.922 122.655 120.36 121.251 120.342 120.253C120.43 117.197 120.301 114.5 120.097 111.662C120.254 109.165 120.095 106.794 120.255 104.187C120.478 100.088 119.035 101.136 121.775 100.51L121.774 100.511C122.518 100.43 123.265 100.309 124.09 100.269C124.514 100.141 126.792 99.6209 126.215 100.707C126.059 102.253 125.921 103.971 125.797 105.702C125.561 109.506 125.655 113.523 125.711 117.357C125.655 119.309 125.697 121.244 125.817 123.319L125.816 123.318C125.822 123.481 126.43 123.396 126.744 123.423C130.412 123.193 129.899 124.113 129.842 122.723C129.91 122.611 129.842 122.505 129.829 122.396C129.717 118.615 129.573 114.946 129.831 111.247C129.856 110.424 129.892 109.419 129.939 108.515C129.913 107.611 129.924 106.619 130.009 105.598C129.957 103.841 129.334 104.041 134.292 102.233C133.914 104.207 133.703 106.218 133.546 108.272C133.326 110.667 133.205 113.308 132.882 115.814C133.089 115.905 131.973 123.672 132.665 123.19C141.667 121.823 139.105 122.923 140.074 118.779C140.155 118.262 140.301 117.64 140.403 117.03C140.869 114.095 141.544 111.232 141.497 108.185C141.584 108.241 141.775 107.508 141.497 107.401C141.617 107.426 141.754 106.106 141.723 105.721C141.813 105.391 141.997 104.831 141.677 104.442C141.123 104.187 140.544 103.818 139.892 103.642C139.375 103.332 138.913 103.202 138.271 102.912C138.979 101.266 139.498 99.5704 140.146 97.795C140.2 97.6307 140.367 97.4724 140.338 97.2302C140.373 96.9735 143.552 98.8877 144.481 99.2806C145.361 99.6057 146.357 100.044 147.112 100.695C149.776 101.615 148.713 101.122 147.734 104.189C147.593 104.501 147.542 104.963 147.302 105.369C144.205 104.518 145.145 104.253 144.401 106.5C144.145 107.364 143.715 107.984 143.505 108.883C143.359 109.063 143.382 109.374 143.145 109.97C143.029 110.147 143.009 110.407 142.924 110.699C142.328 112.247 142.222 113.775 141.516 115.367C141.186 116.701 140.674 118.121 140.401 119.449C140.238 119.564 140.259 120.136 140.126 120.743C140.059 120.921 139.618 121.741 140.095 121.671C141.044 121.368 140.084 122.294 142.14 115.543C142.418 114.865 142.769 113.717 142.894 112.982L142.895 112.983C143.431 111.457 143.754 109.676 144.474 108.147C144.389 107.814 145.318 108.217 145.61 108.163C147.729 108.989 150.004 109.475 152.276 110.062C152.547 110.126 152.401 110.217 152.263 110.577C152.315 110.661 152.324 110.785 152.184 110.895C152.085 111.684 151.595 112.445 151.249 113.34C150.975 114.918 152.795 112.782 153.062 112.366C153.999 111.385 154.674 109.993 155.461 108.867C152.875 115.809 150.677 120.694 145.939 124.483C139.724 130.511 132.382 128.073 125.264 128.046L123.377 127.813Z" fill="#FFAA00"/>
<path d="M107.965 119.318C108.022 119.434 108.425 120.482 107.827 120.124C106.55 119.533 105.252 119.108 104.106 118.225C103.213 117.857 104.071 117.199 103.934 114.557C104.202 113.524 103.912 112.062 104.17 110.955C104.186 109.801 104.335 108.683 104.426 107.543C104.511 107.468 104.285 106.503 104.535 106.351C104.408 104.411 104.75 102.114 104.971 99.904C103.226 99.0104 101.16 98.5855 99.2021 97.8478C98.791 97.653 98.2298 97.5365 97.8028 97.2257C97.1832 97.0975 97.6289 95.8537 96.6048 102.032C96.5547 102.644 95.7225 103.019 95.8275 101.453C95.8106 101.358 95.8505 101.25 95.7596 101.173C95.8972 100.835 95.6716 100.405 95.6273 100.008C95.538 99.9456 95.6598 99.724 95.5188 99.6551L95.521 99.6576C95.5024 96.9644 94.5954 93.9529 94.0838 91.0792C93.5485 88.7621 93.2361 86.5534 92.9729 84.1702C94.4751 83.5122 96.1164 83.0018 97.7823 82.478C98.0064 82.2733 97.5492 81.86 97.9716 81.5412C99.0419 80.1434 100.394 78.9943 101.531 77.6792C101.963 77.4696 104.257 78.8035 104.978 79.021C106.089 79.6616 108.488 80.2528 108.404 81.3584C108.554 82.2238 108.793 83.3328 108.908 84.3114C109.261 85.697 109.397 86.9853 109.566 88.3372C110.126 90.0008 110.322 91.7789 110.823 93.6019C111.003 95.8238 111.72 98.0882 111.999 100.457C112.42 101.672 112.582 98.5508 112.71 97.9396C112.692 97.3653 113.352 95.4356 112.972 94.5668C112.932 93.6691 112.478 92.666 112.327 91.8028C112.329 91.7986 112.339 91.8079 112.344 91.7892C112.339 91.7937 112.333 91.7984 112.328 91.803C112.204 91.4948 112.07 91.1293 112.012 90.7156C111.967 90.6239 111.223 88.3265 111.281 87.7973C111.249 87.676 111.105 87.5383 111.111 87.3419C110.682 85.6449 110.264 83.9725 109.971 82.063C109.75 80.8612 109.485 79.7975 109.473 78.4604C109.704 78.286 108.079 77.8294 107.265 77.5591C106.199 76.9839 105.225 76.7133 104.047 76.3705C103.062 75.9137 102.069 75.4002 100.874 75.3511C101.516 70.1095 101.293 71.2323 102.026 71.2807C114.566 74.3927 111.604 73.4044 112.216 75.0766C113.808 64.7349 112.389 67.2666 116.973 66.9123C116.332 70.7393 115.866 74.5186 115.554 78.2808C115.467 79.6389 115.268 80.8396 115.13 82.2465C115.16 84.1656 114.151 84.3951 116.705 84.4475C117.769 84.525 117.514 85.279 117.589 82.1929C117.57 81.2007 117.677 79.9971 117.589 78.7915C117.492 78.4852 117.518 76.6035 117.744 75.4654C117.868 75.3934 117.482 74.8224 118.083 74.2801L118.082 74.2808C120.068 73.508 119.086 73.5556 122.9 73.4657C123.399 73.3697 123.866 73.6786 123.822 72.7509C124.254 69.8414 124.829 67.0774 125.638 64.2191C125.691 63.4643 128.368 64.2438 128.773 64.151C128.486 65.4634 127.975 66.6414 127.48 67.9609C127.204 69.6718 126.774 71.4805 126.408 73.3598C128.447 74.0113 128.564 73.0554 128.756 76.2622C128.846 76.7604 128.806 77.5285 128.654 78.7206C128.715 78.9397 129.067 79.0823 129.45 79.0518C130.945 79.0504 130.195 79.1495 132.382 75.5C132.362 74.9089 132.995 74.5507 133.154 73.8953C133.326 73.6273 133.627 73.6233 134 73.7231C134.178 74.0645 134.725 74.1988 135.14 74.4314C136.194 75.1542 137.409 75.714 138.504 76.5272C139.07 76.8742 138.784 77.6138 139.724 74.4717C141.759 69.712 141.976 71.8683 136.858 66.5418C141.401 65.2561 139.644 66.0578 142.444 69.3416C144.213 71.7721 144.856 71.2939 144.53 72.1708C140.013 81.9605 141.043 79.7008 142.486 80.7319C143.795 81.3807 146.442 82.0602 145.653 83.9936C145.393 84.4537 145.445 85.0208 145.197 85.5232C144.987 85.4311 144.116 88.0866 143.617 89.5943C143.304 90.6516 143.064 91.7888 142.726 92.9794C142.847 93.2864 142.069 93.7977 142.843 93.7575C143.979 94.0109 145.18 94.2524 146.363 94.7918C147.084 93.7873 147.389 91.6534 148.082 89.6922C149.176 86.2171 149.943 87.8786 146.459 83.7436C146.442 83.5241 145.722 83.036 145.98 82.7941C146.086 82.843 145.945 82.5463 146.427 82.4842C147.707 82.2918 147.053 82.077 147.55 81.0944C148.562 79.159 149.01 78.1804 149.911 75.5862C150.126 75.5177 149.993 75.2765 150.066 74.9512C150.25 74.5231 150.737 74.1135 150.736 73.5443C155.655 75.466 154.204 75.4934 152.867 78.7003C150.951 83.5531 150.691 82.1864 151.634 83.7169C153.5 87.8902 153.35 85.1101 151.469 91.1683C151.164 91.5926 151.111 92.2855 150.839 92.8853C150.489 93.712 150.394 94.8122 149.839 95.8535C149.018 96.2331 152.114 96.8128 153.104 97.7225C153.481 98.0991 150.954 102.32 149.773 104.958C149.295 106.531 148.259 105.604 152.593 106.639C153.247 104.695 154.333 103.083 155.167 101.283C155.149 101.1 155.287 100.88 155.456 100.64C156.261 98.5901 157.401 96.8062 158.44 94.6308C160.662 90.1847 159.904 90.2289 162.972 94.3848C162.614 96.1585 161.113 97.7868 160.299 99.5149C158.646 102.883 156.979 105.91 155.461 108.865C154.709 109.926 154.035 111.339 153.062 112.364C152.795 112.846 150.723 115.085 151.341 113.095C151.753 112.309 152.009 111.523 152.309 110.695C152.192 110.069 153.005 110.275 151.544 109.83C142.932 108.287 145.308 105.482 142.894 112.981C142.881 112.974 142.879 113.013 142.894 112.98C142.774 113.677 142.454 114.774 142.14 115.541C141.791 116.916 141.239 118.302 141.037 119.661C140.613 120.2 141.085 121.635 140.018 121.68C139.542 121.627 140.421 120.4 140.266 119.637C140.338 119.511 140.733 118.629 140.668 118.233C140.918 117.292 141.343 116.337 141.503 115.304C142.018 114.646 141.953 113.544 142.924 110.697C142.978 110.465 143.012 110.234 143.145 109.969C143.244 109.659 143.334 109.258 143.505 108.882C143.665 108.095 144.143 107.372 144.401 106.499C145.089 104.576 144.085 104.361 147.301 105.367C147.5 105.039 147.593 104.556 147.733 104.187C148.115 102.147 150.179 101.487 147.112 100.693C146.366 100.048 145.455 99.6513 144.48 99.2789C143.132 98.723 141.782 97.6401 140.338 97.2286C140.417 97.3741 140.245 97.5159 140.146 97.7933C139.527 99.4783 139.004 101.198 138.27 102.911C138.806 103.164 139.342 103.307 139.891 103.64C140.474 103.808 141.063 104.141 141.677 104.441C141.994 104.841 141.817 105.518 141.684 106.032C141.614 106.48 141.792 106.94 141.497 107.4C141.652 107.391 141.716 108.045 141.496 108.183C141.543 111.139 140.891 114.02 140.403 117.028C140.312 117.561 140.174 118.164 140.074 118.777C139.825 119.21 140.024 121.256 139.398 122.078C137.17 122.557 134.911 122.981 132.58 123.198C132.093 123.626 132.932 117.248 132.882 115.812C133.203 113.414 133.313 110.74 133.545 108.27C133.652 106.327 134 104.165 134.24 102.225C129.893 104.038 129.866 103.403 130.009 105.596C129.935 106.482 129.908 107.54 129.939 108.513C129.901 109.34 129.854 110.316 129.831 111.245C129.586 114.858 129.706 118.525 129.828 122.394C129.842 122.503 129.91 122.609 129.842 122.721C130.063 124.123 129.793 123.168 126.744 123.421C126.461 123.364 126.03 123.54 125.816 123.316C125.829 123.323 125.832 123.285 125.817 123.317C125.712 121.319 125.644 119.383 125.711 117.355C125.664 113.6 125.551 109.598 125.796 105.7C125.909 104.047 126.057 102.343 126.215 100.705C126.786 99.4836 124.599 100.278 121.773 100.51C121.78 100.496 121.742 100.495 121.774 100.508C119.249 101.2 120.363 99.763 120.254 104.185C120.099 106.672 120.254 109.104 120.097 111.66C120.286 113.764 120.31 115.987 120.377 118.26C120.369 119.792 120.27 120.076 120.742 122.963C120.791 123.365 118.204 123.055 117.835 122.853C117.3 121.306 116.727 117.945 116.067 113.801C115.972 113.769 115.043 109.488 115.102 108.564C114.482 106.884 114.211 104.856 113.492 103.064C113.271 102.026 112.756 102.46 111.931 102.595C110.548 102.603 107.352 103.751 106.505 103.425C106.044 103.678 106.031 102.609 106.49 109.122C106.51 111.898 107.143 114.673 107.627 117.359C107.727 117.987 107.923 118.601 107.966 119.32C107.926 119.299 107.897 119.373 107.965 119.318ZM125.49 94.0782C125.583 93.9905 125.446 94.9372 125.416 95.4859C125.381 96.7585 125.291 97.915 125.345 99.3775C126.494 99.3597 125.273 99.5869 128.193 89.9955C128.3 89.6406 129.052 86.3544 129.712 85.6703C130.977 85.1595 132.493 83.5923 133.795 85.0767C134.032 84.0824 133.944 82.6423 133.985 81.5477C132.141 81.5 130.359 81.3341 128.489 81.345C127.032 81.6259 126.999 80.4717 126.807 83.1667C126.449 84.7087 126.285 86.0378 126.201 87.4055C125.778 89.6444 125.716 92.0042 125.49 94.0775C125.488 94.0818 125.477 94.0722 125.472 94.0915C125.478 94.0872 125.484 94.0827 125.49 94.0782ZM138.946 99.2072C139.33 98.3324 139.689 97.1724 140.254 96.1838C140.836 95.6755 141.244 95.1858 141.69 94.4934C141.952 94.2069 141.502 94.3426 141.867 93.8881C141.857 93.7753 141.875 92.9982 142.15 92.9809C142.171 92.4752 142.278 91.984 142.48 91.3851C142.93 89.4718 143.573 87.6627 144.394 85.5858C144.806 85.5205 141.687 84.2784 141.261 84.2795C138.331 84.006 139.191 83.1944 137.498 85.9952C137.443 86.2129 137.355 86.4878 137.232 86.6945C137.032 86.9981 136.896 87.2486 136.701 87.6365C140.157 91.6332 139.768 89.0869 137.856 96.6358C137.838 96.7523 137.823 96.8697 137.737 96.961C137.598 97.4255 137.57 97.9989 137.309 98.4312C137.361 98.7984 137.163 99.2191 137.115 99.7005C136.994 100.362 136.906 100.817 136.693 101.554C136.647 101.843 136.777 102.007 136.484 102.237C138.249 102.752 137.394 103.315 138.618 100.171C138.754 99.9398 138.712 99.6197 138.924 99.3936C138.925 99.4369 139.019 99.4129 138.923 99.3943C138.931 99.3316 138.939 99.2688 138.947 99.206L138.946 99.2072ZM130.098 103.174C132.838 101.948 132.668 102.652 132.874 100.425C132.951 100.353 132.962 100.235 133.059 100.18C132.878 100.105 133.046 99.5898 133.155 99.0973C133.12 98.7927 133.161 97.9724 133.48 97.373C133.321 97.3586 133.834 95.9001 133.907 94.777L133.908 94.7759C133.979 94.7865 134.067 94.6073 133.934 94.5318C134.112 94.3503 133.993 94.1593 134.017 93.8524C134.184 92.6202 134.868 93.4363 131.322 88.2494C131.037 87.9047 130.903 87.449 130.551 87.0029C129.632 85.1294 129.831 87.8798 129.2 88.4702C129.398 88.737 128.881 89.3817 128.679 90.5234C128.522 91.0221 128.399 91.6955 128.154 92.298C128.018 92.4638 127.588 95.1506 127.187 95.6015C127.2 96.6294 126.681 97.9194 126.481 99.0384C126.366 99.1686 126.932 99.3363 127.158 99.5152C130.523 102.508 130.212 101.169 130.099 103.175C130.056 103.176 130.079 103.271 130.098 103.174ZM115.696 85.0051C116.025 85.0109 115.272 87.7707 115.09 89.0619C114.716 92.2097 113.761 95.3313 113.366 98.5372C113.31 99.1722 113.098 99.836 113.126 100.546C113.319 100.479 113.514 100.48 113.778 100.46C116.065 99.8827 115.57 100.297 116.686 104.1C117.326 106.262 117.883 108.279 118.237 110.453C118.59 112.383 118.879 114.31 119.357 116.3C119.487 116.526 119.698 118.899 119.725 117.603C119.742 117.026 119.693 116.496 119.66 115.731C119.786 115.711 119.418 113.762 119.624 113.779C119.476 113.561 119.502 112.409 119.58 111.834C119.45 110.785 119.482 108.158 119.587 105.778C119.457 105.435 119.971 101.73 119.304 100.62C119.136 100.162 120.84 100.361 120.849 99.9219C121.086 98.5477 121.235 97.3503 121.405 95.9135C121.557 95.29 121.669 94.5484 121.752 93.8738C121.913 93.3681 121.906 92.7662 122.112 92.2829C122.396 91.3976 122.311 90.3535 122.712 89.3839C122.378 88.3929 123.985 86.0552 121.823 85.9982C119.826 85.6964 117.734 84.9984 115.696 85.0051ZM105.497 85.4665C105.238 83.807 106.093 84.0777 103.276 83.4059C100.953 82.946 99.2391 81.7519 99.435 82.7181C99.3526 82.855 99.4574 83.0026 99.4495 83.1893C99.6283 84.4426 99.6557 85.8593 99.8752 87.1702C99.9943 87.5255 100.001 88.0052 100.094 88.442C101.992 96.8231 99.7258 94.2764 104.939 96.3703C108.556 97.3931 107.728 99.6988 106.43 90.9323C106.005 89.5756 106.015 87.8961 105.575 86.4806C105.567 86.1779 105.453 85.8524 105.497 85.4665ZM124.487 86.4284C124.782 85.8061 124.772 85.0204 124.946 84.3735C125.074 83.0806 125.305 81.8752 125.256 80.5145C125.241 78.8086 125.345 79.3183 127.209 79.0587C127.287 79.0181 127.262 78.9845 127.197 78.7C126.716 73.8905 128.681 74.519 123.049 74.8588C119.538 75.3555 119.965 74.7012 119.985 76.3056C119.786 77.541 119.95 78.7177 119.918 80.0904C119.934 80.926 119.908 81.8154 119.851 82.7313C119.903 83.036 120.142 84.5323 120.011 85.0432C120.717 85.2658 121.601 85.3004 122.393 85.536C123.118 85.6427 123.925 85.8271 124.487 86.4284ZM134.523 79.4958C134.973 79.8662 134.934 80.5181 134.967 81.0928C134.708 81.3018 134.212 88.3336 135.233 85.4439C136.118 84.2895 136.278 83.1064 137.072 81.899C137.21 81.2578 137.485 80.6376 137.799 79.9976C138.378 78.5271 138.862 79.1788 136.003 77.1567C132.3 75.0462 133.645 74.6337 132.461 76.6034C131.174 79.5759 129.991 78.7704 133.748 79.1043C134.16 79.297 133.846 79.5523 134.523 79.4958Z" fill="#FF8732"/>
<path d="M160.351 91.154C160.266 90.9206 156.797 97.6259 155.455 100.642C155.336 100.877 155.231 100.824 155.166 101.285C154.344 102.993 153.289 104.721 152.556 106.67C148.793 105.441 148.944 107.014 149.933 104.58C150.761 102.849 151.649 101.441 152.349 99.7056C153.613 97.2998 153.734 97.8985 149.808 96.1501C149.617 96.1252 149.651 95.9748 149.838 95.8553C150.37 94.8912 150.468 93.7917 150.838 92.8872C151.073 92.375 151.148 91.6463 151.468 91.1701C151.451 90.71 152.216 89.3562 152.577 87.8457C153.503 86.3973 152.482 85.7817 151.633 83.7189C151.533 83.5169 151.005 83.0446 151.133 82.6338C151.775 81.0546 152.813 79.6698 153.947 78.4063C154.303 78.7292 154.808 78.8898 155.283 79.1831C156.079 79.4487 156.716 79.9816 157.553 80.4164C157.682 80.5519 158.198 80.5001 158.197 80.8197C157.688 82.4827 156.645 84.1088 156.356 85.6026C156.149 86.1746 156.071 86.8403 155.81 87.5234C155.773 87.9564 155.084 88.5413 155.602 88.9697C155.761 89.0423 154.709 90.6389 154.257 91.3713C153.405 93.0523 152.172 94.4394 151.347 96.3787C152.085 97.1285 152.079 96.1116 153.483 93.8844C153.796 93.55 154.017 93.1302 154.166 92.6577C154.332 92.7477 155.19 90.9287 155.973 89.8487C156.09 89.6747 156.066 88.9451 156.429 89.1148C157.755 89.764 159.187 90.1762 160.351 91.154Z" fill="#FFAA00"/>
<path d="M150.735 73.5462C150.74 74.2637 149.949 74.6271 150.013 75.5305C149.766 75.4554 149.668 77.1131 147.499 81.1997C146.975 82.2142 147.861 82.1901 146.426 82.4861C146.14 82.5324 146.193 82.5111 145.973 82.7924C145.971 82.791 145.975 82.7936 145.979 82.7962C145.975 82.7947 145.985 82.7842 145.966 82.778C145.966 82.7815 145.966 82.7851 145.973 82.7924C145.549 82.9181 148.276 85.7224 149.086 86.9557C148.817 87.9452 148.329 88.7991 148.068 89.7614C147.44 91.3127 147.322 93.1964 146.362 94.7937C145.26 94.2875 144.049 94.0204 142.842 93.7593C142.253 93.789 142.587 93.695 142.952 92.3029C143.075 91.2303 143.496 90.1009 143.77 89.1423C143.991 88.3932 144.335 87.3911 144.707 86.6356C144.724 86.2687 144.887 85.7121 145.286 85.4277C145.338 84.9833 145.432 84.5042 145.652 83.9954C146.377 82.1441 144.118 81.492 142.485 80.7338C144.408 74.2208 144.121 73.8768 144.613 73.7142C148.884 73.1732 148.6 73.4776 150.735 73.5462Z" fill="#FFAA00"/>
<path d="M133.153 73.8972C133.186 74.2628 132.463 74.6992 132.382 75.5019C132.01 75.765 130.738 79.2004 130.12 79.0075C127.877 79.2837 129.014 78.5703 128.756 76.2643C128.761 75.5551 128.662 74.7344 128.411 73.9559C128.122 73.4618 126.009 73.6325 126.481 73.2315C126.679 71.4471 127.254 69.7132 127.48 67.9628C127.93 66.7309 128.471 65.5316 128.773 64.1531C134.814 64.8469 135.072 64.5014 134.942 64.958C134.325 67.9574 133.608 70.8311 133.153 73.8972Z" fill="#FFAA00"/>
<path d="M118.083 74.282C117.61 74.7734 117.795 74.8677 117.659 76.2079C117.561 77.077 117.432 77.9879 117.636 78.9103C117.498 80.8467 117.754 82.5867 117.473 84.5689C114.41 83.8908 114.751 86.0867 115.527 78.8123C115.822 74.8434 116.282 71.061 116.973 66.9143C123.271 66.8517 122.136 66.8011 122.278 67.7159C122.441 69.6002 122.546 71.6094 122.9 73.4677C122.039 73.4582 121.09 73.6113 120.087 73.5058C119.407 73.7188 118.774 74.0072 118.082 74.2826C118.089 74.2687 118.049 74.268 118.083 74.282Z" fill="#FFAA00"/>
<path d="M112.328 91.8047C112.471 92.6169 112.908 93.5886 112.972 94.5687C113.335 94.859 112.766 97.2783 112.606 98.6742C112.539 98.9189 112.401 101.596 112 100.46C111.741 98.1616 111.008 95.9031 110.824 93.604C110.341 91.8644 110.141 90.0608 109.567 88.3392C109.399 87.0277 109.276 85.7824 108.908 84.3133C108.808 83.3959 108.578 82.3556 108.405 81.3605C108.494 80.2006 105.7 79.5116 104.878 78.9794C103.294 78.4236 102.46 77.621 101.531 77.6812C101.202 76.9803 100.992 76.1455 100.874 75.3532C102.012 75.3897 103.057 75.9161 104.148 76.4117C105.22 76.7256 106.102 76.9232 107.151 77.5109C110.545 78.8554 108.857 76.9904 109.971 82.0649C110.256 83.9014 110.664 85.5835 111.111 87.344C111.083 87.4902 111.214 87.6174 111.281 87.7992C111.303 88.5868 111.733 89.8136 112.012 90.7177C112.053 91.0234 112.195 91.4554 112.328 91.8049L112.328 91.8047Z" fill="#FFAA00"/>
<path d="M156.355 85.6023C156.619 84.1278 157.704 82.5429 158.204 80.7351C157.269 80.2691 156.31 79.616 155.282 79.1831C154.886 78.9208 154.339 78.7717 153.947 78.4063C156.967 76.7503 156.914 77.8577 159.409 78.7443C162.863 80.2007 162.255 79.3011 161.54 81.4172C159.822 86.2004 158.472 88.9406 158.282 89.9804C154.976 88.6018 157.45 88.304 154.166 92.6577C154.108 92.887 153.865 93.4845 153.482 93.8844C153.385 94.2704 153.059 94.5287 152.802 94.9722C152.446 95.4058 152.166 97.2409 151.346 96.3786C151.727 95.3123 152.445 94.3854 153.039 93.4687C153.857 91.978 154.652 90.8024 155.611 89.1192C155.189 88.0354 155.415 89.3215 156.356 85.6025C156.357 85.5983 156.368 85.6079 156.373 85.5886C156.367 85.5931 156.361 85.5976 156.355 85.6023Z" fill="#FF8732"/>
<path d="M136.858 66.5437C141.446 71.5706 142.036 69.4284 139.724 74.4735C139.455 75.1932 139.348 76.164 138.913 76.8769C137.79 75.8787 136.424 75.3078 135.14 74.4334C134.942 74.269 133.745 74.0029 134.073 73.4978C134.799 71.1502 135.72 69.1039 136.574 66.8229C136.646 66.7701 136.513 66.509 136.858 66.5437Z" fill="#FFAA00"/>
<path d="M95.5193 99.6571C95.5196 99.6664 95.5061 99.686 95.5219 99.6598C95.5217 99.6598 95.5193 99.6571 95.5193 99.6571Z" fill="#FF8732"/>
<path d="M115.697 85.0074C116.086 84.7753 120.732 85.8146 121.824 86.0004C123.916 86.1484 122.476 87.8107 122.713 89.3862C122.417 89.8667 122.461 90.9456 122.113 92.2852C122.001 92.2705 121.953 93.2223 121.753 93.8762C121.691 94.4995 121.558 95.1913 121.406 95.9159C120.646 100.54 121.565 99.8665 119.464 100.404C119.335 100.451 119.229 100.505 119.339 100.715C120.055 101.501 119.244 107.225 119.58 111.837C119.518 112.413 119.445 113.154 119.625 113.782C119.443 113.704 119.716 114.783 119.661 115.734C119.688 116.418 119.745 116.969 119.726 117.606C119.733 118.878 119.472 116.584 119.358 116.302C118.897 114.388 118.604 112.461 118.238 110.455C117.925 108.402 117.327 106.365 116.736 104.197C116.411 103.196 116.155 102.212 115.906 101.143C115.451 99.987 115.12 100.174 113.779 100.462C113.616 100.444 113.371 100.488 113.127 100.549C113.096 99.9218 113.29 99.256 113.367 98.5396C113.749 95.408 114.696 92.3051 115.091 89.0642C115.043 88.8248 116.024 85.3511 115.697 85.0074Z" fill="#FFAA00"/>
<path d="M133.907 94.7793C133.892 95.6813 133.466 96.5071 133.48 97.3755C133.218 97.6883 133.202 98.5525 133.096 99.2878C133.026 99.4549 133.047 99.7258 133.018 99.9195C132.902 99.9421 132.898 100.028 133.059 100.183C132.963 100.238 132.951 100.356 132.874 100.428C132.711 102.594 132.776 101.999 130.098 103.177L130.099 103.178C130.229 101.295 130.518 102.45 127.159 99.5177C125.887 98.8161 126.704 99.659 127.188 95.604C127.625 95.1013 127.424 94.7035 128.155 92.3004C128.344 91.8089 128.514 91.081 128.68 90.5259C128.689 89.903 129.281 89.1963 129.201 88.4725C129.718 88.2388 129.643 85.0554 130.552 87.0052C130.856 87.3773 131.018 87.8641 131.322 88.2519C132.341 89.6378 133.211 91.0971 134.12 92.5924C134.371 92.6532 134.058 93.3411 134.018 93.8548C133.996 94.0244 134.118 94.3297 133.934 94.5343C133.988 94.565 134.064 94.7339 133.908 94.7784C133.904 94.7772 133.913 94.7664 133.894 94.7615C133.898 94.7674 133.903 94.7734 133.907 94.7793Z" fill="#FFAA00"/>
<path d="M105.497 85.4685C105.457 85.7959 105.538 86.0836 105.574 86.4826C105.998 87.8439 105.995 89.4797 106.43 90.9343C107.616 99.244 108.605 97.5012 105.11 96.4673C99.7672 94.0219 102.082 97.5099 100.093 88.444C100.032 88.0721 99.9856 87.6033 99.8747 87.1722C99.6701 85.9463 99.628 84.5099 99.4492 83.1914C99.4616 83.0503 99.3714 82.9352 99.4347 82.7202C99.1221 81.6883 101.915 83.2571 103.275 83.408C105.989 84.1105 105.245 83.6338 105.497 85.4685Z" fill="#FFAA00"/>
<path d="M124.487 86.4307C123.956 85.8685 123.208 85.6544 122.393 85.5385C121.639 85.3038 120.836 85.2889 120.011 85.0457C120.11 83.1621 119.769 84.2693 119.918 80.0928C119.906 78.7385 119.864 77.6424 119.95 76.2168C120.02 74.7608 119.543 75.3674 122.484 74.908C128.517 74.6604 126.826 73.4532 127.182 78.6023C127.649 79.6208 125.699 78.7712 125.364 79.4005C125.165 79.6156 125.42 81.0714 124.946 84.3757C124.773 84.9477 124.816 85.7109 124.487 86.4307Z" fill="#FFAA00"/>
<path d="M138.923 99.3959C138.767 99.5599 138.738 99.8841 138.617 100.174C137.501 102.813 138.352 102.943 136.483 102.24C136.678 102.153 136.717 101.512 137.114 99.7028C137.112 99.3085 137.375 98.8748 137.308 98.4334C137.549 98.0439 137.571 97.5359 137.736 96.9632C137.823 96.872 137.838 96.7546 137.855 96.638C138.201 95.5654 138.488 94.4045 138.702 93.3269C138.899 92.7529 139.216 92.0517 139.197 91.4049C139.659 90.614 139.067 90.1881 136.7 87.6387C136.82 87.3843 137.028 87.008 137.231 86.6968C137.308 86.5355 137.435 86.2787 137.498 85.9974C139.147 83.4787 137.981 83.8629 141.261 84.2818C146.051 86.0225 144.197 84.1186 142.479 91.3873C142.221 91.796 142.322 92.7024 142.056 92.9811C141.802 93.4886 141.855 94.1346 141.607 94.6797C140.432 96.2057 140.219 95.7269 138.946 99.2094C138.952 99.1961 138.914 99.1937 138.947 99.2083C138.939 99.2711 138.93 99.3338 138.922 99.3966L138.923 99.3959Z" fill="#FFAA00"/>
<path d="M125.489 94.0798C125.752 90.9121 126.1 87.3631 126.605 84.041C126.743 83.3824 126.816 82.7412 126.947 82.0151C126.855 80.9418 127.635 81.5411 128.489 81.3473C130.202 81.4269 132.388 81.3227 134.006 81.6655C133.915 82.5071 134.033 83.345 133.873 84.3205C133.8 84.353 133.978 85.2399 133.677 85.0346C132.669 83.6243 130.866 85.1317 129.643 85.7373C129.236 86.1099 128.577 88.5389 128.193 89.9977C127.52 92.1524 127 94.0898 126.513 96.2953C126.324 97.2154 126.138 97.9614 125.955 98.9335C126.008 99.3193 125.831 99.3699 125.345 99.3797C125.298 97.985 125.366 96.8342 125.416 95.4881C125.445 95.0691 125.546 94.5203 125.49 94.0804L125.489 94.0798Z" fill="#FFAA00"/>
<path d="M134.522 79.4979C134.112 79.6669 133.974 79.1033 133.588 79.0846C130.435 78.7389 130.892 79.777 132.46 76.6055C133.693 74.793 132.041 74.8234 136.003 77.1588C136.734 77.7288 137.573 78.1652 138.28 78.8233C138.185 79.1543 138.018 79.5643 137.799 79.9997C137.351 80.9092 137.429 80.7502 136.995 82.017C136.285 83.1374 136.089 84.3451 135.192 85.5129C134.278 88.1949 134.659 81.5402 134.986 80.921C134.861 80.5197 134.999 79.8546 134.522 79.4979Z" fill="#FFAA00"/>
<path d="M138.923 99.3965C138.967 99.3863 138.976 99.4653 138.924 99.3958L138.923 99.3965Z" fill="#FFAA00"/>
<path d="M130.098 103.177C130.109 103.22 130.029 103.23 130.099 103.178L130.098 103.177Z" fill="#FFAA00"/>
<path d="M107.964 119.321C107.954 119.36 107.87 119.317 107.965 119.321L107.964 119.321Z" fill="#FFAA00"/>
<path d="M112.327 91.8051C112.333 91.8004 112.338 91.7958 112.344 91.7911C112.34 91.797 112.344 91.8025 112.327 91.8049L112.327 91.8051Z" fill="#FFAA00"/>
<path d="M125.491 94.0806C125.484 94.0851 125.478 94.0895 125.472 94.0942C125.476 94.0881 125.472 94.0822 125.49 94.0799L125.491 94.0806Z" fill="#FFAA00"/>
<path d="M121.774 100.51C121.765 100.506 121.752 100.484 121.773 100.511L121.774 100.51Z" fill="#FFAA00"/>
<path d="M142.894 112.982C142.889 112.992 142.867 113.003 142.895 112.983L142.894 112.982Z" fill="#FFAA00"/>
<path d="M125.818 123.319C125.823 123.31 125.845 123.298 125.816 123.318L125.818 123.319Z" fill="#FFAA00"/>
<path d="M145.968 82.7886C145.968 82.7852 145.968 82.7817 145.967 82.7781C145.973 82.7825 145.98 82.7784 145.981 82.7965C145.977 82.7939 145.973 82.7913 145.968 82.7886Z" fill="#FF8732"/>
<path d="M118.083 74.2824C118.073 74.2772 118.061 74.2557 118.082 74.283L118.083 74.2824Z" fill="#FF8732"/>
<path d="M156.357 85.6026C156.363 85.5979 156.369 85.5934 156.375 85.5889C156.371 85.5948 156.375 85.6008 156.357 85.6028L156.357 85.6026Z" fill="#FFAA00"/>
<path d="M133.907 94.7796C133.903 94.7736 133.898 94.7676 133.894 94.7616C133.9 94.7654 133.906 94.761 133.909 94.7787L133.907 94.7796Z" fill="#FF8732"/>
<path d="M138.948 99.2085C138.946 99.2095 138.946 99.2095 138.948 99.2085C138.938 99.2035 138.926 99.1817 138.948 99.2085Z" fill="#FF8732"/>
<path d="M97.0089 169.03L96.7826 169.002C95.4694 170.195 95.2616 137.995 94.8794 127.265C94.9326 118.865 95.1754 118.851 95.2595 96.948C96.7746 101.604 96.4747 106.872 98.8437 111.401C103.282 120.785 114.827 123.005 124.509 123.167C131.328 123.244 135.234 124.089 144.186 119.476C146.03 118.101 149.673 116.978 153.408 110.843C153.408 111.483 158.041 102.405 158.628 103.419L158.605 103.607C152.093 123.186 146.016 143.849 140.28 164.182C137.355 172.539 139.511 176.922 135.292 170.906C132.622 168.174 130.032 164.929 126.198 163.429C116.297 160.417 105.402 163.121 97.0089 169.03Z" fill="#F5EBDC"/>
<path d="M149.381 115.762C146.628 129.425 143.639 142.939 141.272 156.604C137.919 175.271 138.613 173.191 138.016 172.979C140.777 154.504 143.873 140.374 148.33 118.756C148.721 116.884 149.045 115.566 149.226 115.477L149.301 115.486C149.315 115.539 149.359 115.558 149.405 115.575L149.381 115.762L149.381 115.762Z" fill="#FFAA00"/>
<path d="M96.3283 168.489C95.816 167.714 96.2554 166.167 96.1832 165.083C97.4064 128.446 97.9926 130.54 99.0701 111.67C99.8929 110.525 99.0445 116.5 99.1675 116.862C97.9405 132.515 97.1301 151.149 96.5168 168.512L96.3283 168.489Z" fill="#FFAA00"/>
<path d="M133.128 136.876C133.331 137.864 130.333 136.855 129.899 136.974C123.469 136.195 117.074 135.339 110.71 134.627C109.79 133.044 112.077 131.341 113.262 130.66C118.415 127.542 127.285 128.805 131.339 132.902C132.563 134.311 133.511 135.078 133.128 136.876Z" fill="#FF8732"/>
<path d="M119.375 153.988C117.169 153.545 114.781 153.489 112.595 152.554C108.522 150.466 108.488 149.581 108.97 147.979C116.316 148.769 122.95 149.714 131.038 150.677C131.353 150.737 131.268 150.994 131.166 151.726C130.924 152.918 130.24 152.982 129.114 153.518C125.975 155.001 122.665 154.26 119.375 153.988Z" fill="#FF8732"/>
<path d="M121.307 147.042C120.385 149.933 118.566 148.271 118.664 147.748C118.8 145.978 119.071 142.264 120.187 141.766C121.626 141.623 122.462 142.549 122.662 143.921C123.195 141.96 125.36 141.681 125.897 142.961C125.909 144.737 125.244 147.578 124.851 148.447C123.794 150.257 121.671 148.527 121.307 147.042Z" fill="#D72300"/>
<path d="M112.007 145.734C111.419 149.092 108.996 147.311 108.95 146.291C108.986 144.518 108.968 142.766 109.393 140.999C110.315 139.68 111.825 140.74 111.655 142.23C113.347 139.357 118.198 141.255 113.926 143.927C114.562 145.067 116.055 147.407 114.408 147.862C112.754 148.162 112.517 146.899 112.007 145.734Z" fill="#D72300"/>
<path d="M130.027 145.97C132.769 145.854 131.723 151.782 127.168 149.891C124.073 148.332 125.684 142.61 129.216 142.794C132.572 142.863 131.539 145.523 131.003 145.504C130.511 145.574 130.165 145.195 129.62 145.151C128.302 144.988 127.534 146.993 128.372 147.904C130.041 148.67 126.909 145.648 130.027 145.97Z" fill="#D72300"/>
<path d="M118.607 144.169C118.205 146.292 117.98 149.939 115.666 147.917C115.197 146.804 115.763 144.531 115.746 143.614C115.904 141.656 116.301 140.699 118.247 141.465C118.966 142.042 118.653 143.467 118.607 144.169Z" fill="#D72300"/>
<path d="M112.775 137.94C114.432 140.285 111.399 140.731 109.773 139.896C109.804 138.519 110.203 135.3 110.463 135.286C112.406 135.149 114.988 136.074 112.775 137.94ZM111.378 138.581C111.379 138.773 111.341 138.953 111.308 139.139C111.568 139.139 111.737 138.698 111.378 138.581ZM111.551 137.12C111.769 137.078 112.037 136.87 111.609 136.657L111.551 137.12Z" fill="#D72300"/>
<path d="M123.032 139.011C123.029 139.018 123.025 139.025 123.022 139.032C122.986 139.039 122.998 139.066 122.976 139.123C122.928 139.144 122.873 139.299 122.811 139.412C122.821 139.547 122.688 139.923 122.868 140.091C122.856 140.228 122.89 140.341 123.032 140.397L123.034 140.4C123.048 140.531 123.617 140.64 123.419 140.143C122.542 138.988 124.486 138.852 125.018 139.539C125.628 141.288 123.949 142.456 122.358 141.753C120.701 141.058 120.983 138.606 122.169 137.551C122.978 136.716 125.775 136.749 125.067 138.538C124.823 139.363 123.664 137.855 123.032 139.011Z" fill="#D72300"/>
<path d="M132.159 139.768C132.073 140.946 131.307 140.375 131.569 141.152C132.934 143.373 130.474 143.229 130.342 141.89C130.357 141.394 130.114 141.282 130.011 141.632C130.016 142.891 129.193 142.981 128.683 142.371C128.365 141.461 128.997 138.089 129.202 137.954C130.564 137.722 132.378 137.902 132.159 139.768ZM130.531 139.318C130.394 139.319 130.39 139.354 130.377 139.55C130.229 140.557 131.055 139.642 130.531 139.318Z" fill="#D72300"/>
<path d="M121.128 138.332C120.949 139.722 119.9 138.399 120.98 140.557C121.264 141.406 119.433 141.955 119.244 139.911C118.778 139.588 119.174 141.11 118.518 141.173C117.155 141.266 117.598 139.9 117.69 138.928C117.79 138.756 117.82 136.343 118.294 136.373C119.772 136.199 121.373 136.475 121.128 138.332ZM119.37 137.923L119.369 137.923C119.176 138.883 119.937 138.379 119.589 137.82C119.543 137.771 119.353 137.726 119.37 137.923Z" fill="#D72300"/>
<path d="M113.692 136.954C113.722 135.236 115.162 135.769 115.145 136.321C115.274 137.222 114.804 139.222 115.491 139.056C116.563 138.466 115.344 135.381 117.209 136.122C117.893 136.767 117.146 140.294 116.667 140.469C112.676 141.695 113.654 138.255 113.692 136.954Z" fill="#D72300"/>
<path d="M127.743 139.484C126.071 139.441 127.877 139.811 128.296 140.029C128.794 141.003 127.724 140.855 127.073 140.848C127.011 140.955 127.04 141.002 127.396 141.093C129.322 141.495 127.351 143.187 125.679 141.971C124.997 141.319 125.74 139.067 125.85 138.413C126.017 137.658 126.75 137.64 127.424 137.682C129.361 137.401 128.915 139.919 127.743 139.484Z" fill="#D72300"/>
<path d="M122.865 140.084C122.748 140.038 122.765 139.765 122.812 139.412C122.893 139.308 122.842 139.302 122.976 139.123C122.903 139.397 122.734 139.72 122.865 140.084Z" fill="#FF8732"/>
<path d="M123.031 140.397C122.889 140.341 122.856 140.228 122.867 140.091C122.892 140.158 122.929 140.221 122.947 140.29C122.945 140.296 122.929 140.293 122.938 140.305C122.942 140.302 122.947 140.299 122.951 140.296C122.987 140.322 123.016 140.354 123.031 140.397Z" fill="#FF8732"/>
<path d="M123.033 139.009C123.046 138.945 123.078 138.893 123.133 138.856C123.116 138.918 123.1 138.98 123.033 139.009Z" fill="#FF8732"/>
<path d="M123.113 140.468C123.074 140.46 123.028 140.461 123.034 140.4C123.06 140.423 123.099 140.431 123.113 140.468Z" fill="#FF8732"/>
<path d="M122.986 139.105C122.987 139.075 122.979 139.041 123.023 139.033C123.032 139.067 123.01 139.087 122.986 139.105Z" fill="#FF8732"/>
<path d="M122.952 140.296C122.948 140.299 122.943 140.302 122.939 140.305C122.929 140.293 122.946 140.296 122.948 140.29L122.952 140.296Z" fill="#D72300"/>
</svg>
