<svg width="170" height="170" viewBox="0 0 170 170" fill="none" xmlns="http://www.w3.org/2000/svg">
<g clip-path="url(#clip0_119_4776)">
<path d="M169.99 71.5596C170.197 89.1702 167.078 107.1 161.092 123.536C149.82 146.302 135.65 151.898 120.284 158.691C79.7194 177.859 20.5471 176.639 5.2835 123.536C-3.64344 95.8346 -0.800842 73.9158 10.3695 51.0114C20.9789 26.386 42.9255 11.5871 54.982 5.97789C97.3674 -13.349 164.802 15.6775 169.99 71.5596Z" fill="white"/>
<path d="M127.842 88.5826C127.878 91.5537 127.697 94.5248 127.37 97.4591C126.862 99.3298 126.536 101.164 126.028 103.034C124.831 106.959 123.38 110.737 121.312 114.258C120.478 115.836 119.426 117.083 118.302 118.367C116.053 121.191 113.332 123.538 110.467 125.703C108.943 126.693 107.456 127.5 105.824 128.307C103.538 129.627 101.18 130.618 98.7864 131.645C95.7031 132.598 92.6199 133.332 89.4278 133.735C86.8161 133.955 84.1681 134.249 81.4838 134.286C75.5712 133.919 69.6586 133.038 64.0362 130.984C58.7039 129.37 53.408 127.463 48.8737 124.125C47.8581 123.282 46.7699 122.585 45.7542 121.778C44.5572 120.494 43.215 119.43 42.0906 118.036C40.7122 116.129 39.3338 114.258 38.2455 112.204C36.7946 109.197 35.525 106.226 34.5819 102.998C34.0378 100.614 33.3123 98.3761 32.9133 95.9553C31.5349 84.1811 32.6594 79.8162 34.4368 75.4513C34.6182 74.9745 34.7633 74.571 34.9446 74.0942C35.3799 71.6733 36.9034 69.7293 38.0642 67.5652C39.8053 64.3374 41.4739 61.1829 42.9611 59.3122C44.7023 57.1115 46.661 55.1674 48.6561 53.1867C50.6874 51.096 52.9727 49.4087 55.3305 47.7948C60.0098 44.7137 64.943 41.8527 70.4203 40.5322C71.5811 40.2021 72.6693 39.7253 73.8301 39.4318C75.281 39.065 76.6594 38.845 78.1466 38.6616C80.976 38.3315 83.7691 38.6982 86.5259 39.2484C91.3503 40.0554 95.8482 41.9261 100.237 44.0902C101.652 44.7871 103.139 45.374 104.481 46.2176C112.353 50.8392 115.509 53.9203 118.882 58.2485C121.276 61.5864 123.38 65.2177 124.758 69.1424C127.044 75.3413 127.733 81.9436 127.842 88.5826Z" fill="#B87D09"/>
<path d="M129.36 85.2963C129.395 88.2004 129.218 91.1044 128.899 93.9727C128.402 95.8012 128.083 97.5938 127.587 99.4223C126.416 103.259 124.998 106.951 122.976 110.393C122.161 111.935 121.132 113.154 120.033 114.409C117.834 117.169 115.174 119.464 112.373 121.579C110.883 122.547 109.429 123.336 107.833 124.125C105.599 125.416 103.294 126.384 100.953 127.387C97.9389 128.32 94.9244 129.037 91.8036 129.431C89.2502 129.646 86.6614 129.933 84.0371 129.969C78.2565 129.61 72.4759 128.75 66.979 126.742C61.7658 125.165 56.5881 123.3 52.1551 120.038C51.1621 119.213 50.0982 118.532 49.1052 117.743C47.9349 116.488 46.6228 115.448 45.5234 114.086C44.1758 112.222 42.8281 110.393 41.7642 108.385C40.3457 105.446 39.1044 102.541 38.1824 99.3864C37.6504 97.056 36.9412 94.869 36.551 92.5027C35.2034 80.9939 36.3028 76.7275 38.0405 72.461C38.2178 71.9949 38.3597 71.6005 38.537 71.1344C38.9626 68.7681 40.4521 66.8679 41.5869 64.7526C43.2892 61.5976 44.9205 58.5142 46.3745 56.6857C48.0768 54.5346 49.9918 52.6344 51.9423 50.6983C53.9283 48.6547 56.1625 47.0055 58.4677 45.428C63.0425 42.4163 67.8656 39.6198 73.2206 38.3291C74.3554 38.0064 75.4194 37.5403 76.5542 37.2535C77.9728 36.895 79.3204 36.6799 80.7744 36.5006C83.5406 36.1779 86.2713 36.5365 88.9665 37.0742C93.6832 37.863 98.0807 39.6915 102.372 41.8068C103.755 42.488 105.209 43.0617 106.521 43.8863C114.217 48.4037 117.302 51.4154 120.6 55.646C122.941 58.9086 124.998 62.458 126.345 66.2943C128.58 72.3534 129.253 78.8069 129.36 85.2963Z" fill="#FFAA00"/>
<path fill-rule="evenodd" clip-rule="evenodd" d="M68.537 101.285C71.1687 99.6084 76.1154 98.5636 81.44 98.5636C88.2516 98.5636 94.6455 100.2 98.7822 102.939C96.0568 105.892 89.9905 108.047 82.8801 108.217C82.5777 108.225 82.2717 108.228 81.9729 108.228C74.4665 108.228 68.1481 105.961 65.9016 102.732C66.6865 102.387 67.5469 101.916 68.537 101.285ZM58.945 87.2686C57.3606 79.8996 56.5159 75.9708 54.3083 69.4499C53.041 65.7167 55.2227 63.9064 57.8617 63.9064C59.3342 63.9064 60.947 64.4651 62.1855 65.5716C63.5516 66.7855 64.8403 68.299 66.0567 69.7277C68.1488 72.1848 70.0274 74.3911 71.7188 74.3911C71.8232 74.3911 71.9312 74.3838 72.0356 74.3657C74.4744 73.6425 75.7054 69.9689 76.9813 66.1615C77.555 64.4494 78.1378 62.7102 78.8436 61.2C79.686 59.3969 81.6554 58.2722 83.5707 58.2722C85.0359 58.2722 86.4724 58.9325 87.3509 60.449C87.9212 61.4331 88.4848 62.4886 89.0467 63.541C91.0493 67.2916 93.0308 71.0026 95.2209 71.3001C95.2713 71.3037 95.3181 71.3037 95.3613 71.3037C97.4638 71.3037 99.2094 69.044 101.369 66.2477C102.239 65.1225 103.175 63.9104 104.229 62.7237C105.114 61.7224 106.122 61.2943 107.094 61.2943C109.791 61.2943 112.25 64.5848 111.353 68.0858C109.336 75.9767 108.57 80.6121 107.9 84.671C107.265 88.5151 106.715 91.842 105.269 96.9277C104.934 98.1141 103.617 99.9752 102.504 99.9752C102.306 99.9752 102.115 99.9172 101.939 99.7865C96.6357 95.9264 88.7441 94.1923 81.4393 94.1923C75.3442 94.1923 69.6523 95.4004 66.2177 97.5917C64.558 98.6474 63.4996 99.09 62.7903 99.09C61.6848 99.09 61.4257 98.0039 61.0597 96.4698C60.9133 95.8558 60.7497 95.1701 60.5078 94.4535C59.8968 91.6953 59.3915 89.3453 58.945 87.2686Z" fill="#502314"/>
<path d="M130.237 116.386C130.774 115.717 131.383 115.108 132.032 114.548C132.544 114.274 132.99 113.959 133.503 113.685C134.62 113.149 135.794 112.715 137.123 112.512C137.688 112.395 138.263 112.412 138.869 112.441C140.128 112.442 141.454 112.682 142.793 113.002C143.475 113.208 144.112 113.444 144.796 113.721C145.789 114.067 146.745 114.505 147.719 114.946C148.906 115.596 150.052 116.295 151.173 117.097C152.069 117.778 152.992 118.453 153.878 119.195C155.748 120.928 157.523 122.776 158.986 124.803C160.435 126.651 161.818 128.554 162.687 130.561C162.864 131.033 163.092 131.491 163.276 131.954C163.431 132.574 163.674 133.185 163.785 133.808C163.884 134.617 163.99 135.417 163.967 136.177C163.887 137.25 163.754 138.264 163.466 139.244C163.204 139.925 163.028 140.625 162.711 141.274C160.986 144.272 159.811 144.927 158.422 145.399C158.274 145.454 158.152 145.503 158.004 145.558C157.414 145.974 156.556 145.98 155.775 146.136C154.608 146.366 153.478 146.6 152.645 146.6C151.667 146.602 150.666 146.486 149.646 146.368C148.594 146.264 147.533 146 146.462 145.7C144.359 145.076 142.213 144.333 140.174 143.096C139.732 142.845 139.287 142.646 138.853 142.387C138.309 142.063 137.817 141.727 137.296 141.352C136.307 140.635 135.46 139.773 134.658 138.881C133.226 137.354 132.098 135.682 131.059 133.975C130.724 133.425 130.346 132.879 130.062 132.317C128.336 129.092 127.871 127.526 127.566 125.623C127.398 124.213 127.38 122.819 127.654 121.563C128.051 119.548 129.045 117.89 130.237 116.386Z" fill="#B87D09"/>
<path d="M128.581 117.353C129.073 116.738 129.635 116.183 130.238 115.674C130.718 115.432 131.133 115.147 131.613 114.905C132.663 114.432 133.769 114.059 135.029 113.907C135.563 113.813 136.112 113.847 136.69 113.892C137.89 113.931 139.16 114.196 140.445 114.538C141.101 114.753 141.715 114.994 142.375 115.276C143.331 115.631 144.254 116.074 145.196 116.518C146.346 117.166 147.458 117.859 148.549 118.649C149.423 119.317 150.322 119.981 151.188 120.707C153.02 122.397 154.765 124.191 156.218 126.146C157.653 127.931 159.027 129.766 159.913 131.685C160.095 132.134 160.326 132.573 160.514 133.015C160.68 133.604 160.93 134.187 161.054 134.778C161.172 135.543 161.296 136.301 161.296 137.016C161.251 138.025 161.154 138.977 160.908 139.893C160.678 140.527 160.531 141.181 160.248 141.783C158.692 144.558 157.592 145.14 156.282 145.544C156.143 145.591 156.028 145.634 155.889 145.681C155.339 146.056 154.521 146.036 153.781 146.159C152.676 146.341 151.606 146.528 150.812 146.503C149.881 146.476 148.924 146.336 147.948 146.195C146.943 146.066 145.924 145.785 144.895 145.47C142.873 144.819 140.807 144.055 138.828 142.827C138.4 142.578 137.97 142.377 137.549 142.12C137.022 141.799 136.543 141.467 136.035 141.098C135.072 140.392 134.24 139.555 133.45 138.689C132.041 137.207 130.917 135.597 129.878 133.958C129.542 133.429 129.165 132.903 128.879 132.365C127.14 129.273 126.652 127.783 126.305 125.98C126.104 124.646 126.046 123.332 126.271 122.156C126.59 120.269 127.489 118.736 128.581 117.353Z" fill="#FFAA00"/>
<path fill-rule="evenodd" clip-rule="evenodd" d="M136.071 129.518C137.208 129.981 138.919 131.284 140.533 132.916C142.597 135.005 144.203 137.301 144.901 139.132C143.476 138.902 141.2 137.484 139.011 135.339C138.918 135.248 138.824 135.155 138.734 135.063C136.459 132.762 135.004 130.359 134.978 129.007C135.286 129.177 135.643 129.344 136.071 129.518ZM136.007 123.701C137.022 121.702 137.563 120.637 138.216 118.622C138.59 117.467 139.618 117.765 140.418 118.574C140.864 119.025 141.239 119.634 141.39 120.241C141.558 120.909 141.641 121.615 141.72 122.281C141.856 123.427 141.978 124.456 142.49 124.974C142.522 125.006 142.556 125.038 142.591 125.066C143.477 125.666 144.595 125.289 145.754 124.899C146.276 124.723 146.805 124.545 147.325 124.452C147.946 124.34 148.771 124.713 149.352 125.3C149.796 125.749 150.097 126.325 150.056 126.906C150.029 127.283 149.985 127.672 149.942 128.061C149.788 129.444 149.636 130.814 150.239 131.546C150.254 131.562 150.268 131.577 150.281 131.59C150.918 132.235 151.906 132.306 153.128 132.394C153.619 132.43 154.149 132.468 154.709 132.548C155.18 132.614 155.573 132.835 155.867 133.133C156.684 133.96 156.762 135.389 155.78 135.833C153.568 136.834 152.396 137.55 151.369 138.178C150.397 138.772 149.556 139.287 148.086 139.887C147.744 140.028 146.967 140.006 146.63 139.665C146.57 139.604 146.524 139.533 146.497 139.452C145.673 137.034 143.633 134.259 141.419 132.019C139.572 130.15 137.602 128.653 136.117 128.049C135.4 127.757 134.989 127.523 134.774 127.306C134.439 126.967 134.581 126.665 134.781 126.238C134.862 126.067 134.951 125.876 135.023 125.655C135.397 124.901 135.721 124.264 136.007 123.701Z" fill="#502314"/>
<path d="M7.30729 28.8252C7.01167 29.6341 6.80411 30.4742 6.65872 31.325C6.6873 31.9102 6.64598 32.4594 6.67456 33.0446C6.78778 34.2912 7.0176 35.5339 7.52122 36.7944C7.70965 37.3458 8.01735 37.8379 8.35094 38.3505C8.99385 39.4459 9.87264 40.478 10.8275 41.4807C11.3503 41.9698 11.8757 42.4035 12.4599 42.8579C13.2597 43.5464 14.12 44.1548 14.9916 44.7785C16.149 45.4805 17.3271 46.1222 18.5806 46.6891C19.6165 47.1227 20.6602 47.5816 21.7428 47.9753C24.1698 48.7199 26.6454 49.3238 29.1146 49.5645C31.4247 49.8844 33.7479 50.1187 35.8982 49.8521C36.3889 49.7661 36.8951 49.7307 37.3824 49.6547C37.9881 49.474 38.6318 49.3744 39.2186 49.1532C39.9566 48.8275 40.6913 48.5119 41.3258 48.1046C42.1973 47.4877 42.992 46.855 43.6788 46.1053C44.1244 45.5298 44.6295 45.0203 45.0199 44.414C46.691 41.3845 46.6487 40.0276 46.3423 38.5775C46.314 38.4209 46.2935 38.2896 46.2652 38.133C46.318 37.4074 45.8854 36.6569 45.6203 35.898C45.2211 34.7646 44.8442 33.6617 44.4193 32.9365C43.923 32.0845 43.3142 31.2718 42.6943 30.4439C42.0701 29.5806 41.305 28.7916 40.5036 28.0123C38.9016 26.4992 37.1761 25.01 35.0847 23.8653C34.6463 23.6089 34.251 23.3227 33.8091 23.0764C33.2567 22.7685 32.7198 22.5112 32.1354 22.2483C31.0218 21.7535 29.857 21.4547 28.6895 21.2115C26.6612 20.743 24.6643 20.6127 22.6838 20.5784C22.0455 20.5672 21.3882 20.5154 20.7654 20.5548C17.1434 20.6962 15.5752 21.0894 13.8009 21.7933C12.5166 22.3658 11.322 23.0602 10.3931 23.9386C8.8823 25.3107 7.97912 27.0214 7.30729 28.8252Z" fill="#B87D09"/>
<path d="M7.2839 26.889C7.01171 27.6311 6.82561 28.4037 6.7001 29.1873C6.73865 29.7287 6.70863 30.2356 6.74718 30.777C6.88009 31.9313 7.12619 33.0842 7.63851 34.2587C7.83167 34.772 8.13957 35.2326 8.47298 35.7126C9.11753 36.7372 9.99 37.7078 10.9358 38.6525C11.4525 39.1145 11.9708 39.5252 12.5465 39.9563C13.3359 40.6077 14.1827 41.1863 15.0406 41.7791C16.1775 42.4498 17.3335 43.0652 18.5613 43.6127C19.5753 44.033 20.5973 44.4769 21.656 44.8612C24.0268 45.5952 26.4421 46.2 28.8445 46.4691C31.0939 46.8084 33.3544 47.0688 35.4378 46.8629C35.9128 46.7927 36.4037 46.7695 36.8755 46.7085C37.4605 46.5529 38.0837 46.4729 38.6495 46.2795C39.3603 45.9925 40.0679 45.7146 40.6767 45.3501C41.5117 44.7964 42.2717 44.2266 42.9249 43.5467C43.3471 43.0231 43.8283 42.5617 44.1962 42.0087C45.7633 39.2401 45.6973 37.9853 45.373 36.6391C45.3426 36.4939 45.3202 36.3721 45.2898 36.2268C45.3277 35.5572 44.8938 34.8554 44.6224 34.1489C44.2138 33.0938 43.8275 32.0673 43.4015 31.389C42.9037 30.5922 42.2976 29.8296 41.6802 29.0527C41.0581 28.243 40.3006 27.4993 39.5079 26.7639C37.9242 25.3352 36.221 23.9262 34.1689 22.8287C33.7383 22.5835 33.3493 22.3115 32.9155 22.0755C32.3734 21.7805 31.8472 21.5325 31.2748 21.2786C30.1842 20.8002 29.0475 20.5021 27.9092 20.2552C25.9307 19.784 23.9891 19.6259 22.065 19.5568C21.4449 19.5344 20.8056 19.4742 20.2015 19.4988C16.6866 19.5612 15.1708 19.895 13.4607 20.5122C12.224 21.0171 11.0766 21.6363 10.1907 22.4307C8.74874 23.6704 7.90311 25.2345 7.2839 26.889Z" fill="#FFAA00"/>
<path fill-rule="evenodd" clip-rule="evenodd" d="M29.5646 41.0751C28.7241 40.1719 26.9021 39.0342 24.8115 38.1085C22.1371 36.9245 19.4385 36.2481 17.4993 36.2573C18.2298 37.5163 20.3637 39.1439 23.1358 40.4253C23.2537 40.4798 23.3735 40.5339 23.4908 40.5859C26.438 41.8907 29.1795 42.3861 30.4329 41.9181C30.1644 41.69 29.8808 41.415 29.5646 41.0751ZM34.9426 39.0155C36.4121 37.3314 37.1956 36.4336 38.8123 35.0834C39.7392 34.311 39.0908 33.4504 38.0546 32.9916C37.4765 32.7357 36.779 32.6038 36.1655 32.6828C35.4895 32.7681 34.8095 32.9465 34.1676 33.115C33.0636 33.4047 32.0723 33.6648 31.4082 33.3708C31.3672 33.3526 31.3256 33.3319 31.2867 33.3089C30.4124 32.6927 30.3515 31.5019 30.2885 30.2676C30.2601 29.7126 30.2313 29.1489 30.1279 28.6246C30.0044 27.9987 29.3606 27.3573 28.6086 27.0244C28.0333 26.7697 27.3934 26.6955 26.8741 26.9461C26.537 27.1086 26.1943 27.2913 25.8526 27.4735C24.635 28.1227 23.4302 28.765 22.5362 28.4634C22.516 28.4556 22.4976 28.4475 22.4806 28.4399C21.6551 28.0745 21.2296 27.1701 20.7031 26.0511C20.4913 25.6008 20.2631 25.1157 19.9858 24.617C19.7533 24.1968 19.4067 23.9077 19.0251 23.7388C17.9663 23.27 16.6225 23.7175 16.5718 24.8043C16.4564 27.2533 16.2239 28.6189 16.0203 29.8148C15.8276 30.9473 15.6607 31.9275 15.6437 33.5313C15.6388 33.905 15.9421 34.6289 16.3789 34.8223C16.4566 34.8567 16.5382 34.8744 16.6225 34.8704C19.1485 34.7658 22.4464 35.6765 25.3145 36.9463C27.7076 38.0058 29.8034 39.3165 30.8999 40.4962C31.4301 41.0655 31.7948 41.3672 32.0733 41.4905C32.5074 41.6826 32.734 41.4389 33.0541 41.0946C33.1822 40.9568 33.3253 40.8029 33.5027 40.6544C34.0598 40.0271 34.5284 39.4901 34.9426 39.0155Z" fill="#502314"/>
<path fill-rule="evenodd" clip-rule="evenodd" d="M138.026 42.782C138.916 42.9204 139.801 43.0893 140.669 43.3054C141.538 43.5216 142.928 43.3651 143.437 42.3776C143.947 41.3901 143.824 40.4838 142.649 39.6079L140.588 38.1158L139.555 37.3676L140.714 32.5962C141.281 30.5804 139.834 29.2039 137.665 30.3888C136.532 31.0247 135.449 31.7444 134.425 32.5421C134.225 32.6919 134.021 32.8472 133.793 33.0111C132.652 32.3475 131.6 31.5353 130.667 30.5965C128.775 28.8302 126.716 30.6846 127.443 32.7275C127.587 33.1433 127.73 33.609 127.884 34.0829C128.146 34.967 128.453 35.8383 128.802 36.6937C127.386 37.759 126.058 38.9352 124.829 40.2116C124.031 41.0241 123.59 42.061 124.026 42.8152C124.53 43.6687 125.905 43.619 127.228 43.3384C128.512 43.1295 129.809 42.9939 131.112 42.9323C131.327 43.5511 131.499 44.1814 131.672 44.8117C131.927 45.8808 132.283 46.9258 132.735 47.9324C133.748 49.9967 135.997 49.8639 136.431 47.6594C136.775 45.9729 137.31 44.3366 138.026 42.782Z" fill="#FFAA00"/>
<path fill-rule="evenodd" clip-rule="evenodd" d="M24.4339 114.613C25.3233 114.752 26.2083 114.92 27.077 115.137C27.9458 115.353 29.3355 115.196 29.8451 114.209C30.3546 113.221 30.2315 112.315 29.0567 111.439L26.9956 109.947L25.9623 109.199L27.1218 104.427C27.6889 102.412 26.2415 101.035 24.0728 102.22C22.9395 102.856 21.8566 103.576 20.833 104.373C20.6326 104.523 20.4283 104.678 20.2008 104.842C19.0594 104.179 18.0081 103.366 17.0751 102.428C15.1823 100.661 13.1239 102.516 13.8511 104.559C13.9948 104.975 14.1377 105.44 14.2919 105.914C14.5538 106.798 14.8602 107.67 15.2099 108.525C13.7937 109.59 12.4653 110.766 11.2367 112.043C10.4389 112.855 9.9975 113.892 10.4342 114.646C10.9381 115.5 12.3124 115.45 13.6355 115.17C14.9195 114.961 16.2163 114.825 17.5198 114.763C17.7346 115.382 17.9069 116.013 18.0793 116.643C18.3344 117.712 18.6906 118.757 19.1431 119.764C20.1557 121.828 22.4044 121.695 22.8389 119.491C23.1825 117.804 23.7176 116.168 24.4339 114.613Z" fill="#FFAA00"/>
<path fill-rule="evenodd" clip-rule="evenodd" d="M114.362 150.529C115.251 150.667 116.136 150.836 117.005 151.052C117.873 151.268 119.263 151.112 119.773 150.124C120.282 149.137 120.159 148.23 118.984 147.355L116.923 145.862L115.89 145.114L117.05 140.343C117.617 138.327 116.169 136.951 114.001 138.135C112.867 138.771 111.784 139.491 110.761 140.289C110.56 140.439 110.356 140.594 110.129 140.758C108.987 140.094 107.936 139.282 107.003 138.343C105.11 136.577 103.052 138.431 103.779 140.474C103.923 140.89 104.065 141.356 104.22 141.83C104.482 142.714 104.788 143.585 105.138 144.44C103.721 145.506 102.393 146.682 101.164 147.958C100.367 148.771 99.9252 149.808 100.362 150.562C100.866 151.415 102.24 151.366 103.563 151.085C104.847 150.876 106.144 150.741 107.448 150.679C107.662 151.298 107.835 151.928 108.007 152.558C108.262 153.627 108.618 154.673 109.071 155.679C110.083 157.743 112.332 157.611 112.767 155.406C113.11 153.72 113.645 152.083 114.362 150.529Z" fill="#FFAA00"/>
</g>
<defs>
<clipPath id="clip0_119_4776">
<rect width="170" height="170" fill="white"/>
</clipPath>
</defs>
</svg>
