<svg width="127" height="129" viewBox="0 0 127 129" fill="none" xmlns="http://www.w3.org/2000/svg">
<path d="M126.681 55.3279C126.835 68.4517 124.51 81.8131 120.05 94.0616C111.65 111.027 101.09 115.198 89.6387 120.261C59.4088 134.544 15.3122 133.636 3.93739 94.0616C-2.71518 73.4182 -0.596807 57.0838 7.72763 40.0149C15.6339 21.6635 31.9891 10.635 40.9739 6.45486C72.5605 -7.94798 122.814 13.6833 126.681 55.3279Z" fill="white"/>
<mask id="mask0_505_7918" style="mask-type:alpha" maskUnits="userSpaceOnUse" x="1" y="0" width="126" height="128">
<path d="M126.993 54.2146C127.146 67.3514 124.834 80.7259 120.398 92.9865C112.043 109.969 101.541 114.143 90.1519 119.211C60.0861 133.509 16.229 132.6 4.916 92.9865C-1.70043 72.3228 0.406435 55.9722 8.68566 38.8865C16.549 20.517 32.8154 9.47762 41.7514 5.29336C73.1664 -9.12368 123.147 12.5289 126.993 54.2146Z" fill="white"/>
</mask>
<g mask="url(#mask0_505_7918)">
<path d="M20.6825 65.8917C18.5886 70.6031 19.3256 109.297 23.1426 129.364C31.9764 135.907 99.5304 131.327 102.802 129.364C106.074 127.401 105.747 109.406 106.074 99.5908C106.401 89.7755 110.982 63.2744 106.074 63.2744H41.6203C27.2246 63.2744 23.2999 60.0026 20.6825 65.8917Z" fill="#FF8732"/>
<path d="M13.157 45.9339C13.157 42.2696 15.3382 39.8266 16.4288 39.0632H57.3259H111.964C115.89 39.0632 115.236 45.9339 115.563 51.4959C115.89 57.0579 116.217 60.984 113.273 60.984H45.8747C35.4051 60.984 18.0647 61.3112 15.1201 60.984C12.1755 60.6568 13.157 50.5144 13.157 45.9339Z" fill="#FF8732"/>
<path d="M55.3229 83.6408C55.3229 74.1527 54.9958 39.145 55.3229 37.8363C55.4413 34.2373 69.0644 34.2373 71.3546 37.8363C73.6448 41.4352 70.7003 52.5592 71.3546 58.4483C72.009 64.3375 68.41 89.8572 69.0644 98.3637C69.7187 106.87 73.5269 132.963 70.5824 132.963C67.6378 132.963 59.2493 134.271 55.3232 132.963C51.3971 131.654 55.3229 93.1289 55.3229 83.6408Z" fill="#502314"/>
<path fill-rule="evenodd" clip-rule="evenodd" d="M55.6191 15.3098C60.3304 21.0681 63.4944 28.1787 64.3669 33.6316C65.8937 31.8866 66.9843 29.5751 67.6386 24.3403C68.3333 18.7832 74.2681 11.0565 81.1388 7.78472C88.0095 4.51297 92.2627 12.038 95.8617 19.8902C99.4606 27.7424 98.4791 33.6316 84.7377 35.5946C76.8094 36.7273 71.1682 38.6223 67.1859 39.96C64.2661 40.9409 62.2379 41.6222 60.8539 41.4838C58.471 41.2455 52.4432 38.9245 45.9309 36.4169L45.9308 36.4168C43.5019 35.4816 41.0056 34.5204 38.6059 33.6316C29.7722 30.3598 31.0809 22.1805 40.2418 15.3098L40.4326 15.1667C49.4076 8.43494 49.7711 8.16229 55.6191 15.3098ZM60.7683 33.8284C60.3911 30.8109 54.9046 26.9238 50.1363 23.5456C46.6325 21.0631 43.5165 18.8555 43.1007 17.4696C41.6177 12.5262 51.1735 13.4683 54.5837 17.3423C62.5232 26.3619 61.3098 38.1601 60.7683 33.8284ZM80.2977 22.5833C74.5084 26.6683 67.3844 31.6951 66.3301 35.7914C65.3458 39.6163 68.4016 25.4283 74.4255 16.2695C77.9139 10.9659 89.7477 10.0806 87.9236 16.1609C87.5273 17.482 84.2186 19.8167 80.2977 22.5833Z" fill="#502314"/>
<path d="M65.9898 45.3474C66.087 45.6444 66.1621 45.9483 66.2213 46.2532C66.2287 46.4571 66.2532 46.6515 66.2606 46.8554C66.2625 47.2874 66.2341 47.7128 66.135 48.132C66.0999 48.3169 66.0324 48.4756 65.9586 48.6402C65.8191 48.9953 65.6167 49.3176 65.3938 49.626C65.2703 49.774 65.1447 49.9023 65.0043 50.0353C64.8138 50.2406 64.6055 50.4151 64.3947 50.5945C64.1116 50.7884 63.8216 50.9603 63.5101 51.1025C63.2518 51.2078 62.9921 51.3216 62.7206 51.4108C62.1086 51.5624 61.4804 51.6624 60.8448 51.6354C60.2524 51.6433 59.6545 51.6207 59.0889 51.4302C58.9592 51.3779 58.8268 51.3426 58.6982 51.294C58.5362 51.2033 58.3664 51.1393 58.2084 51.0353C58.0083 50.8878 57.8094 50.744 57.6343 50.5725C57.3922 50.3169 57.1697 50.0592 56.9723 49.7653C56.842 49.5434 56.6979 49.342 56.5812 49.1117C56.0705 47.9741 56.0473 47.5002 56.0904 47.0056C56.0938 46.9519 56.0958 46.9068 56.0992 46.8532C56.0672 46.5964 56.1607 46.3528 56.2105 46.0986C56.2857 45.7192 56.3558 45.3495 56.448 45.1144C56.5555 44.838 56.6932 44.5806 56.8335 44.3182C56.974 44.0437 57.1529 43.8016 57.3416 43.5645C57.7198 43.1062 58.1307 42.6619 58.6454 42.3549C58.7529 42.2848 58.8484 42.2022 58.9571 42.1358C59.0929 42.0528 59.2259 41.9868 59.3712 41.921C59.6481 41.7977 59.9433 41.7455 60.2406 41.7129C60.756 41.6402 61.2717 41.6846 61.7856 41.7619C61.9512 41.7868 62.1207 41.7983 62.2836 41.8402C63.2285 42.0532 63.646 42.2618 64.1248 42.5887C64.4731 42.8474 64.801 43.1448 65.0646 43.4947C65.4918 44.044 65.7697 44.6846 65.9898 45.3474Z" fill="#FFAA00"/>
<path fill-rule="evenodd" clip-rule="evenodd" d="M60.1854 48.9712C60.4048 48.7134 60.885 48.4449 61.4381 48.2714C62.1457 48.0494 62.8626 48.009 63.3805 48.1554C63.1925 48.5474 62.6318 48.9664 61.8987 49.2156C61.8675 49.2262 61.8358 49.2365 61.8048 49.2463C61.025 49.4909 60.2957 49.464 59.9583 49.2057C60.0287 49.1447 60.1029 49.0683 60.1854 48.9712ZM58.7376 47.8448C58.3357 47.1399 58.1214 46.7641 57.682 46.1665C57.4302 45.8246 57.5985 45.5676 57.8726 45.4816C58.0256 45.4336 58.2111 45.4384 58.3754 45.5116C58.5564 45.5917 58.739 45.7051 58.9114 45.8122C59.2078 45.9963 59.474 46.1616 59.6497 46.1064C59.6606 46.103 59.6716 46.0988 59.6818 46.0935C59.9119 45.9398 59.9214 45.5225 59.9313 45.09C59.9358 44.8956 59.9403 44.698 59.965 44.52C59.9944 44.3074 60.1628 44.1277 60.3617 44.0653C60.5139 44.0176 60.6844 44.0385 60.8245 44.1656C60.9154 44.2481 61.008 44.3381 61.1002 44.4278C61.4291 44.7476 61.7544 45.064 61.9915 45.0232C61.9969 45.0219 62.0017 45.0204 62.0062 45.019C62.2246 44.9505 62.3332 44.6616 62.4675 44.3041C62.5215 44.1603 62.5797 44.0053 62.651 43.8491C62.7107 43.7175 62.8016 43.6407 62.9026 43.609C63.1827 43.5211 63.5441 43.7788 63.5638 44.1675C63.6084 45.0433 63.6782 45.5442 63.7393 45.9828C63.7971 46.3981 63.8472 46.7576 63.8607 47.3269C63.8642 47.4596 63.7872 47.6936 63.6717 47.7298C63.6511 47.7363 63.6294 47.7366 63.6069 47.7289C62.9317 47.5054 62.0561 47.5845 61.2973 47.8226C60.6641 48.0212 60.1118 48.3308 59.8256 48.6677C59.6872 48.8301 59.5915 48.9101 59.5178 48.9332C59.403 48.9692 59.3411 48.8661 59.2536 48.7206C59.2187 48.6623 59.1796 48.5972 59.1314 48.5315C58.9791 48.2683 58.8509 48.0435 58.7376 47.8448Z" fill="#502314"/>
<path d="M53.4003 29.1757C53.4533 29.3376 53.4943 29.5033 53.5265 29.6695C53.5305 29.7806 53.5439 29.8866 53.5479 29.9978C53.549 30.2333 53.5335 30.4651 53.4795 30.6937C53.4604 30.7945 53.4235 30.881 53.3833 30.9707C53.3073 31.1643 53.197 31.3399 53.0755 31.5081C53.0081 31.5887 52.9396 31.6587 52.8631 31.7312C52.7593 31.8431 52.6457 31.9383 52.5308 32.036C52.3765 32.1418 52.2184 32.2354 52.0486 32.3129C51.9078 32.3703 51.7662 32.4324 51.6182 32.481C51.2846 32.5636 50.9422 32.6182 50.5956 32.6035C50.2727 32.6078 49.9468 32.5954 49.6385 32.4916C49.5678 32.4631 49.4956 32.4438 49.4255 32.4173C49.3372 32.3679 49.2447 32.333 49.1585 32.2763C49.0494 32.1959 48.941 32.1175 48.8455 32.024C48.7136 31.8847 48.5923 31.7442 48.4847 31.584C48.4137 31.4631 48.3351 31.3533 48.2715 31.2278C47.9931 30.6076 47.9804 30.3493 48.0039 30.0796C48.0058 30.0504 48.0069 30.0258 48.0087 29.9966C47.9913 29.8566 48.0423 29.7238 48.0694 29.5852C48.1104 29.3784 48.1486 29.1769 48.1988 29.0487C48.2575 28.8981 48.3325 28.7577 48.409 28.6147C48.4856 28.465 48.5831 28.333 48.686 28.2038C48.8921 27.954 49.1162 27.7118 49.3967 27.5444C49.4553 27.5062 49.5074 27.4612 49.5666 27.425C49.6406 27.3797 49.7132 27.3438 49.7924 27.3079C49.9433 27.2407 50.1043 27.2122 50.2663 27.1945C50.5473 27.1548 50.8284 27.179 51.1085 27.2212C51.1988 27.2347 51.2912 27.241 51.38 27.2639C51.8951 27.38 52.1227 27.4937 52.3837 27.6719C52.5735 27.8129 52.7523 27.975 52.896 28.1658C53.1289 28.4652 53.2804 28.8144 53.4003 29.1757Z" fill="#FFAA00"/>
<path fill-rule="evenodd" clip-rule="evenodd" d="M50.236 31.1511C50.3556 31.0106 50.6174 30.8642 50.9189 30.7696C51.3046 30.6486 51.6954 30.6266 51.9777 30.7064C51.8753 30.9201 51.5696 31.1485 51.1699 31.2843C51.1529 31.2901 51.1357 31.2958 51.1188 31.3011C50.6937 31.4344 50.2961 31.4198 50.1122 31.279C50.1506 31.2457 50.191 31.204 50.236 31.1511ZM49.4468 30.5371C49.2277 30.1528 49.1109 29.948 48.8714 29.6222C48.734 29.4358 48.8258 29.2957 48.9752 29.2489C49.0586 29.2227 49.1598 29.2253 49.2493 29.2652C49.348 29.3089 49.4475 29.3707 49.5415 29.4291C49.7031 29.5294 49.8482 29.6195 49.944 29.5895C49.9499 29.5876 49.9559 29.5853 49.9615 29.5824C50.0869 29.4986 50.0921 29.2712 50.0975 29.0354C50.0999 28.9294 50.1024 28.8217 50.1158 28.7246C50.1319 28.6088 50.2237 28.5108 50.3321 28.4768C50.4151 28.4508 50.508 28.4622 50.5844 28.5315C50.634 28.5764 50.6844 28.6255 50.7347 28.6744C50.914 28.8487 51.0913 29.0212 51.2206 28.999C51.2235 28.9983 51.2261 28.9974 51.2286 28.9967C51.3476 28.9593 51.4068 28.8018 51.48 28.607C51.5095 28.5286 51.5412 28.4441 51.58 28.359C51.6126 28.2872 51.6622 28.2453 51.7172 28.2281C51.8699 28.1801 52.0669 28.3206 52.0776 28.5325C52.102 29.01 52.14 29.283 52.1733 29.5221C52.2048 29.7485 52.2321 29.9444 52.2395 30.2548C52.2414 30.3271 52.1994 30.4547 52.1365 30.4744C52.1252 30.4779 52.1134 30.4781 52.1011 30.4739C51.7331 30.3521 51.2557 30.3952 50.8421 30.525C50.497 30.6333 50.1959 30.802 50.0399 30.9857C49.9644 31.0742 49.9122 31.1178 49.8721 31.1304C49.8095 31.15 49.7757 31.0939 49.7281 31.0145C49.709 30.9827 49.6877 30.9473 49.6614 30.9115C49.5784 30.7679 49.5085 30.6454 49.4468 30.5371Z" fill="#502314"/>
<path d="M91.3736 27.6573C91.3026 27.8121 91.2202 27.9616 91.1311 28.1055C91.0586 28.1899 90.9965 28.2768 90.924 28.3611C90.7649 28.5348 90.5961 28.6945 90.4013 28.8257C90.3189 28.8867 90.2331 28.9252 90.1426 28.9638C89.9554 29.0543 89.7552 29.1084 89.5518 29.1494C89.4476 29.1629 89.3498 29.1678 89.2444 29.1691C89.0922 29.1808 88.9442 29.1736 88.7935 29.1674C88.6084 29.1403 88.4287 29.1017 88.2514 29.0434C88.109 28.9899 87.963 28.9394 87.8213 28.8747C87.5202 28.7089 87.2318 28.5165 86.9873 28.2704C86.7472 28.0544 86.5163 27.8241 86.3604 27.5386C86.3278 27.4696 86.2879 27.4065 86.2544 27.3395C86.2231 27.2432 86.1788 27.1548 86.1541 27.0546C86.1286 26.9216 86.1022 26.7904 86.0955 26.6569C86.0932 26.4651 86.0995 26.2796 86.1292 26.0889C86.1592 25.9518 86.176 25.8179 86.2145 25.6825C86.431 25.0382 86.5971 24.8399 86.7974 24.6578C86.8186 24.6376 86.8361 24.6203 86.8573 24.6001C86.9395 24.4855 87.0671 24.4226 87.1811 24.3392C87.3516 24.2152 87.5165 24.0932 87.6403 24.0331C87.7856 23.9623 87.9361 23.9102 88.0893 23.8571C88.2471 23.7992 88.4083 23.7685 88.5716 23.7434C88.8926 23.6999 89.2214 23.6741 89.5411 23.7417C89.6101 23.7534 89.6788 23.7557 89.7469 23.7693C89.832 23.7863 89.9097 23.8092 89.9922 23.8366C90.1486 23.8897 90.2861 23.9781 90.4172 24.075C90.6504 24.2366 90.8404 24.4452 91.0175 24.6663C91.0746 24.7376 91.1382 24.8049 91.1879 24.8819C91.4873 25.3168 91.5772 25.5549 91.6479 25.8629C91.6916 26.0953 91.7128 26.3357 91.6888 26.5733C91.6566 26.9513 91.5308 27.3105 91.3736 27.6573Z" fill="#FFAA00"/>
<path fill-rule="evenodd" clip-rule="evenodd" d="M87.7103 26.9602C87.8935 26.9382 88.1851 27.0084 88.4707 27.1436C88.8361 27.3166 89.138 27.5657 89.2911 27.816C89.0708 27.9033 88.6913 27.8635 88.3057 27.692C88.2893 27.6847 88.2728 27.6771 88.2567 27.6696C87.8541 27.4789 87.5721 27.1983 87.5326 26.9701C87.5834 26.9717 87.6414 26.9686 87.7103 26.9602ZM87.5476 25.9736C87.6475 25.5427 87.7008 25.313 87.7461 24.9112C87.7718 24.6811 87.9342 24.6405 88.0758 24.7075C88.1548 24.7449 88.2273 24.8155 88.2659 24.9056C88.3087 25.0047 88.3399 25.1176 88.3693 25.2243C88.4198 25.4077 88.4652 25.5723 88.556 25.6153C88.5616 25.6179 88.5675 25.6203 88.5736 25.622C88.7225 25.6456 88.8808 25.4821 89.0448 25.3126C89.1185 25.2364 89.1934 25.159 89.2692 25.0969C89.3596 25.0227 89.4935 25.0131 89.5962 25.0617C89.6748 25.0989 89.7353 25.1704 89.7444 25.2731C89.7503 25.3397 89.754 25.41 89.7577 25.4801C89.771 25.7298 89.7842 25.9768 89.8942 26.0482C89.8968 26.0497 89.8993 26.0509 89.9016 26.052C90.0144 26.1054 90.1647 26.0299 90.3508 25.9365C90.4257 25.8989 90.5063 25.8584 90.5926 25.8223C90.6652 25.7917 90.7301 25.7946 90.7822 25.8193C90.9268 25.8877 90.9761 26.1246 90.8402 26.2875C90.5339 26.6546 90.3765 26.8809 90.2387 27.079C90.1082 27.2667 89.9952 27.4291 89.79 27.662C89.7422 27.7164 89.6248 27.7816 89.5652 27.7534C89.5545 27.7484 89.5458 27.7404 89.5396 27.729C89.352 27.3897 88.9722 27.0974 88.5804 26.9119C88.2534 26.7571 87.9178 26.6766 87.6786 26.7056C87.5631 26.7194 87.4952 26.716 87.4571 26.698C87.3978 26.6699 87.4112 26.6057 87.4301 26.5151C87.4376 26.4788 87.4461 26.4383 87.4511 26.3942C87.4875 26.2325 87.5194 26.095 87.5476 25.9736Z" fill="#502314"/>
<path d="M63.1298 107.259C63.1894 107.441 63.2355 107.627 63.2718 107.814C63.2763 107.939 63.2913 108.058 63.2958 108.183C63.297 108.448 63.2796 108.709 63.2189 108.966C63.1974 109.079 63.1559 109.176 63.1107 109.277C63.0252 109.495 62.9011 109.693 62.7645 109.882C62.6888 109.972 62.6118 110.051 62.5257 110.132C62.4089 110.258 62.2813 110.365 62.152 110.475C61.9785 110.594 61.8007 110.699 61.6098 110.787C61.4514 110.851 61.2922 110.921 61.1258 110.976C60.7506 111.069 60.3656 111.13 59.9759 111.113C59.6128 111.118 59.2463 111.104 58.8996 110.988C58.8201 110.955 58.7389 110.934 58.6601 110.904C58.5608 110.848 58.4567 110.809 58.3598 110.745C58.2371 110.655 58.1152 110.567 58.0078 110.462C57.8595 110.305 57.7231 110.147 57.6021 109.967C57.5222 109.831 57.4338 109.707 57.3623 109.566C57.0492 108.869 57.035 108.578 57.0614 108.275C57.0635 108.242 57.0647 108.215 57.0668 108.182C57.0472 108.024 57.1045 107.875 57.135 107.719C57.1811 107.487 57.2241 107.26 57.2806 107.116C57.3466 106.947 57.431 106.789 57.517 106.628C57.6031 106.46 57.7128 106.311 57.8284 106.166C58.0603 105.885 58.3122 105.613 58.6277 105.424C58.6936 105.381 58.7521 105.331 58.8187 105.29C58.902 105.239 58.9835 105.199 59.0726 105.158C59.2424 105.083 59.4233 105.051 59.6056 105.031C59.9215 104.986 60.2376 105.013 60.5526 105.061C60.6541 105.076 60.7581 105.083 60.8579 105.109C61.4371 105.239 61.6931 105.367 61.9866 105.568C62.2001 105.726 62.4011 105.909 62.5627 106.123C62.8246 106.46 62.9949 106.852 63.1298 107.259Z" fill="#FFAA00"/>
<path fill-rule="evenodd" clip-rule="evenodd" d="M59.5728 109.48C59.7073 109.322 60.0017 109.158 60.3407 109.051C60.7745 108.915 61.2139 108.89 61.5314 108.98C61.4162 109.22 61.0724 109.477 60.623 109.63C60.6039 109.636 60.5845 109.643 60.5655 109.649C60.0875 109.799 59.6404 109.782 59.4336 109.624C59.4767 109.587 59.5222 109.54 59.5728 109.48ZM58.6853 108.79C58.4389 108.358 58.3075 108.127 58.0382 107.761C57.8838 107.551 57.987 107.394 58.155 107.341C58.2488 107.312 58.3625 107.315 58.4632 107.359C58.5742 107.409 58.6861 107.478 58.7918 107.544C58.9735 107.657 59.1367 107.758 59.2444 107.724C59.2511 107.722 59.2578 107.719 59.2641 107.716C59.4051 107.622 59.411 107.366 59.417 107.101C59.4198 106.982 59.4225 106.861 59.4377 106.752C59.4557 106.621 59.5589 106.511 59.6809 106.473C59.7742 106.444 59.8787 106.456 59.9646 106.534C60.0203 106.585 60.077 106.64 60.1336 106.695C60.3352 106.891 60.5346 107.085 60.6799 107.06C60.6832 107.059 60.6862 107.058 60.689 107.057C60.8228 107.015 60.8894 106.838 60.9717 106.619C61.0048 106.531 61.0405 106.436 61.0842 106.34C61.1208 106.26 61.1766 106.213 61.2385 106.193C61.4102 106.139 61.6317 106.297 61.6438 106.535C61.6711 107.072 61.7139 107.379 61.7513 107.648C61.7868 107.903 61.8175 108.123 61.8258 108.472C61.8279 108.554 61.7807 108.697 61.7099 108.719C61.6973 108.723 61.684 108.723 61.6702 108.719C61.2563 108.582 60.7195 108.63 60.2544 108.776C59.8662 108.898 59.5276 109.088 59.3522 109.294C59.2674 109.394 59.2087 109.443 59.1635 109.457C59.0931 109.479 59.0552 109.416 59.0016 109.327C58.9802 109.291 58.9562 109.251 58.9267 109.211C58.8333 109.049 58.7547 108.911 58.6853 108.79Z" fill="#502314"/>
<path fill-rule="evenodd" clip-rule="evenodd" d="M67.7897 117.488C67.9864 117.519 68.1821 117.556 68.3742 117.604C68.5663 117.652 68.8736 117.617 68.9863 117.399C69.0989 117.181 69.0717 116.98 68.8119 116.787L68.3562 116.457L68.1277 116.291L68.3841 115.236C68.5095 114.79 68.1894 114.486 67.7099 114.748C67.4592 114.889 67.2198 115.048 66.9934 115.224C66.9491 115.257 66.9039 115.292 66.8536 115.328C66.6012 115.181 66.3688 115.001 66.1625 114.794C65.7439 114.403 65.2887 114.813 65.4495 115.265C65.4813 115.357 65.5129 115.46 65.547 115.565C65.6049 115.76 65.6727 115.953 65.75 116.142C65.4368 116.378 65.1431 116.638 64.8714 116.92C64.695 117.1 64.5974 117.329 64.6939 117.496C64.8054 117.685 65.1093 117.674 65.4018 117.612C65.6858 117.565 65.9725 117.535 66.2608 117.522C66.3083 117.659 66.3464 117.798 66.3845 117.937C66.4409 118.174 66.5197 118.405 66.6197 118.627C66.8437 119.084 67.3409 119.054 67.437 118.567C67.513 118.194 67.6313 117.832 67.7897 117.488V117.488Z" fill="#FFAA00"/>
<path fill-rule="evenodd" clip-rule="evenodd" d="M61.4725 95.1071C61.5127 95.2609 61.5476 95.4161 61.5737 95.5721C61.5998 95.728 61.723 95.9421 61.9188 95.9552C62.1146 95.9682 62.2527 95.8845 62.3119 95.6326L62.4086 95.1937L62.4571 94.9737L63.3116 94.8258C63.678 94.7758 63.7991 94.4445 63.4546 94.1766C63.2718 94.0378 63.0791 93.913 62.8778 93.8033C62.8395 93.7814 62.7999 93.7593 62.7574 93.7339C62.7846 93.5024 62.8421 93.2749 62.9286 93.0578C63.0815 92.6269 62.6363 92.4239 62.3565 92.6855C62.2993 92.738 62.2339 92.7939 62.168 92.8522C62.0432 92.9569 61.9237 93.0678 61.8097 93.1846C61.5375 93.0302 61.2535 92.8978 60.9603 92.7886C60.7726 92.7165 60.5736 92.718 60.4821 92.8418C60.3793 92.9834 60.4841 93.2026 60.6226 93.3971C60.7468 93.5904 60.86 93.7909 60.9617 93.9977C60.8766 94.0761 60.7866 94.1483 60.6966 94.2206C60.5414 94.3371 60.3972 94.4684 60.266 94.6125C60.0029 94.9218 60.1826 95.2767 60.5703 95.1919C60.8676 95.1289 61.1703 95.1005 61.4725 95.1071V95.1071Z" fill="#FFAA00"/>
<path fill-rule="evenodd" clip-rule="evenodd" d="M58.6178 70.3369C58.6457 70.4437 58.6699 70.5515 58.6881 70.6598C58.7062 70.7681 58.7917 70.9168 58.9277 70.9258C59.0636 70.9349 59.1596 70.8768 59.2007 70.7018L59.2678 70.3971L59.3015 70.2443L59.8948 70.1416C60.1492 70.1069 60.2333 69.8769 59.9941 69.6908C59.8672 69.5944 59.7334 69.5078 59.5936 69.4316C59.567 69.4164 59.5395 69.401 59.51 69.3834C59.5289 69.2226 59.5688 69.0647 59.6288 68.9139C59.735 68.6147 59.4259 68.4738 59.2316 68.6554C59.1919 68.6919 59.1465 68.7307 59.1007 68.7712C59.0141 68.8438 58.931 68.9209 58.8519 69.002C58.6629 68.8948 58.4657 68.8028 58.2621 68.727C58.1317 68.6769 57.9936 68.678 57.9301 68.7639C57.8587 68.8623 57.9314 69.0145 58.0276 69.1496C58.1139 69.2838 58.1925 69.423 58.2631 69.5666C58.204 69.621 58.1415 69.6712 58.079 69.7214C57.9712 69.8023 57.8711 69.8934 57.78 69.9935C57.5973 70.2082 57.7221 70.4547 57.9913 70.3958C58.1978 70.3521 58.4079 70.3323 58.6178 70.3369V70.3369Z" fill="#FFAA00"/>
<path fill-rule="evenodd" clip-rule="evenodd" d="M79.4733 33.3553C79.5012 33.4621 79.5254 33.5699 79.5435 33.6781C79.5617 33.7864 79.6472 33.9351 79.7831 33.9442C79.9191 33.9532 80.015 33.8951 80.0561 33.7202L80.1233 33.4154L80.1569 33.2627L80.7503 33.16C81.0047 33.1252 81.0888 32.8952 80.8496 32.7092C80.7227 32.6128 80.5888 32.5261 80.4491 32.45C80.4224 32.4347 80.395 32.4194 80.3654 32.4018C80.3843 32.241 80.4243 32.083 80.4843 31.9322C80.5905 31.633 80.2814 31.4921 80.0871 31.6737C80.0474 31.7102 80.002 31.749 79.9562 31.7895C79.8696 31.8622 79.7865 31.9392 79.7074 32.0203C79.5184 31.9131 79.3212 31.8211 79.1176 31.7453C78.9872 31.6953 78.849 31.6963 78.7855 31.7823C78.7142 31.8806 78.7869 32.0328 78.8831 32.1679C78.9693 32.3021 79.0479 32.4413 79.1186 32.5849C79.0594 32.6393 78.997 32.6895 78.9345 32.7397C78.8267 32.8206 78.7266 32.9118 78.6355 33.0118C78.4528 33.2266 78.5776 33.473 78.8467 33.4142C79.0532 33.3704 79.2634 33.3507 79.4733 33.3553V33.3553Z" fill="#FFAA00"/>
<path fill-rule="evenodd" clip-rule="evenodd" d="M67.8465 55.5863C67.9891 55.6813 68.1285 55.7812 68.2613 55.888C68.3942 55.9947 68.6468 56.0788 68.8138 55.9489C68.9807 55.819 69.0319 55.6525 68.8989 55.4073L68.662 54.9848L68.5433 54.7729L69.125 54.0412C69.384 53.7382 69.244 53.3847 68.7746 53.4161C68.5279 53.4354 68.2833 53.4732 68.0427 53.5293C67.9961 53.5391 67.9484 53.5496 67.896 53.5598C67.7518 53.3539 67.6351 53.1295 67.5489 52.8928C67.363 52.4363 66.8592 52.5922 66.8215 53.0033C66.8131 53.0866 66.8006 53.1785 66.7894 53.2727C66.764 53.4464 66.7473 53.6214 66.7393 53.7972C66.4095 53.8681 66.086 53.9651 65.7717 54.0875C65.5689 54.1641 65.4098 54.308 65.425 54.4732C65.4438 54.6609 65.6853 54.7622 65.9363 54.8194C66.1748 54.886 66.4097 54.9662 66.6399 55.0597C66.6275 55.1838 66.6069 55.3065 66.5863 55.4291C66.545 55.6342 66.523 55.8433 66.5207 56.0534C66.5307 56.4909 66.9299 56.6477 67.1811 56.3015C67.3753 56.0376 67.5985 55.7977 67.8465 55.5863V55.5863Z" fill="#FFAA00"/>
<path fill-rule="evenodd" clip-rule="evenodd" d="M37.3162 26.5596C37.4588 26.6546 37.5982 26.7545 37.7311 26.8613C37.8639 26.968 38.1165 27.0521 38.2835 26.9222C38.4504 26.7923 38.5016 26.6258 38.3686 26.3806L38.1318 25.9581L38.013 25.7462L38.5947 25.0145C38.8538 24.7115 38.7137 24.358 38.2443 24.3894C37.9977 24.4087 37.753 24.4465 37.5124 24.5026C37.4658 24.5124 37.4181 24.5229 37.3657 24.5331C37.2215 24.3272 37.1048 24.1028 37.0186 23.8661C36.8327 23.4096 36.3289 23.5655 36.2913 23.9766C36.2829 24.0599 36.2703 24.1518 36.2591 24.246C36.2337 24.4197 36.217 24.5947 36.2091 24.7705C35.8792 24.8414 35.5557 24.9384 35.2414 25.0608C35.0387 25.1374 34.8795 25.2813 34.8947 25.4465C34.9136 25.6342 35.155 25.7355 35.406 25.7927C35.6445 25.8592 35.8795 25.9395 36.1096 26.033C36.0972 26.1571 36.0767 26.2798 36.0561 26.4024C36.0147 26.6075 35.9927 26.8166 35.9905 27.0267C36.0005 27.4642 36.3996 27.621 36.6508 27.2748C36.845 27.0109 37.0682 26.771 37.3162 26.5596V26.5596Z" fill="#FFAA00"/>
<path d="M69.6726 64.9342C69.5881 65.1556 69.4873 65.3705 69.3766 65.5783C69.2836 65.7019 69.2053 65.8282 69.1122 65.9518C68.9072 66.2073 68.6874 66.4443 68.4289 66.6439C68.32 66.7361 68.2045 66.7973 68.0824 66.8591C67.8307 67.0017 67.5577 67.0949 67.2791 67.1702C67.1357 67.1984 67.0005 67.2141 66.8543 67.2254C66.6441 67.2554 66.4381 67.2588 66.2283 67.2638C65.9689 67.2429 65.716 67.2057 65.4647 67.1408C65.2622 67.0795 65.0549 67.0226 64.8524 66.9456C64.4196 66.7427 64.0017 66.5018 63.6402 66.1824C63.2874 65.9044 62.946 65.6056 62.7038 65.2234C62.6524 65.1307 62.5912 65.0467 62.5387 64.9567C62.4865 64.8259 62.417 64.7072 62.3736 64.5704C62.3261 64.3881 62.2776 64.2084 62.2563 64.0238C62.2357 63.7577 62.2277 63.4997 62.2517 63.2323C62.2808 63.0394 62.2921 62.8519 62.3332 62.6606C62.5754 61.7466 62.7879 61.4564 63.0494 61.1856C63.0771 61.1556 63.0998 61.13 63.1274 61.1C63.2311 60.9335 63.4025 60.8346 63.5531 60.7086C63.7785 60.521 63.9964 60.3367 64.1629 60.2422C64.3581 60.1308 64.5622 60.0448 64.77 59.9572C64.9838 59.8626 65.2048 59.8053 65.4291 59.7557C65.8707 59.6663 66.3248 59.6007 66.7746 59.6656C66.8714 59.6756 66.967 59.6725 67.0627 59.6853C67.1824 59.7012 67.2923 59.7258 67.4093 59.7564C67.6312 59.816 67.8301 59.9262 68.0208 60.0489C68.3591 60.252 68.6417 60.5243 68.9075 60.8152C68.9932 60.9089 69.0875 60.9966 69.1635 61.099C69.6184 61.6755 69.7648 61.9978 69.8908 62.4189C69.9725 62.7375 70.0237 63.0692 70.0119 63.4012C70.0014 63.9287 69.8593 64.4387 69.6726 64.9342Z" fill="#FFAA00"/>
<path fill-rule="evenodd" clip-rule="evenodd" d="M64.5234 64.2985C64.7757 64.2514 65.1867 64.3224 65.5954 64.4842C66.1181 64.6912 66.5597 65.0096 66.7949 65.3431C66.4971 65.4843 65.9668 65.4634 65.4159 65.2603C65.3925 65.2516 65.3689 65.2426 65.346 65.2335C64.7699 65.0054 64.3531 64.6414 64.2776 64.3283C64.3482 64.326 64.4284 64.3163 64.5234 64.2985ZM64.2081 62.9439C64.3079 62.3368 64.361 62.0131 64.3874 61.4513C64.4023 61.1297 64.6241 61.0586 64.8266 61.1388C64.9397 61.1836 65.0467 61.275 65.1085 61.3965C65.1769 61.5301 65.2303 61.6841 65.2808 61.8294C65.3675 62.0794 65.4455 62.3038 65.5753 62.3552C65.5833 62.3584 65.5918 62.3611 65.6003 62.3629C65.8092 62.3822 66.014 62.1409 66.2263 61.8909C66.3218 61.7784 66.4187 61.6642 66.5183 61.5711C66.6371 61.4599 66.822 61.4345 66.969 61.4927C67.0815 61.5372 67.1719 61.6309 67.1937 61.7727C67.208 61.8646 67.2195 61.9618 67.231 62.0587C67.2721 62.4041 67.3127 62.7458 67.4719 62.8349C67.4756 62.8367 67.4792 62.8382 67.4825 62.8395C67.6439 62.9034 67.8457 62.785 68.0955 62.6385C68.196 62.5796 68.3043 62.5161 68.4208 62.4581C68.5188 62.4091 68.609 62.4072 68.6836 62.4368C68.8906 62.5187 68.9805 62.843 68.8065 63.0813C68.4147 63.6186 68.2167 63.947 68.0434 64.2345C67.8792 64.5068 67.7371 64.7424 67.4733 65.0843C67.412 65.1641 67.255 65.2652 67.1696 65.2314C67.1544 65.2254 67.1415 65.2152 67.1319 65.1999C66.8408 64.746 66.2872 64.3746 65.7266 64.1526C65.2588 63.9674 64.7857 63.8861 64.4563 63.9479C64.2972 63.9776 64.2026 63.979 64.1482 63.9574C64.0634 63.9238 64.0761 63.8336 64.0941 63.7061C64.1013 63.6551 64.1093 63.5981 64.1123 63.5364C64.1482 63.3086 64.18 63.115 64.2081 62.9439Z" fill="#502314"/>
<path d="M67.1923 83.2866C67.079 83.5833 66.9439 83.8713 66.7956 84.1498C66.671 84.3155 66.566 84.4847 66.4413 84.6504C66.1666 84.9927 65.872 85.3103 65.5256 85.5779C65.3797 85.7014 65.2248 85.7834 65.0612 85.8662C64.724 86.0573 64.3581 86.1822 63.9848 86.2832C63.7926 86.3209 63.6113 86.3419 63.4154 86.3571C63.1337 86.3973 62.8576 86.4018 62.5765 86.4086C62.2289 86.3806 61.89 86.3307 61.5532 86.2437C61.2819 86.1616 61.0041 86.0853 60.7327 85.9821C60.1526 85.7103 59.5927 85.3874 59.1081 84.9594C58.6354 84.5868 58.1779 84.1864 57.8533 83.6742C57.7844 83.55 57.7024 83.4374 57.632 83.3168C57.5621 83.1416 57.469 82.9824 57.4108 82.7992C57.3472 82.5548 57.2822 82.314 57.2536 82.0666C57.226 81.71 57.2152 81.3642 57.2474 81.0059C57.2865 80.7474 57.3015 80.4962 57.3567 80.2397C57.6813 79.0149 57.9661 78.626 58.3165 78.2631C58.3535 78.2229 58.384 78.1886 58.421 78.1484C58.56 77.9252 58.7897 77.7927 58.9915 77.6239C59.2936 77.3725 59.5855 77.1255 59.8086 76.9988C60.0703 76.8495 60.3437 76.7343 60.6223 76.6169C60.9088 76.4901 61.2049 76.4134 61.5055 76.3469C62.0973 76.2271 62.7059 76.1392 63.3086 76.2261C63.4383 76.2395 63.5665 76.2354 63.6948 76.2525C63.8551 76.2738 64.0024 76.3068 64.1591 76.3478C64.4566 76.4276 64.7231 76.5753 64.9786 76.7397C65.432 77.012 65.8107 77.3769 66.1669 77.7667C66.2817 77.8923 66.4082 78.0098 66.51 78.1471C67.1197 78.9197 67.3158 79.3515 67.4847 79.9158C67.5941 80.3428 67.6628 80.7874 67.647 81.2322C67.633 81.9392 67.4425 82.6226 67.1923 83.2866Z" fill="#FFAA00"/>
<path fill-rule="evenodd" clip-rule="evenodd" d="M60.2927 82.4347C60.6309 82.3715 61.1817 82.4667 61.7294 82.6836C62.43 82.9609 63.0217 83.3877 63.3369 83.8345C62.9378 84.0238 62.2271 83.9958 61.4889 83.7236C61.4575 83.712 61.4259 83.6999 61.3952 83.6877C60.6231 83.382 60.0645 82.8942 59.9634 82.4745C60.058 82.4715 60.1655 82.4586 60.2927 82.4347ZM59.8703 80.6193C60.004 79.8057 60.0752 79.3719 60.1106 78.6191C60.1305 78.188 60.4278 78.0929 60.6992 78.2003C60.8506 78.2603 60.994 78.3828 61.0769 78.5457C61.1685 78.7247 61.2402 78.931 61.3078 79.1258C61.4241 79.4608 61.5285 79.7616 61.7024 79.8304C61.7132 79.8347 61.7246 79.8384 61.736 79.8408C62.016 79.8666 62.2905 79.5433 62.5749 79.2082C62.7028 79.0575 62.8328 78.9044 62.9662 78.7797C63.1254 78.6307 63.3732 78.5965 63.5702 78.6745C63.7209 78.7342 63.8421 78.8598 63.8714 79.0498C63.8904 79.173 63.9059 79.3033 63.9213 79.4331C63.9764 79.896 64.0308 80.3539 64.2441 80.4733C64.2491 80.4757 64.2539 80.4776 64.2584 80.4794C64.4746 80.565 64.7451 80.4064 65.0798 80.2101C65.2145 80.1311 65.3596 80.046 65.5157 79.9683C65.6471 79.9026 65.768 79.9001 65.868 79.9397C66.1454 80.0495 66.2658 80.4841 66.0327 80.8035C65.5076 81.5235 65.2423 81.9636 65.01 82.3489C64.79 82.7138 64.5995 83.0296 64.2461 83.4877C64.1639 83.5946 63.9535 83.7302 63.839 83.6848C63.8187 83.6768 63.8014 83.6631 63.7885 83.6427C63.3984 83.0343 62.6565 82.5366 61.9052 82.2392C61.2783 81.991 60.6443 81.882 60.2028 81.9649C59.9896 82.0046 59.863 82.0065 59.79 81.9776C59.6763 81.9326 59.6934 81.8116 59.7175 81.6408C59.7271 81.5724 59.7379 81.496 59.7419 81.4133C59.79 81.1081 59.8327 80.8486 59.8703 80.6193Z" fill="#502314"/>
<path d="M63.8669 126.639C63.7824 126.861 63.6816 127.075 63.571 127.283C63.4779 127.407 63.3996 127.533 63.3066 127.657C63.1015 127.912 62.8818 128.149 62.6232 128.349C62.5143 128.441 62.3988 128.502 62.2767 128.564C62.0251 128.707 61.752 128.8 61.4735 128.875C61.3301 128.903 61.1948 128.919 61.0486 128.93C60.8384 128.96 60.6324 128.964 60.4226 128.969C60.1633 128.948 59.9104 128.911 59.659 128.846C59.4566 128.785 59.2493 128.728 59.0468 128.651C58.6139 128.448 58.1961 128.207 57.8345 127.887C57.4818 127.609 57.1404 127.311 56.8981 126.928C56.8467 126.836 56.7855 126.752 56.733 126.662C56.6809 126.531 56.6114 126.412 56.5679 126.275C56.5205 126.093 56.472 125.913 56.4506 125.729C56.43 125.463 56.422 125.205 56.446 124.937C56.4752 124.744 56.4864 124.557 56.5275 124.366C56.7698 123.452 56.9823 123.161 57.2438 122.891C57.2714 122.861 57.2941 122.835 57.3217 122.805C57.4255 122.638 57.5968 122.54 57.7475 122.414C57.9729 122.226 58.1907 122.042 58.3572 121.947C58.5525 121.836 58.7565 121.75 58.9643 121.662C59.1781 121.568 59.3992 121.51 59.6234 121.461C60.065 121.371 60.5192 121.306 60.9689 121.371C61.0657 121.381 61.1614 121.378 61.2571 121.39C61.3767 121.406 61.4866 121.431 61.6036 121.461C61.8256 121.521 62.0244 121.631 62.2151 121.754C62.5534 121.957 62.836 122.229 63.1018 122.52C63.1875 122.614 63.2819 122.702 63.3578 122.804C63.8128 123.381 63.9591 123.703 64.0852 124.124C64.1668 124.443 64.2181 124.774 64.2063 125.106C64.1958 125.634 64.0537 126.144 63.8669 126.639Z" fill="#FFAA00"/>
<path fill-rule="evenodd" clip-rule="evenodd" d="M58.7187 126.004C58.971 125.956 59.382 126.027 59.7907 126.189C60.3135 126.396 60.755 126.715 60.9903 127.048C60.6924 127.189 60.1621 127.168 59.6113 126.965C59.5878 126.957 59.5642 126.948 59.5413 126.939C58.9652 126.71 58.5484 126.346 58.4729 126.033C58.5435 126.031 58.6237 126.021 58.7187 126.004ZM58.4034 124.649C58.5032 124.042 58.5563 123.718 58.5827 123.156C58.5976 122.835 58.8194 122.764 59.022 122.844C59.135 122.889 59.242 122.98 59.3038 123.102C59.3722 123.235 59.4256 123.389 59.4761 123.534C59.5629 123.784 59.6408 124.009 59.7706 124.06C59.7786 124.063 59.7871 124.066 59.7957 124.068C60.0046 124.087 60.2094 123.846 60.4216 123.596C60.5171 123.483 60.6141 123.369 60.7136 123.276C60.8324 123.165 61.0173 123.139 61.1643 123.198C61.2768 123.242 61.3672 123.336 61.3891 123.478C61.4033 123.57 61.4148 123.667 61.4263 123.764C61.4674 124.109 61.508 124.451 61.6672 124.54C61.6709 124.542 61.6745 124.543 61.6778 124.544C61.8392 124.608 62.041 124.49 62.2908 124.344C62.3913 124.285 62.4996 124.221 62.6161 124.163C62.7141 124.114 62.8044 124.112 62.879 124.142C63.0859 124.224 63.1758 124.548 63.0019 124.786C62.61 125.324 62.4121 125.652 62.2387 125.939C62.0745 126.212 61.9324 126.447 61.6687 126.789C61.6073 126.869 61.4503 126.97 61.3649 126.936C61.3497 126.93 61.3368 126.92 61.3272 126.905C61.0361 126.451 60.4825 126.08 59.9219 125.858C59.4541 125.672 58.981 125.591 58.6516 125.653C58.4925 125.683 58.398 125.684 58.3435 125.662C58.2587 125.629 58.2714 125.539 58.2894 125.411C58.2966 125.36 58.3046 125.303 58.3076 125.241C58.3435 125.014 58.3753 124.82 58.4034 124.649Z" fill="#502314"/>
</g>
</svg>
