<svg width="64" height="26" viewBox="0 0 64 26" fill="none" xmlns="http://www.w3.org/2000/svg">
<path d="M10.6131 6.33187C11.3217 6.09199 12.0777 5.96406 12.8619 5.96406C16.2951 5.96406 19.1613 8.43957 19.8165 11.7307L24.6827 10.7232C23.5678 5.1325 18.6983 0.923492 12.8619 0.923492C11.5233 0.923492 10.2414 1.14418 9.03821 1.55356L10.6131 6.33187Z" fill="#FFCB05"/>
<path d="M4.87104 22.3431L8.16247 18.5659C6.69472 17.245 5.76871 15.3164 5.76871 13.1671C5.76871 11.021 6.69472 9.09243 8.16247 7.77472L4.87104 3.99429C2.37648 6.23952 0.801636 9.51781 0.801636 13.1671C0.801636 16.8196 2.37648 20.0979 4.87104 22.3431Z" fill="#00A4E0"/>
<path d="M19.8165 14.6123C19.1582 17.9003 16.2951 20.3726 12.8651 20.3726C12.0777 20.3726 11.3186 20.2447 10.6131 20.0016L9.03821 24.7864C10.2414 25.1926 11.5265 25.4133 12.8651 25.4133C18.6952 25.4133 23.5615 21.2106 24.6827 15.6262L19.8165 14.6123Z" fill="#EF4123"/>
<path d="M28.938 18.722C28.7774 18.4597 28.5632 18.0408 28.4309 17.7305C27.6592 15.9139 27.6246 14.0333 28.2734 12.2295C28.9884 10.2497 30.3554 8.73696 32.1224 7.96298C34.3429 6.9939 36.7965 7.1826 38.9257 8.46511C40.2769 9.25189 41.2344 10.4672 41.962 12.1879C42.0534 12.4086 42.1353 12.6421 42.2171 12.8436L28.938 18.722ZM33.3728 10.883C31.7948 11.5706 30.9822 13.0738 31.1523 14.8329L37.8296 11.9129C36.68 10.544 35.187 10.0898 33.3728 10.883ZM38.6611 17.2348C38.658 17.2348 38.658 17.238 38.658 17.238L38.5194 17.142C38.1194 17.7977 37.4989 18.3318 36.7146 18.6772C35.2217 19.3361 33.8389 19.1666 32.8436 18.2806L32.7523 18.4214C32.7523 18.4214 32.7523 18.4182 32.7492 18.4182L31.0546 20.9928C31.4767 21.2902 31.9271 21.5397 32.3995 21.7412C34.2705 22.5312 36.1855 22.4928 38.0721 21.6612C39.436 21.0599 40.5069 20.1452 41.2376 18.9843L38.6611 17.2348Z" fill="black"/>
<path d="M46.8569 4.17673V18.4857L49.0491 19.3876L47.8049 22.3364L45.386 21.313C44.8442 21.0731 44.4726 20.7085 44.1954 20.2959C43.9277 19.8769 43.7292 19.2981 43.7292 18.5241V4.17673H46.8569Z" fill="black"/>
<path d="M52.5323 14.8431C52.5323 13.6246 53.0646 12.5308 53.9025 11.7888L51.6536 9.24298C50.1291 10.6118 49.1684 12.6108 49.1684 14.8368C49.1653 17.0659 50.1259 19.0681 51.6473 20.4369L53.893 17.8911C53.0583 17.1459 52.5323 16.0585 52.5323 14.8431Z" fill="black"/>
<path d="M56.5261 18.9013C56.0851 18.9013 55.6568 18.8245 55.2599 18.6902L54.1859 21.93C54.9198 22.1795 55.704 22.317 56.5229 22.317C60.0821 22.3202 63.0522 19.7552 63.742 16.3491L60.4412 15.6647C60.0663 17.5165 58.4569 18.9045 56.5261 18.9013Z" fill="black"/>
<path d="M56.5358 7.36847C55.7201 7.36847 54.9358 7.50279 54.2019 7.74905L55.2665 10.992C55.6665 10.8576 56.0917 10.7841 56.5327 10.7841C58.4666 10.7873 60.0793 12.1817 60.4446 14.0366L63.7455 13.3586C63.0684 9.94617 60.0982 7.37167 56.5358 7.36847Z" fill="black"/>
</svg>
