<svg width="36" height="36" viewBox="0 0 36 36" fill="none" xmlns="http://www.w3.org/2000/svg">
<path d="M35.7427 19.434V0.295258H0.916382V35.6586H35.7427V25.341C35.6651 25.341 35.7427 19.434 35.7427 19.434Z" fill="#006FCF"/>
<path d="M31.4766 17.4651H34.1138V11.2429H31.244V12.1093L30.701 11.2429H28.219V12.3456L27.7536 11.2429H23.1773C23.0221 11.2429 22.867 11.3217 22.7119 11.3217C22.5568 11.3217 22.4792 11.4004 22.3241 11.4792C22.1689 11.5579 22.0914 11.5579 21.9363 11.6367V11.2429H8.8279L8.44008 12.2668L8.05226 11.2429H4.94969V12.3456L4.4843 11.2429H2.00225L0.916351 13.9208V17.4651H2.70033L3.01058 16.5987H3.6311L3.94136 17.4651H17.5927V16.6775L18.1356 17.4651H21.9362V16.9925C22.0138 17.0713 22.1689 17.0713 22.2465 17.15C22.3241 17.2288 22.4792 17.2288 22.5568 17.3076C22.7119 17.3863 22.867 17.3863 23.0221 17.3863H25.8145L26.1247 16.5199H26.7452L27.0555 17.3863H30.8561V16.5987L31.4766 17.4651ZM35.7427 25.3413V19.5129H14.4125L13.8696 20.3005L13.3266 19.5129H7.12149V25.7351H13.3266L13.8696 24.9475L14.4125 25.7351H18.2907V24.3961H18.1356C18.6786 24.3961 19.1439 24.3174 19.5318 24.1599V25.8139H22.3241V25.0262L22.867 25.8139H34.4241C34.8895 25.6563 35.3549 25.5776 35.7427 25.3413Z" fill="white"/>
<path d="M34.4241 23.8449H32.3299V24.7112H34.3465C35.1997 24.7112 35.7427 24.1599 35.7427 23.3723C35.7427 22.5847 35.2773 22.1909 34.5017 22.1909H33.5709C33.3382 22.1909 33.1831 22.0334 33.1831 21.7971C33.1831 21.5608 33.3382 21.4033 33.5709 21.4033H35.3549L35.7427 20.537H33.6484C32.7952 20.537 32.2523 21.0883 32.2523 21.7971C32.2523 22.5847 32.7177 22.9785 33.4933 22.9785H34.4241C34.6568 22.9785 34.8119 23.136 34.8119 23.3723C34.8895 23.6873 34.7343 23.8449 34.4241 23.8449ZM30.6234 23.8449H28.5292V24.7112H30.5459C31.3991 24.7112 31.942 24.1599 31.942 23.3723C31.942 22.5847 31.4766 22.1909 30.701 22.1909H29.7702C29.5375 22.1909 29.3824 22.0334 29.3824 21.7971C29.3824 21.5608 29.5375 21.4033 29.7702 21.4033H31.5542L31.942 20.537H29.8478C28.9946 20.537 28.4516 21.0883 28.4516 21.7971C28.4516 22.5847 28.917 22.9785 29.6927 22.9785H30.6234C30.8561 22.9785 31.0113 23.136 31.0113 23.3723C31.0888 23.6873 30.8561 23.8449 30.6234 23.8449ZM27.9087 21.3246V20.4582H24.651V24.6325H27.9087V23.7661H25.5818V22.8998H27.8311V22.0334H25.5818V21.2458H27.9087V21.3246ZM22.6343 21.3246C23.0221 21.3246 23.1773 21.5608 23.1773 21.7971C23.1773 22.0334 23.0221 22.2697 22.6343 22.2697H21.4709V21.2458L22.6343 21.3246ZM21.4709 23.136H21.9363L23.1773 24.6325H24.3407L22.9446 23.0573C23.6427 22.8998 24.0305 22.4272 24.0305 21.7971C24.0305 21.0095 23.4875 20.4582 22.6343 20.4582H20.4625V24.6325H21.3933L21.4709 23.136ZM18.9888 21.8759C18.9888 22.1909 18.8337 22.4272 18.4459 22.4272H17.2048V21.3246H18.3683C18.7561 21.3246 18.9888 21.5608 18.9888 21.8759ZM16.2741 20.4582V24.6325H17.2048V23.2148H18.4459C19.2991 23.2148 19.9196 22.6635 19.9196 21.7971C19.9196 21.0095 19.3766 20.3795 18.5234 20.3795L16.2741 20.4582ZM14.8779 24.6325H16.0414L14.4125 22.506L16.0414 20.4582H14.8779L13.8696 21.7971L12.8612 20.4582H11.6978L13.3266 22.506L11.6978 24.5537H12.8612L13.8696 23.2148L14.8779 24.6325ZM11.3875 21.3246V20.4582H8.12982V24.6325H11.3875V23.7661H9.06059V22.8998H11.31V22.0334H9.06059V21.2458H11.3875V21.3246ZM30.2356 13.9212L31.8645 16.4415H33.0279V12.2673H32.0972V15.0238L31.8645 14.63L30.3907 12.2673H29.1497V16.4415H30.0805V13.6062L30.2356 13.9212ZM26.2023 13.8425L26.5125 12.9761L26.8228 13.8425L27.2106 14.7876H25.8145L26.2023 13.8425ZM27.8311 16.4415H28.8395L27.0555 12.2673H25.8145L24.0305 16.4415H25.0388L25.4266 15.5752H27.4433L27.8311 16.4415ZM23.4875 16.4415L23.8754 15.5752H23.6427C22.9446 15.5752 22.5568 15.1026 22.5568 14.3938V14.315C22.5568 13.6062 22.9446 13.1336 23.6427 13.1336H24.651V12.2673H23.5651C22.3241 12.2673 21.626 13.1336 21.626 14.315V14.3938C21.626 15.6539 22.3241 16.4415 23.4875 16.4415ZM19.9971 16.4415H20.9279V12.346H19.9971V16.4415ZM17.9805 13.1336C18.3683 13.1336 18.5234 13.3699 18.5234 13.6062C18.5234 13.8425 18.3683 14.0787 17.9805 14.0787H16.817V13.0549L17.9805 13.1336ZM16.817 14.9451H17.2824L18.5234 16.4415H19.6869L18.2907 14.8663C18.9888 14.7088 19.3766 14.2363 19.3766 13.6062C19.3766 12.8186 18.8337 12.2673 17.9805 12.2673H15.8087V16.4415H16.7394L16.817 14.9451ZM15.1106 13.1336V12.2673H11.8529V16.4415H15.1106V15.5752H12.7837V14.7088H15.033V13.8425H12.7837V13.0549H15.1106V13.1336ZM8.05226 16.4415H8.90546L10.0689 13.0549V16.4415H10.9997V12.2673H9.44841L8.51764 15.1026L7.58687 12.2673H6.03559V16.4415H6.96636V13.0549L8.05226 16.4415ZM3.01058 13.8425L3.32084 12.9761L3.6311 13.8425L4.01892 14.7876H2.62276L3.01058 13.8425ZM4.63943 16.4415H5.64777L3.86379 12.2673H2.70033L0.916351 16.4415H1.92469L2.31251 15.5752H4.32918L4.63943 16.4415Z" fill="#006FCF"/>
</svg>
