<svg width="56" height="37" viewBox="0 0 56 37" fill="none" xmlns="http://www.w3.org/2000/svg">
<path d="M37.5989 0.845614C34.0287 0.843913 30.5392 1.90698 27.5768 3.89884C27.3728 4.03821 25.9632 5.04477 25.9013 5.0938C23.5597 6.85399 21.9874 7.15854 19.8343 6.61913C19.7026 6.58557 19.0856 6.37394 18.8894 6.29909C16.8783 5.54234 14.715 5.27926 12.5811 5.53195C10.4472 5.78464 8.40512 6.54572 6.62656 7.75123C4.84799 8.95674 3.38488 10.5714 2.36019 12.4596C1.33549 14.3478 0.779158 16.4544 0.737944 18.6021C0.696729 20.7499 1.17184 22.8762 2.12334 24.8023C3.07484 26.7284 4.47493 28.398 6.20594 29.6708C7.93694 30.9436 9.94828 31.7825 12.0709 32.1168C14.1935 32.4511 16.3654 32.2712 18.4041 31.5921C21.6157 30.632 23.3583 30.8952 25.3746 32.3173C25.7773 32.6012 26.748 33.2232 26.9494 33.3703C29.2443 35.0538 31.9056 36.1697 34.7151 36.6263C37.5247 37.083 40.4025 36.8675 43.1126 35.9976C45.8228 35.1276 48.2881 33.6279 50.3065 31.6214C52.325 29.615 53.839 27.1589 54.7245 24.4544C55.6099 21.75 55.8417 18.8743 55.4007 16.0631C54.9598 13.2518 53.8587 10.5851 52.1876 8.28144C50.5166 5.9778 48.3232 4.10287 45.7874 2.81034C43.2515 1.51782 40.4453 0.844513 37.5989 0.845614Z" fill="#00795D"/>
<path d="M31.1002 21.6378C30.5874 22.1423 29.9188 22.4583 29.2033 22.5342C28.4879 22.6101 27.7678 22.4415 27.1605 22.0559L25.9652 23.9529C27.0008 24.6071 28.2271 24.8927 29.4453 24.7635C30.6635 24.6342 31.8024 24.0976 32.6776 23.2405L31.1002 21.6378Z" fill="white"/>
<path d="M28.9471 13.9106C27.9598 13.8949 26.9869 14.148 26.1325 14.6428C25.2782 15.1376 24.5746 15.8555 24.0971 16.7195C23.6196 17.5834 23.3862 18.561 23.422 19.5475C23.4577 20.5339 23.7613 21.492 24.3 22.3192L34.1569 18.1071C33.8795 16.9278 33.2165 15.8746 32.2728 15.1145C31.3292 14.3544 30.1588 13.9307 28.9471 13.9106ZM25.6813 19.6867C25.6067 19.005 25.7533 18.3175 26.0995 17.7255C26.4456 17.1335 26.9729 16.6684 27.6036 16.3988C28.2343 16.1293 28.9349 16.0695 29.6022 16.2284C30.2694 16.3873 30.8679 16.7564 31.3093 17.2812L25.6813 19.6867Z" fill="white"/>
<path d="M37.2523 11.4612V21.963L39.075 22.7192L38.2153 24.7839L36.4081 24.0354C36.0443 23.8798 35.7351 23.6192 35.52 23.287C35.2799 22.9003 35.1587 22.4515 35.1715 21.9965V11.4612H37.2523Z" fill="white"/>
<path d="M21.3804 11.4612V21.963L23.1876 22.7192L22.3279 24.7839L20.5207 24.0354C20.169 23.8786 19.8704 23.6231 19.661 23.2999C19.42 22.9134 19.2979 22.4647 19.3099 22.0094V11.4612H21.3804Z" fill="white"/>
<path d="M46.2213 16.4632C46.6001 16.6458 46.9391 16.9013 47.2191 17.2149C47.4991 17.5285 47.7145 17.8943 47.8531 18.2912C47.9917 18.6881 48.0507 19.1084 48.0267 19.5281C48.0028 19.9478 47.8963 20.3586 47.7135 20.7372L49.7272 21.705C50.2751 20.5673 50.4099 19.2745 50.1085 18.0483C49.807 16.822 49.0881 15.7389 48.0751 14.9847C47.0621 14.2305 45.8181 13.8523 44.5566 13.9148C43.295 13.9774 42.0946 14.4769 41.1612 15.3276L42.6689 16.982C43.1412 16.5501 43.7322 16.2699 44.3655 16.1774C44.9987 16.0849 45.6452 16.1845 46.2213 16.4632Z" fill="#CAD400"/>
<path d="M43.4458 22.2356C42.681 21.8666 42.0936 21.2096 41.8125 20.4085C41.5313 19.6073 41.5793 18.7275 41.9458 17.9616L39.9296 16.9912C39.3892 18.1276 39.2595 19.4162 39.5627 20.6374C39.8658 21.8586 40.5831 22.9371 41.5922 23.6891C42.6013 24.4411 43.84 24.8201 45.0973 24.7617C46.3546 24.7033 47.5528 24.211 48.4878 23.3687L46.9801 21.7169C46.5091 22.1444 45.9214 22.422 45.292 22.5144C44.6626 22.6068 44.0199 22.5097 43.4458 22.2356Z" fill="white"/>
<path d="M17.2494 22.3889V19.3485C17.2494 18.2766 16.9315 17.2287 16.3357 16.3374C15.74 15.4461 14.8933 14.7514 13.9026 14.3412C12.912 13.931 11.8219 13.8236 10.7702 14.0328C9.71854 14.2419 8.75252 14.7581 7.9943 15.5161C7.23609 16.2741 6.71974 17.2398 6.51055 18.2912C6.30136 19.3425 6.40872 20.4323 6.81906 21.4227C7.22941 22.413 7.9243 23.2595 8.81586 23.8551C9.70743 24.4506 10.7556 24.7685 11.8279 24.7685C12.6684 24.7686 13.4975 24.5733 14.2495 24.1981L13.3769 22.1592C12.8883 22.4292 12.3377 22.5671 11.7795 22.5591C11.2213 22.5512 10.6748 22.3976 10.1942 22.1137C9.71351 21.8298 9.31535 21.4253 9.03906 20.9403C8.76277 20.4554 8.61793 19.9067 8.61887 19.3485C8.61596 18.8242 8.74278 18.3073 8.98805 17.8439C9.20394 17.4394 9.50383 17.0858 9.86761 16.8067C10.2314 16.5276 10.6507 16.3295 11.0973 16.2256C11.3342 16.1696 11.5767 16.141 11.8202 16.1405C12.6722 16.1398 13.4896 16.4773 14.0928 17.0789C14.696 17.6804 15.0356 18.4968 15.0369 19.3485C15.0369 19.4389 15.0369 22.3631 15.0369 22.3631C15.0241 22.8181 15.1453 23.2668 15.3855 23.6535C15.602 23.9844 15.9107 24.2446 16.2736 24.402L17.2907 24.8046L18.1504 22.7399L17.2494 22.3889Z" fill="white"/>
</svg>
