<svg width="36" height="37" viewBox="0 0 36 37" fill="none" xmlns="http://www.w3.org/2000/svg">
<path d="M18.3128 36.8598C28.0808 36.8598 35.9993 28.8182 35.9993 18.8984C35.9993 8.97854 28.0808 0.93692 18.3128 0.93692C8.54489 0.93692 0.626404 8.97854 0.626404 18.8984C0.626404 28.8182 8.54489 36.8598 18.3128 36.8598Z" fill="white"/>
<path fill-rule="evenodd" clip-rule="evenodd" d="M31.7532 20.1683H26.3915C26.5947 21.3506 27.7048 21.8043 28.6663 21.8043C29.2755 21.8043 29.817 21.6668 30.3451 21.4195L30.1963 23.0416C29.6004 23.289 28.883 23.3853 28.1654 23.3853C25.7825 23.3853 24.1036 21.9694 24.1036 19.5635C24.1036 17.4738 25.6064 15.9066 27.908 15.9066C30.5075 15.9066 31.8073 17.5838 31.7532 20.1683ZM22.059 23.2479C21.9506 22.9865 21.7881 22.5605 21.6528 22.1343L21.3414 21.0757C21.1789 20.5122 20.9623 20.2784 20.4342 20.2784H19.5406V23.2479H17.4691V13.5419H19.5406V18.8898H19.7709L21.7339 16.0441H24.0356L21.7204 19.0135H21.8423C22.7629 19.0135 23.0337 19.536 23.2639 20.3059L23.6566 21.6394C23.7919 22.1343 24.0763 22.8354 24.2928 23.2479H22.059ZM15.4247 21.6394C15.9662 21.6394 16.413 21.4881 16.7515 21.3232L16.562 23.0692C16.1287 23.289 15.5193 23.399 14.9914 23.399C12.7573 23.399 11.214 21.9281 11.214 19.6322C11.214 17.3639 12.7303 15.9066 14.9778 15.9066C15.8036 15.9066 16.4401 16.0715 17.0898 16.3739L16.4941 17.9961C16.1827 17.8037 15.7496 17.6526 15.2892 17.6526C14.152 17.6526 13.4073 18.4086 13.4073 19.6322C13.4073 20.842 14.1925 21.653 15.4247 21.6394ZM8.46537 15.1229H10.5774V13.5419H8.46537V15.1229ZM8.46537 23.2479H10.5774V16.0441H8.46537V23.2479ZM32.2004 19.3573V14.463L34.3124 13.597V16.1815H35.7339L35.4496 17.79H34.2853V19.4397C34.2853 21.0421 34.8834 22.1707 35.5176 23.077C35.8325 21.7359 36.0001 20.3368 36.0001 18.8979C35.9999 8.9782 28.0805 0.936829 18.3113 0.936829C10.3794 0.936829 3.66695 6.23819 1.42268 13.5419H8.00482L7.74761 15.4666H4.99912V23.2479H2.7515V15.4666H0.946461C0.734909 16.5774 0.622742 17.7243 0.622742 18.8979C0.622894 28.8177 8.54223 36.8591 18.3115 36.8591C26.6032 36.8591 33.5613 31.0656 35.4767 23.2479H33.3918C33.0262 22.6017 32.1868 21.4331 32.2004 19.3573ZM27.9757 17.3913C27.0822 17.3913 26.5136 17.9824 26.3375 18.7661H29.5193C29.4109 17.9 28.8152 17.3913 27.9757 17.3913Z" fill="#D52B1E"/>
</svg>
