<svg width="89" height="25" viewBox="0 0 89 25" fill="none" xmlns="http://www.w3.org/2000/svg">
<path d="M32.8327 11.8575C32.8327 5.83725 25.6659 0.929285 16.827 0.929285C7.98686 0.929285 0.822499 5.83725 0.822499 11.8575C0.822499 12.013 0.821289 12.444 0.821289 12.4983C0.821289 18.8839 7.0836 24.0573 16.8246 24.0573C26.6273 24.0573 32.8327 18.8864 32.8327 12.4983V11.8575Z" fill="#28316B"/>
<path d="M32.219 11.8528C32.219 17.528 25.3307 22.1301 16.8296 22.1301C8.33091 22.1301 1.44141 17.528 1.44141 11.8528C1.44141 6.17626 8.33091 1.57413 16.8296 1.57413C25.3307 1.57413 32.219 6.17626 32.219 11.8528Z" fill="#50B4E9"/>
<path d="M11.7203 8.60972C11.7118 8.62616 11.558 8.793 11.6573 8.92445C11.9007 9.24929 12.6514 9.43383 13.4105 9.25688C13.8622 9.1507 14.4397 8.6704 15.0003 8.20652C15.6082 7.7022 16.2124 7.19661 16.8178 6.9969C17.4595 6.78329 17.87 6.8743 18.1424 6.95898C18.4403 7.05378 18.7914 7.25728 19.3496 7.69588C20.403 8.52251 24.6372 12.3801 25.3673 13.0475C25.9582 12.7694 28.576 11.5914 32.1345 10.7749C31.8258 8.79426 30.6707 6.98173 28.921 5.49784C26.4825 6.56715 23.5014 7.12583 20.587 5.63814C20.5725 5.63434 18.9948 4.85321 17.4377 4.8924C15.1251 4.94801 14.1225 5.99331 13.0618 7.09928L11.7203 8.60972Z" fill="white"/>
<path d="M25.1968 13.4667C25.1471 13.4212 20.2191 8.91775 19.1015 8.04183C18.4562 7.53625 18.0966 7.40732 17.7188 7.35676C17.5214 7.33148 17.2514 7.36814 17.0601 7.42375C16.5419 7.57037 15.8626 8.04436 15.2596 8.54235C14.6349 9.0631 14.0464 9.55099 13.5003 9.67991C12.8029 9.84296 11.9505 9.64958 11.5606 9.3753C11.4032 9.26534 11.293 9.13641 11.2397 9.00749C11.0957 8.65864 11.3608 8.38183 11.4032 8.3338L12.7642 6.79936C12.9216 6.63504 13.0814 6.46947 13.2448 6.30642C12.8065 6.36709 12.4009 6.48463 12.005 6.59839C11.5122 6.74374 11.0387 6.88025 10.5581 6.88025C10.3583 6.88025 9.2855 6.69824 9.08208 6.6401C7.8519 6.28619 6.77064 5.94619 5.15785 5.15874C3.22418 6.66159 1.93103 8.54109 1.55811 10.6102C1.83538 10.6873 2.28217 10.8251 2.46985 10.868C6.84692 11.8843 8.20909 12.9308 8.4573 13.1495C8.72489 12.8385 9.10993 12.6414 9.54098 12.6414C10.0265 12.6439 10.4624 12.8967 10.7276 13.2885C10.9782 13.0812 11.3233 12.9068 11.7701 12.9068C11.9723 12.9068 12.183 12.9447 12.3961 13.0205C12.8901 13.1962 13.1443 13.54 13.2763 13.8522C13.4422 13.7726 13.6456 13.7145 13.8854 13.7157C14.1215 13.7157 14.3673 13.7713 14.6131 13.8826C15.4195 14.2441 15.5454 15.0732 15.4727 15.6963C15.5309 15.6888 15.5866 15.6862 15.6471 15.6862C16.6024 15.6875 17.3822 16.4977 17.381 17.4975C17.381 17.8071 17.3047 18.0966 17.1739 18.3532C17.4342 18.5049 18.0978 18.8512 18.679 18.7741C19.1451 18.7121 19.3219 18.5466 19.3849 18.453C19.4285 18.3898 19.4745 18.314 19.4309 18.2596L18.1983 16.8276C18.1983 16.8276 17.9936 16.6279 18.0602 16.5495C18.1305 16.4711 18.2564 16.5849 18.346 16.662C18.972 17.2106 19.7408 18.0359 19.7408 18.0359C19.7529 18.046 19.805 18.1497 20.0871 18.2028C20.3317 18.2483 20.764 18.223 21.0643 17.9664C21.1393 17.9019 21.2156 17.8198 21.2786 17.7376C21.2737 17.7414 21.2689 17.7465 21.264 17.749C21.5801 17.3268 21.2289 16.8996 21.2289 16.8996L19.7881 15.211C19.7881 15.211 19.581 15.0113 19.6512 14.9304C19.7142 14.8621 19.8474 14.967 19.937 15.0454C20.3935 15.4423 21.0388 16.1198 21.6563 16.7517C21.7774 16.8428 22.3211 17.1941 23.0403 16.7012C23.4762 16.4016 23.5634 16.0351 23.5525 15.757C23.521 15.3905 23.2473 15.1288 23.2473 15.1288L21.2786 13.0635C21.2786 13.0635 21.0703 12.8777 21.143 12.7842C21.2035 12.7046 21.3379 12.8183 21.4275 12.8967C22.0547 13.444 23.7535 15.0694 23.7535 15.0694C23.7765 15.0871 24.3649 15.5232 25.0878 15.0404C25.3481 14.8672 25.514 14.6068 25.5273 14.3047C25.5527 13.7777 25.1968 13.4667 25.1968 13.4667Z" fill="white"/>
<path d="M15.6464 16.0863C15.3413 16.0825 15.0083 16.2721 14.9635 16.2443C14.9393 16.2278 14.9829 16.1002 15.012 16.0256C15.0398 15.9535 15.4418 14.6909 14.4622 14.251C13.7115 13.9148 13.2539 14.2927 13.0964 14.4646C13.0541 14.5088 13.0359 14.5051 13.0311 14.4482C13.0165 14.2207 12.9197 13.6051 12.2719 13.3991C11.3456 13.1046 10.7511 13.7783 10.5998 14.021C10.5332 13.4711 10.0876 13.0439 9.54151 13.0427C8.94821 13.0427 8.46631 13.5444 8.46631 14.1638C8.46631 14.7819 8.947 15.2837 9.5403 15.2837C9.82847 15.2849 10.09 15.1648 10.2825 14.9715C10.2886 14.9778 10.291 14.9879 10.2874 15.0094C10.2426 15.2862 10.1602 16.2936 11.1713 16.7043C11.5769 16.8687 11.9208 16.7461 12.2065 16.5362C12.2913 16.4743 12.3046 16.5008 12.2925 16.5843C12.2561 16.8434 12.3022 17.3983 13.048 17.713C13.6147 17.9544 13.9501 17.7079 14.1692 17.4956C14.2649 17.4046 14.2915 17.421 14.2976 17.56C14.323 18.3108 14.9199 18.9049 15.6452 18.9062C16.3911 18.9062 16.9965 18.2767 16.9965 17.4981C16.9965 16.7182 16.3923 16.0951 15.6464 16.0863Z" fill="white"/>
<path d="M15.6463 18.8055C14.9695 18.8055 14.4198 18.2557 14.3956 17.558C14.3931 17.4973 14.3871 17.338 14.2587 17.338C14.2055 17.338 14.1582 17.3709 14.1062 17.4202C13.956 17.5655 13.7672 17.7109 13.4911 17.7109C13.3652 17.7109 13.2296 17.6806 13.0855 17.6199C12.3711 17.3178 12.3614 16.8046 12.3905 16.5986C12.3977 16.5443 12.4002 16.4874 12.365 16.4431L12.3202 16.4027H12.2766C12.2403 16.4027 12.2016 16.4166 12.1519 16.4545C11.9449 16.6062 11.7463 16.6782 11.5453 16.6782C11.4339 16.6782 11.3213 16.6568 11.2063 16.61C10.2667 16.2283 10.3406 15.3018 10.3866 15.0225C10.3926 14.9656 10.3793 14.9226 10.3454 14.8923L10.2788 14.8341L10.2171 14.8973C10.033 15.0831 9.79328 15.183 9.54143 15.183C9.00383 15.183 8.56431 14.7254 8.56431 14.163C8.56431 13.6005 9.00504 13.1442 9.54264 13.1442C10.0294 13.1442 10.4447 13.5259 10.5064 14.0353L10.5403 14.3083L10.6832 14.077C10.7002 14.0492 11.0949 13.4261 11.8214 13.4261C11.9582 13.4261 12.1011 13.4514 12.244 13.4969C12.8239 13.6801 12.9208 14.2274 12.9365 14.4575C12.9474 14.5902 13.037 14.5965 13.0552 14.5965C13.1036 14.5965 13.1424 14.5636 13.1678 14.5346C13.2768 14.4145 13.5141 14.2173 13.887 14.2173C14.0578 14.2186 14.2382 14.259 14.4246 14.3437C15.3448 14.7558 14.9271 15.9767 14.9223 15.9881C14.8436 16.1904 14.8411 16.2801 14.915 16.3307L14.9513 16.3496H14.978C15.0191 16.3496 15.07 16.3307 15.156 16.3003C15.2807 16.2548 15.4696 16.1878 15.6463 16.1878H15.6475C16.3389 16.1967 16.9019 16.7831 16.9019 17.4985C16.9007 18.219 16.3377 18.8055 15.6463 18.8055ZM25.3873 12.9294C23.8701 11.5453 20.3612 8.36016 19.4095 7.61569C18.8671 7.18974 18.4966 6.96349 18.1721 6.86364C18.0256 6.81813 17.8234 6.76505 17.563 6.76505C17.3221 6.76505 17.063 6.81055 16.7905 6.90029C16.1755 7.10252 15.5652 7.61063 14.9719 8.10105L14.9429 8.12633C14.3907 8.58388 13.8216 9.05786 13.3906 9.15771C13.2017 9.20195 13.008 9.2247 12.8155 9.2247C12.3323 9.2247 11.8989 9.07935 11.7366 8.86195C11.7088 8.82656 11.7269 8.76968 11.7887 8.68499L11.7972 8.67362L13.1327 7.17078C14.1788 6.07998 15.1669 5.04733 17.442 4.99298C17.4795 4.99172 17.5182 4.99046 17.5558 4.99046C18.9712 4.99298 20.3867 5.65403 20.5453 5.72987C21.8735 6.40735 23.243 6.75114 24.6209 6.75241C26.0569 6.75241 27.5377 6.38081 29.0948 5.63254C28.9204 5.47961 28.7388 5.33172 28.5536 5.18511C27.1853 5.80444 25.8825 6.1179 24.6245 6.1179C23.3398 6.11538 22.0564 5.79307 20.8116 5.15856C20.7451 5.12696 19.1831 4.35595 17.5558 4.35595C17.5134 4.35595 17.471 4.35595 17.4286 4.35721C15.518 4.40398 14.4416 5.11306 13.7175 5.7324C13.0128 5.75136 12.4062 5.92831 11.8662 6.0863C11.3831 6.22534 10.9678 6.34668 10.5621 6.34668C10.3938 6.34668 10.0936 6.33151 10.0669 6.33025C9.59955 6.31508 7.24695 5.71344 5.37504 4.97276C5.18373 5.11432 4.99969 5.25968 4.8217 5.40882C6.77715 6.2443 9.15639 6.89271 9.9071 6.942C10.1154 6.95843 10.3381 6.98245 10.5609 6.98245C11.0574 6.98245 11.5526 6.83709 12.0333 6.69806C12.3166 6.61337 12.629 6.52363 12.9571 6.45664C12.8699 6.54765 12.7828 6.63865 12.6944 6.73092L11.3371 8.26283C11.2317 8.37533 10.998 8.67615 11.1518 9.04648C11.2123 9.19563 11.3346 9.33846 11.509 9.4598C11.8323 9.68731 12.411 9.84025 12.9486 9.84025C13.1521 9.84151 13.347 9.82002 13.5238 9.77705C14.0929 9.6456 14.6886 9.14886 15.3206 8.62432C15.8243 8.20595 16.5399 7.67636 17.0872 7.51963C17.241 7.47665 17.4299 7.45011 17.5812 7.45011C17.626 7.45137 17.6684 7.45138 17.7071 7.45643C18.0692 7.50572 18.4203 7.63338 19.0451 8.1238C20.159 8.99719 25.0882 13.4994 25.1367 13.5436C25.1403 13.5462 25.4539 13.828 25.4321 14.3007C25.42 14.5624 25.2807 14.7949 25.0386 14.9567C24.8279 15.0958 24.61 15.1666 24.392 15.1666C24.0615 15.1666 23.835 15.0048 23.8205 14.9934C23.8011 14.9782 22.1133 13.3616 21.4909 12.8194C21.3928 12.7334 21.2972 12.6563 21.2003 12.6563C21.147 12.6563 21.101 12.6791 21.0695 12.7195C20.9715 12.8459 21.0817 13.0204 21.2112 13.1354L23.1848 15.2032C23.1873 15.2057 23.4306 15.4446 23.4561 15.7631C23.4718 16.1057 23.3144 16.3926 22.9875 16.6163C22.755 16.7768 22.5201 16.8577 22.2888 16.8577C21.9849 16.8577 21.7742 16.7136 21.7258 16.6782L21.4437 16.3888C20.9255 15.8567 20.3915 15.3068 20.0016 14.9668C19.906 14.8834 19.8043 14.8076 19.7074 14.8076C19.659 14.8076 19.6154 14.8278 19.5827 14.8632C19.5379 14.915 19.5064 15.0073 19.6178 15.1615C19.6638 15.226 19.7171 15.2778 19.7171 15.2778L21.1579 16.9652C21.17 16.9816 21.4534 17.3342 21.1894 17.6856L21.1386 17.7539C21.095 17.8032 21.049 17.8474 21.0054 17.8878C20.7596 18.0989 20.4315 18.1204 20.3019 18.1204C20.2317 18.1204 20.1639 18.1141 20.107 18.1027C19.9641 18.0774 19.8684 18.0357 19.8236 17.9788L19.8067 17.9586C19.7268 17.8752 19.0015 17.1004 18.4009 16.5784C18.3222 16.5101 18.2229 16.4217 18.1212 16.4217C18.0704 16.4217 18.0256 16.4431 17.9917 16.4823C17.8718 16.6188 18.0498 16.8223 18.1261 16.8956L19.355 18.3087C19.3538 18.3214 19.3369 18.3517 19.3066 18.396C19.263 18.4604 19.1141 18.6159 18.6697 18.674C18.6164 18.6803 18.5608 18.6829 18.5063 18.6829C18.0462 18.6829 17.557 18.4503 17.3039 18.31C17.4202 18.0572 17.4795 17.7791 17.4795 17.4985C17.4795 16.4431 16.6586 15.5849 15.6475 15.5849C15.6257 15.5849 15.604 15.5849 15.5809 15.5862C15.6161 15.1046 15.5507 14.192 14.6535 13.7914C14.3956 13.6738 14.1377 13.6157 13.887 13.6157C13.6921 13.6157 13.5032 13.6498 13.3252 13.7219C13.1412 13.3439 12.8324 13.0697 12.4292 12.9268C12.2064 12.8459 11.9861 12.8055 11.7717 12.8055C11.3976 12.8055 11.0549 12.9192 10.7486 13.1468C10.4544 12.7663 10.01 12.5401 9.54264 12.5401C9.1346 12.5401 8.74109 12.7107 8.44928 13.0128C8.06788 12.7069 6.55073 11.7021 2.49331 10.7402C2.29716 10.6947 1.84674 10.5594 1.56946 10.4748C1.52345 10.7035 1.48955 10.9348 1.46533 11.1687C1.46533 11.1687 2.21361 11.3557 2.36133 11.3911C6.50593 12.353 7.87657 13.3515 8.10783 13.5398C8.02913 13.737 7.98917 13.9494 7.98796 14.163C7.98796 15.0579 8.68418 15.7846 9.54143 15.7859C9.63708 15.7859 9.73153 15.777 9.82597 15.7593C9.95553 16.4166 10.3672 16.9159 10.998 17.1712C11.1809 17.2458 11.3685 17.2837 11.5514 17.2837C11.67 17.2837 11.7875 17.2685 11.9049 17.2382C12.0212 17.5453 12.2839 17.9308 12.8687 18.1786C13.0746 18.2645 13.2792 18.3087 13.479 18.3087C13.6424 18.3087 13.8023 18.2797 13.9536 18.2215C14.2345 18.9357 14.9017 19.4084 15.6463 19.4084C16.1391 19.4096 16.6126 19.1998 16.9588 18.8282C17.2543 18.9989 17.8791 19.3085 18.5087 19.3098C18.591 19.3098 18.6673 19.306 18.7448 19.2959C19.3708 19.2125 19.6614 18.9571 19.7958 18.7587C19.82 18.7233 19.8418 18.6854 19.8599 18.6487C20.0089 18.693 20.1699 18.7284 20.3576 18.7284C20.699 18.7284 21.0272 18.6083 21.3601 18.3555C21.6846 18.109 21.9171 17.7577 21.9498 17.4581C21.951 17.4543 21.9522 17.4493 21.9522 17.4442C22.0624 17.4682 22.1762 17.4796 22.2864 17.4796C22.64 17.4796 22.9863 17.3658 23.3168 17.1396C23.9549 16.7023 24.0663 16.1322 24.0566 15.7581C24.168 15.7808 24.2818 15.7947 24.3956 15.7947C24.7262 15.7947 25.0507 15.6911 25.3594 15.4851C25.7566 15.2209 25.9939 14.8164 26.0302 14.3462C26.0557 14.0265 25.9794 13.7042 25.8171 13.4261C26.8875 12.9445 29.3321 12.0142 32.2126 11.3368C32.1945 11.1029 32.163 10.8729 32.1218 10.6441C28.6383 11.4518 26.0387 12.6247 25.3873 12.9294Z" fill="#28316B"/>
<path d="M85.9382 9.22953C85.6573 9.61756 85.2577 9.81221 84.7322 9.81221C84.2091 9.81221 83.8059 9.61756 83.5238 9.22953C83.2405 8.8415 83.1 8.28915 83.1 7.57249C83.1 6.8571 83.2405 6.30602 83.5238 5.92052C83.8059 5.53375 84.2091 5.34037 84.7322 5.34037C85.2577 5.34037 85.6573 5.53375 85.9382 5.92052C86.2167 6.30602 86.3583 6.8571 86.3583 7.57249C86.3583 8.28915 86.2167 8.8415 85.9382 9.22953ZM87.3693 4.89419C86.7906 4.13962 85.9139 3.7617 84.7383 3.7617C83.5626 3.7617 82.6847 4.13962 82.1072 4.89419C81.5284 5.65003 81.2402 6.54238 81.2402 7.57249C81.2402 8.62157 81.5284 9.51771 82.1072 10.2622C82.6847 11.0054 83.5626 11.3782 84.7383 11.3782C85.9139 11.3782 86.7906 11.0054 87.3693 10.2622C87.9469 9.51771 88.2351 8.62157 88.2351 7.57249C88.2351 6.54238 87.9469 5.65003 87.3693 4.89419Z" fill="#28316B"/>
<path d="M71.6945 8.34716C71.6824 8.9741 71.5105 9.40639 71.1799 9.64276C70.8506 9.88039 70.4885 9.9992 70.0975 9.9992C69.8492 9.9992 69.6398 9.92589 69.4666 9.78432C69.2935 9.64023 69.2075 9.41018 69.2075 9.08912C69.2075 8.73141 69.3492 8.46597 69.6313 8.29407C69.7996 8.19421 70.0732 8.10826 70.4571 8.04001L70.8663 7.95911C71.0685 7.91866 71.2296 7.87569 71.347 7.83018C71.4657 7.78594 71.5795 7.72653 71.6945 7.64943V8.34716ZM72.605 4.26318C72.0202 3.95224 71.3494 3.79676 70.5951 3.79676C69.4339 3.79676 68.6154 4.1115 68.1384 4.74224C67.8381 5.14671 67.671 5.66243 67.6322 6.28937H69.3649C69.4073 6.01129 69.4933 5.79262 69.6204 5.63209C69.7996 5.41215 70.1035 5.30219 70.5333 5.30219C70.916 5.30219 71.2078 5.3578 71.4063 5.47156C71.6025 5.58153 71.7018 5.78503 71.7018 6.07828C71.7018 6.31971 71.5722 6.4954 71.3155 6.61042C71.1702 6.67742 70.9317 6.73177 70.5975 6.77601L69.9824 6.85311C69.285 6.94665 68.7547 7.10086 68.3963 7.31574C67.74 7.7101 67.4131 8.34716 67.4131 9.22816C67.4131 9.90693 67.6153 10.4315 68.0245 10.8031C68.4314 11.1735 68.9472 11.3289 69.5732 11.3593C73.4914 11.5425 73.4478 9.20415 73.4841 8.71751V6.02519C73.4841 5.16188 73.1899 4.57412 72.605 4.26318Z" fill="#28316B"/>
<path d="M63.6695 5.39975C64.1175 5.39975 64.4468 5.54384 64.6587 5.83329C64.804 6.04563 64.896 6.28705 64.9311 6.55374H66.8648C66.7583 5.53499 66.418 4.82592 65.8405 4.42398C65.2617 4.02205 64.5219 3.81981 63.6174 3.81981C62.5519 3.81981 61.7176 4.16234 61.1122 4.84361C60.5068 5.52615 60.2041 6.47917 60.2041 7.70393C60.2041 8.78967 60.4777 9.67443 61.025 10.357C61.5735 11.0382 62.4284 11.3782 63.5895 11.3782C64.7531 11.3782 65.6298 10.97 66.2207 10.1535C66.5924 9.64536 66.7994 9.10944 66.843 8.5394H64.9166C64.8779 8.91606 64.7653 9.22194 64.5788 9.45829C64.3935 9.69213 64.0799 9.8122 63.6368 9.8122C63.0132 9.8122 62.587 9.51517 62.363 8.91985C62.2383 8.6026 62.1765 8.18171 62.1765 7.65843C62.1765 7.10988 62.2383 6.67002 62.363 6.33634C62.5967 5.71321 63.0338 5.39975 63.6695 5.39975Z" fill="#28316B"/>
<path d="M59.6859 3.81966C55.7157 3.81966 55.9494 7.49006 55.9494 7.49006V11.2186H57.7511V7.72136C57.7511 7.14881 57.8225 6.72413 57.9581 6.44734C58.2063 5.9582 58.6894 5.713 59.4099 5.713C59.4631 5.713 59.5358 5.71679 59.623 5.72185C59.7114 5.72564 59.8119 5.73449 59.9257 5.74713V3.83483C59.8458 3.82851 59.7937 3.82598 59.7707 3.82346C59.7489 3.82219 59.7198 3.81966 59.6859 3.81966Z" fill="#28316B"/>
<path d="M50.6448 5.76738C50.8979 5.49563 51.2539 5.36039 51.714 5.36039C52.1353 5.36039 52.4889 5.48679 52.7758 5.74463C53.0592 6.00247 53.219 6.37786 53.2505 6.87332H50.1678C50.2319 6.4082 50.393 6.04039 50.6448 5.76738ZM53.0664 9.26974C52.9901 9.38223 52.9102 9.47955 52.8206 9.55413C52.5651 9.77279 52.2201 9.83978 51.8132 9.83978C51.427 9.83978 51.1255 9.77911 50.8543 9.59963C50.4051 9.31145 50.1508 8.82357 50.123 8.10692H55.1103C55.1163 7.48886 55.0981 7.01615 55.0497 6.68879C54.9674 6.12887 54.7845 5.63593 54.5049 5.21125C54.1937 4.72969 53.7977 4.37705 53.3219 4.15334C52.8436 3.93088 52.3085 3.81966 51.714 3.81966C50.7102 3.81966 49.8941 4.14955 49.2645 4.80932C48.6373 5.47036 48.3213 6.41957 48.3213 7.65696C48.3213 8.97777 48.67 9.93204 49.3662 10.5172C50.0624 11.1037 50.8676 11.3969 51.7781 11.3969C52.8812 11.3969 53.7396 11.0494 54.3523 10.3542C54.6841 9.98892 54.8899 9.62743 54.9783 9.26974H53.0664Z" fill="#28316B"/>
<path d="M47.598 11.2163H45.9525V6.88985C45.9525 6.4955 45.8266 5.55514 44.7417 5.55514C44.0176 5.55514 43.4934 6.09989 43.4934 6.88985V11.2163H41.8467V6.88985C41.8467 6.4955 41.7341 5.55514 40.6492 5.55514C39.9118 5.55514 39.3996 6.09989 39.3996 6.88985V11.2163H37.7529V6.93156C37.7529 5.14436 38.8899 3.79448 40.6492 3.79448C41.5222 3.79448 42.2329 4.17745 42.6954 4.79046C43.1822 4.17745 43.905 3.79448 44.7417 3.79448C46.5386 3.79448 47.598 5.08875 47.598 6.93156V11.2163Z" fill="#28316B"/>
<path d="M78.5432 9.24432C78.2805 9.63869 77.893 9.8346 77.3881 9.8346C76.8808 9.8346 76.503 9.63616 76.2536 9.2418C76.0054 8.84617 75.8819 8.26979 75.8819 7.61C75.8819 6.99697 76.003 6.48505 76.2475 6.07173C76.4933 5.65968 76.8759 5.45238 77.4002 5.45238C77.7441 5.45238 78.0444 5.56614 78.3047 5.79366C78.7261 6.1678 78.9392 6.84403 78.9392 7.71744C78.9392 8.34184 78.806 8.85123 78.5432 9.24432ZM80.7033 1.56059C80.7033 1.56059 78.8895 1.35835 78.8895 2.88018L78.8871 4.89623C78.6861 4.55749 78.4246 4.29458 78.1037 4.10624C77.7816 3.91538 77.4135 3.81932 76.9982 3.81932C76.0962 3.81932 75.3806 4.16944 74.8418 4.86716C74.303 5.56867 74.0342 6.57606 74.0342 7.7958C74.0342 8.85249 74.3078 9.72084 74.8539 10.3958C75.4012 11.0695 76.4715 11.3665 77.4232 11.3665C80.7409 11.3665 80.7021 8.39619 80.7021 8.39619L80.7033 1.56059Z" fill="#28316B"/>
<path d="M42.5724 18.0661C42.5724 17.3558 42.4404 16.8123 42.1741 16.4293C41.9089 16.0476 41.5299 15.8555 41.0347 15.8555C40.5588 15.8555 40.1871 16.0476 39.922 16.4293C39.675 16.7756 39.5527 17.3216 39.5527 18.0661C39.5527 18.76 39.6834 19.2756 39.9498 19.6207C40.2138 20.0049 40.594 20.1958 41.088 20.1958C41.5469 20.1958 41.9089 20.0049 42.1741 19.6207C42.4404 19.2403 42.5724 18.7233 42.5724 18.0661ZM39.5527 23.1546C39.5527 23.42 39.4558 23.6475 39.2633 23.8321C39.0913 23.9989 38.8589 24.0836 38.6228 24.0836H37.751V17.5466C37.751 16.2751 38.1614 15.4801 38.8371 14.9417C39.325 14.5537 40.0745 14.1846 41.559 14.2566C42.3242 14.2933 43.0616 14.6409 43.5483 15.2577C44.1489 16.0223 44.3995 16.8729 44.3995 17.9852C44.3995 19.1316 44.1344 20.0555 43.6052 20.7683C43.0761 21.4597 42.3956 21.8047 41.565 21.8047C41.1231 21.8047 40.7344 21.7226 40.4002 21.5595C40.0455 21.3775 39.7658 21.0944 39.5527 20.7127V23.1546Z" fill="#50B4E9"/>
<path d="M53.3713 18.0671C53.3713 19.3197 53.7188 20.0149 54.4126 20.1527C55.1064 20.2867 55.6174 20.1198 55.9479 19.6471C56.1041 19.4499 56.2167 19.1339 56.2857 18.708C56.3547 18.2808 56.3596 17.8586 56.299 17.4402C56.2385 17.0206 56.0956 16.649 55.8692 16.3216C55.644 15.9942 55.3134 15.8299 54.8812 15.8299C54.2915 15.8299 53.8932 16.0587 53.6849 16.5125C53.4742 16.9662 53.3713 17.4845 53.3713 18.0671ZM56.3378 21.2005V20.7392C56.0254 21.2498 55.6052 21.5658 55.0761 21.6935C54.547 21.8199 54.0215 21.7757 53.5021 21.5557C52.9814 21.3383 52.5358 20.9351 52.1617 20.3448C51.7888 19.7508 51.6035 18.9747 51.6035 18.0115C51.6035 16.8853 51.8505 15.9715 52.3433 15.2725C52.8385 14.5722 53.6328 14.2537 54.725 14.2221C55.8026 14.1931 56.4274 14.4471 57.0401 14.9312C57.7108 15.4621 58.1068 16.2761 58.1068 17.5477V21.3939C58.1092 22.6175 57.2919 24.8863 54.725 24.6929C53.1352 24.5716 52.2513 23.8903 51.7597 22.3482H53.6583C53.7975 22.601 54.0094 22.7969 54.2964 22.9335C54.5821 23.0712 54.8691 23.1054 55.1536 23.0434C55.4394 22.979 55.6997 22.8007 55.9358 22.5113C56.1695 22.2193 56.3027 21.7832 56.3378 21.2005Z" fill="#50B4E9"/>
<path d="M49.1515 18.8248C49.1407 19.453 48.9687 19.8841 48.6382 20.1204C48.3088 20.3581 47.9468 20.4769 47.5557 20.4769C47.3075 20.4769 47.0968 20.4036 46.9237 20.262C46.7517 20.1192 46.6645 19.8878 46.6645 19.5668C46.6645 19.2091 46.8062 18.9436 47.0895 18.7717C47.2578 18.6719 47.5315 18.5859 47.9141 18.5177L48.3234 18.4368C48.5268 18.3963 48.6878 18.3546 48.804 18.3078C48.9227 18.2636 49.0365 18.2042 49.1515 18.1271V18.8248ZM50.0621 14.7408C49.4773 14.4312 48.8053 14.2744 48.0509 14.2744C46.891 14.2744 46.0725 14.5892 45.5954 15.2212C45.2975 15.6244 45.1292 16.1401 45.0905 16.767H46.8232C46.8655 16.489 46.9515 16.2703 47.0786 16.1098C47.2578 15.8911 47.5618 15.7798 47.9904 15.7798C48.3754 15.7798 48.666 15.8355 48.8634 15.9492C49.0595 16.0592 49.16 16.2627 49.16 16.5559C49.16 16.7974 49.0305 16.9743 48.7738 17.0894C48.6285 17.1551 48.3899 17.2094 48.0546 17.2537L47.4407 17.3308C46.7432 17.4243 46.2117 17.5785 45.8545 17.7934C45.197 18.1878 44.8701 18.8248 44.8701 19.7058C44.8701 20.3846 45.0735 20.9092 45.4816 21.2795C45.8884 21.6511 46.4054 21.8066 47.0314 21.8369C50.9484 22.0202 50.9048 19.6805 50.9411 19.1952V16.5029C50.9411 15.6395 50.6481 15.0531 50.0621 14.7408Z" fill="#50B4E9"/>
<path d="M63.4907 19.6667C63.211 20.056 62.8102 20.2507 62.2859 20.2507C61.7629 20.2507 61.3597 20.056 61.0775 19.6667C60.793 19.2787 60.6525 18.7276 60.6525 18.0109C60.6525 17.2968 60.793 16.7444 61.0775 16.3602C61.3597 15.9721 61.7629 15.78 62.2859 15.78C62.8102 15.78 63.211 15.9721 63.4907 16.3602C63.7704 16.7444 63.912 17.2968 63.912 18.0109C63.912 18.7276 63.7704 19.2787 63.4907 19.6667ZM64.9231 15.3338C64.3443 14.5779 63.4677 14.2 62.2908 14.2C61.1163 14.2 60.2384 14.5779 59.6609 15.3338C59.0821 16.0897 58.7939 16.982 58.7939 18.0109C58.7939 19.06 59.0821 19.9562 59.6609 20.7007C60.2384 21.4439 61.1163 21.8167 62.2908 21.8167C63.4677 21.8167 64.3443 21.4439 64.9231 20.7007C65.4994 19.9562 65.7876 19.06 65.7876 18.0109C65.7876 16.982 65.4994 16.0897 64.9231 15.3338Z" fill="#50B4E9"/>
</svg>
