<svg width="66" height="21" viewBox="0 0 66 21" fill="none" xmlns="http://www.w3.org/2000/svg">
<path d="M34.0723 7.22407C34.0348 10.0329 36.71 11.6005 38.7253 12.5324C40.7959 13.4887 41.4914 14.1018 41.4835 14.9568C41.4677 16.2656 39.8317 16.8432 38.3005 16.8657C35.6293 16.905 34.0763 16.1813 32.8414 15.6337L31.8792 19.907C33.118 20.4489 35.4119 20.9214 37.7908 20.942C43.3743 20.942 47.0275 18.3263 47.0473 14.2706C47.069 9.12351 39.5452 8.8385 39.5966 6.5378C39.6144 5.84027 40.3158 5.09587 41.853 4.90649C42.6136 4.81086 44.7139 4.73773 47.0947 5.77839L48.0292 1.64388C46.7489 1.20136 45.1031 0.777596 43.0542 0.777596C37.7987 0.777596 34.102 3.42894 34.0723 7.22407ZM57.0091 1.13386C55.9896 1.13386 55.1302 1.69825 54.7469 2.56453L46.7707 20.6383H52.3503L53.4606 17.7263H60.279L60.9232 20.6383H65.8409L61.5495 1.13386H57.0091ZM57.7896 6.40279L59.3998 13.7268H54.9899L57.7896 6.40279ZM27.3073 1.13386L22.9092 20.6383H28.226L32.6221 1.13386H27.3073ZM19.4417 1.13386L13.9076 14.4093L11.669 3.12143C11.4062 1.86138 10.369 1.13386 9.21708 1.13386H0.169998L0.0435486 1.70013C1.90078 2.08264 4.01091 2.69954 5.28924 3.35956C6.07164 3.7627 6.29491 4.11521 6.55176 5.07337L10.7918 20.6383H16.4109L25.0253 1.13386H19.4417Z" fill="url(#paint0_linear_204_4542)"/>
<defs>
<linearGradient id="paint0_linear_204_4542" x1="30.2933" y1="21.3466" x2="30.8473" y2="0.635736" gradientUnits="userSpaceOnUse">
<stop stop-color="#222357"/>
<stop offset="1" stop-color="#254AA5"/>
</linearGradient>
</defs>
</svg>
