<svg width="91" height="25" viewBox="0 0 91 25" fill="none" xmlns="http://www.w3.org/2000/svg">
<path d="M18.2446 24.7056C24.6375 24.7373 30.4731 19.4049 30.4731 12.9178C30.4731 5.82447 24.6375 0.92146 18.2446 0.923493H12.743C6.27352 0.92146 0.948433 5.82563 0.948433 12.9178C0.948433 19.4064 6.27352 24.7373 12.743 24.7056H18.2446Z" fill="#006095"/>
<path d="M15.1969 19.2344V6.35346C17.7433 7.34667 19.551 9.85337 19.5553 12.7935C19.551 15.7342 17.7433 18.2394 15.1969 19.2344ZM5.98422 12.7935C5.98993 9.85511 7.79476 7.34986 10.3398 6.35375V19.2318C7.79476 18.2365 5.98993 15.7327 5.98422 12.7935ZM12.7688 1.90652C6.85721 1.90856 2.06689 6.78078 2.06546 12.7935C2.06689 18.8056 6.85721 23.677 12.7688 23.6787C18.6823 23.677 23.4735 18.8056 23.4744 12.7935C23.4735 6.78078 18.6823 1.90856 12.7688 1.90652Z" fill="white"/>
<path d="M34.2222 6.04022C34.2222 4.91541 33.6449 4.9892 33.0918 4.97729V4.65222C33.5712 4.67604 34.0628 4.67604 34.5433 4.67604C35.0595 4.67604 35.7608 4.65222 36.6715 4.65222C39.8564 4.65222 41.5904 6.81527 41.5904 9.03031C41.5904 10.2687 40.8776 13.3828 36.5232 13.3828C35.8965 13.3828 35.3174 13.3581 34.7398 13.3581C34.1868 13.3581 33.6449 13.37 33.0918 13.3828V13.0575C33.8291 12.9822 34.1868 12.9572 34.2222 12.1067V6.04022ZM35.4277 11.9068C35.4277 12.8698 36.105 12.9822 36.7072 12.9822C39.3645 12.9822 40.2372 10.9435 40.2372 9.07969C40.2372 6.74148 38.7611 5.05311 36.3876 5.05311C35.8825 5.05311 35.6502 5.08971 35.4277 5.10308V11.9068ZM42.0217 13.0578H42.2551C42.5991 13.0578 42.8453 13.0578 42.8453 12.6441V9.25515C42.8453 8.70524 42.661 8.62884 42.2054 8.38017V8.17973C42.7836 8.00369 43.4729 7.76723 43.5215 7.72975C43.608 7.67979 43.6814 7.66642 43.7431 7.66642C43.804 7.66642 43.8294 7.74166 43.8294 7.84246V12.6441C43.8294 13.0578 44.0999 13.0578 44.4447 13.0578H44.6533V13.3831C44.2348 13.3831 43.804 13.3581 43.3623 13.3581C42.9193 13.3581 42.4762 13.3703 42.0217 13.3831V13.0578ZM43.3378 5.74072C43.0173 5.74072 42.735 5.44063 42.735 5.11528C42.735 4.80212 43.0307 4.51366 43.3378 4.51366C43.6566 4.51366 43.9402 4.77743 43.9402 5.11528C43.9402 5.45342 43.6692 5.74072 43.3378 5.74072ZM45.8219 9.32981C45.8219 8.86734 45.6859 8.74272 45.1092 8.50509V8.26746C45.6374 8.09258 46.1413 7.92932 46.7323 7.66642C46.7689 7.66642 46.8049 7.69199 46.8049 7.79134V8.60473C47.5071 8.09258 48.1101 7.66642 48.9351 7.66642C49.9798 7.66642 50.3486 8.44205 50.3486 9.41783V12.6441C50.3486 13.0578 50.6188 13.0578 50.9636 13.0578H51.185V13.3831C50.7536 13.3831 50.3231 13.3581 49.8815 13.3581C49.4382 13.3581 48.9951 13.3703 48.5526 13.3831V13.0578H48.7737C49.1188 13.0578 49.3636 13.0578 49.3636 12.6441V9.40563C49.3636 8.69188 48.9351 8.34241 48.2329 8.34241C47.8396 8.34241 47.2123 8.66719 46.8049 8.94258V12.6441C46.8049 13.0578 47.0771 13.0578 47.4216 13.0578H47.6428V13.3831C47.2123 13.3831 46.7812 13.3581 46.3384 13.3581C45.8962 13.3581 45.4526 13.3703 45.0104 13.3831V13.0578H45.2323C45.5765 13.0578 45.8219 13.0578 45.8219 12.6441V9.32981ZM52.1203 9.93114C52.0948 10.0439 52.0948 10.2309 52.1203 10.6565C52.1925 11.8444 52.945 12.8196 53.9274 12.8196C54.605 12.8196 55.1346 12.4442 55.5885 11.9821L55.7605 12.1572C55.1946 12.9204 54.4933 13.5705 53.4857 13.5705C51.5292 13.5705 51.1362 11.6439 51.1362 10.8439C51.1362 8.39209 52.759 7.66642 53.6194 7.66642C54.6167 7.66642 55.6877 8.30406 55.6985 9.62989C55.6985 9.706 55.6985 9.78008 55.6877 9.8559L55.576 9.93114H52.1203ZM54.2976 9.53054C54.605 9.53054 54.6407 9.36758 54.6407 9.21768C54.6407 8.58004 54.2599 8.06731 53.5706 8.06731C52.8207 8.06731 52.3042 8.62884 52.1568 9.53054H54.2976ZM55.9822 13.0578H56.3144C56.6575 13.0578 56.9037 13.0578 56.9037 12.6441V9.13024C56.9037 8.74272 56.4492 8.66719 56.2644 8.56726V8.38017C57.1623 7.99207 57.6545 7.66642 57.7667 7.66642C57.839 7.66642 57.8756 7.7039 57.8756 7.82968V8.95507H57.9018C58.2081 8.46732 58.7257 7.66642 59.4756 7.66642C59.7832 7.66642 60.1763 7.87878 60.1763 8.32934C60.1763 8.66719 59.9432 8.96814 59.599 8.96814C59.2162 8.96814 59.2162 8.66719 58.7863 8.66719C58.5769 8.66719 57.8884 8.95507 57.8884 9.706V12.6441C57.8884 13.0578 58.1338 13.0578 58.4786 13.0578H59.1671V13.3831C58.4903 13.3703 57.9755 13.3581 57.4459 13.3581C56.9417 13.3581 56.425 13.3703 55.9822 13.3831V13.0578ZM60.7174 11.6439C60.8776 12.4692 61.3692 13.1702 62.2677 13.1702C62.9921 13.1702 63.2626 12.7199 63.2626 12.2824C63.2626 10.8061 60.5822 11.2811 60.5822 9.26793C60.5822 8.56696 61.1364 7.66642 62.4888 7.66642C62.8818 7.66642 63.4106 7.77943 63.89 8.02984L63.9768 9.30454H63.6937C63.5709 8.51729 63.1407 8.06702 62.3531 8.06702C61.8606 8.06702 61.3938 8.35461 61.3938 8.89232C61.3938 10.3567 64.2473 9.90558 64.2473 11.869C64.2473 12.6944 63.5954 13.5708 62.1314 13.5708C61.6395 13.5708 61.0613 13.3953 60.6314 13.1455L60.4957 11.7069L60.7174 11.6439ZM75.3537 6.91578H75.0469C74.8126 5.45342 73.7917 4.86487 72.4148 4.86487C70.9996 4.86487 68.9451 5.82758 68.9451 8.82928C68.9451 11.3572 70.7176 13.1702 72.611 13.1702C73.8282 13.1702 74.8378 12.3199 75.084 11.006L75.3663 11.0809L75.084 12.907C74.5673 13.2332 73.1772 13.5705 72.3648 13.5705C69.4876 13.5705 67.6676 11.6817 67.6676 8.86734C67.6676 6.30312 69.9178 4.46398 72.3285 4.46398C73.3243 4.46398 74.2842 4.79021 75.2309 5.12806L75.3537 6.91578ZM75.7973 13.0578H76.0299C76.3752 13.0578 76.6215 13.0578 76.6215 12.6441V5.67855C76.6215 4.86487 76.4369 4.83989 75.9696 4.70248V4.50233C76.4612 4.33994 76.978 4.1148 77.2362 3.96404C77.3705 3.88967 77.4696 3.82605 77.5059 3.82605C77.5807 3.82605 77.6056 3.90187 77.6056 4.00209V12.6441C77.6056 13.0578 77.8758 13.0578 78.2206 13.0578H78.4283V13.3831C78.0115 13.3831 77.5807 13.3581 77.138 13.3581C76.6955 13.3581 76.2527 13.3703 75.7973 13.3831V13.0578ZM83.6945 12.6944C83.6945 12.9204 83.8294 12.9323 84.0382 12.9323C84.1862 12.9323 84.3698 12.9204 84.5304 12.9204V13.1835C84.0008 13.2332 82.9927 13.4958 82.7587 13.5708L82.6967 13.533V12.5203C81.96 13.133 81.3932 13.5708 80.5191 13.5708C79.8555 13.5708 79.1667 13.133 79.1667 12.0829V8.88012C79.1667 8.55476 79.1179 8.2419 78.4297 8.17973V7.94181C78.8731 7.92961 79.8555 7.85467 80.016 7.85467C80.1523 7.85467 80.1523 7.94181 80.1523 8.21721V11.4435C80.1523 11.8194 80.1523 12.8948 81.2215 12.8948C81.6398 12.8948 82.1931 12.5697 82.709 12.1328V8.76683C82.709 8.51729 82.1191 8.38017 81.6772 8.25497V8.02984C82.783 7.95431 83.4729 7.85467 83.5951 7.85467C83.6945 7.85467 83.6945 7.94181 83.6945 8.08009V12.6944ZM86.1418 8.56726C86.6332 8.14197 87.2976 7.66642 87.9747 7.66642C89.4016 7.66642 90.2614 8.93067 90.2614 10.2934C90.2614 11.9318 89.0813 13.5708 87.3213 13.5708C86.4121 13.5708 85.9324 13.2701 85.6122 13.133L85.2437 13.42L84.9863 13.2829C85.0952 12.545 85.158 11.8194 85.158 11.0565V5.67855C85.158 4.86487 84.9726 4.83989 84.5055 4.70248V4.50233C84.9986 4.33994 85.5139 4.1148 85.7727 3.96404C85.9079 3.88967 86.0056 3.82605 86.0438 3.82605C86.1175 3.82605 86.1418 3.90187 86.1418 4.00209V8.56726ZM86.1418 11.969C86.1418 12.4442 86.5843 13.2457 87.4085 13.2457C88.7248 13.2457 89.2779 11.9318 89.2779 10.818C89.2779 9.46751 88.2703 8.34241 87.3105 8.34241C86.8543 8.34241 86.4738 8.64278 86.1418 8.93067V11.969ZM33.0778 20.6551H33.1721C33.4126 20.6551 33.6669 20.622 33.6669 20.2676V16.7023C33.6669 16.3474 33.4126 16.3137 33.1721 16.3137H33.0778V16.1094C33.3389 16.1094 33.7406 16.1362 34.0694 16.1362C34.4036 16.1362 34.8047 16.1094 35.1192 16.1094V16.3137H35.0252C34.7853 16.3137 34.5304 16.3474 34.5304 16.7023V20.2676C34.5304 20.622 34.7853 20.6551 35.0252 20.6551H35.1192V20.8602C34.7981 20.8602 34.3956 20.8335 34.0622 20.8335C33.734 20.8335 33.3389 20.8602 33.0778 20.8602V20.6551ZM39.7173 19.5187L39.7307 19.5053V16.9536C39.7307 16.3953 39.3488 16.3137 39.1482 16.3137H39.0008V16.1094C39.3156 16.1094 39.6236 16.1365 39.9378 16.1365C40.212 16.1365 40.4874 16.1094 40.7611 16.1094V16.3137H40.6614C40.3794 16.3137 40.0649 16.3683 40.0649 17.1779V20.2752C40.0649 20.5131 40.0718 20.751 40.1046 20.9619H39.8504L36.4041 17.055V19.8595C36.4041 20.4515 36.517 20.6551 37.0329 20.6551H37.1463V20.8602C36.8589 20.8602 36.5715 20.8335 36.2833 20.8335C35.983 20.8335 35.6748 20.8602 35.3734 20.8602V20.6551H35.4671C35.9288 20.6551 36.069 20.3359 36.069 19.7921V16.9254C36.069 16.5449 35.7605 16.3137 35.4606 16.3137H35.3734V16.1094C35.6274 16.1094 35.8885 16.1365 36.1422 16.1365C36.3433 16.1365 36.5378 16.1094 36.7383 16.1094L39.7173 19.5187ZM41.7635 16.4496C41.2607 16.4496 41.2419 16.5722 41.1413 17.0684H40.9408C40.9668 16.8781 41.0008 16.6878 41.021 16.49C41.0482 16.2991 41.061 16.1094 41.061 15.9122H41.2216C41.2756 16.1167 41.4427 16.1094 41.6244 16.1094H45.0766C45.2577 16.1094 45.4246 16.1028 45.4386 15.8982L45.5982 15.9256C45.5723 16.1094 45.5451 16.2927 45.5248 16.4769C45.5125 16.6608 45.5125 16.8447 45.5125 17.028L45.3114 17.1035C45.2977 16.8519 45.264 16.4496 44.8161 16.4496H43.7186V20.0704C43.7186 20.5953 43.9531 20.6551 44.2736 20.6551H44.4007V20.8602C44.1399 20.8602 43.6712 20.8335 43.3104 20.8335C42.9087 20.8335 42.4399 20.8602 42.1786 20.8602V20.6551H42.3057C42.675 20.6551 42.8613 20.6217 42.8613 20.0846V16.4496H41.7635ZM45.8122 20.6551H45.9062C46.147 20.6551 46.4015 20.622 46.4015 20.2676V16.7023C46.4015 16.3474 46.147 16.3137 45.9062 16.3137H45.8122V16.1094C46.2196 16.1094 46.9172 16.1362 47.4782 16.1362C48.0413 16.1362 48.7363 16.1094 49.1911 16.1094C49.1796 16.4017 49.1862 16.8517 49.2056 17.1509L49.0039 17.2055C48.9717 16.7633 48.8917 16.4095 48.1884 16.4095H47.2591V18.192H48.0544C48.4558 18.192 48.5435 17.9614 48.5832 17.593H48.7834C48.7703 17.8591 48.7634 18.1243 48.7634 18.3893C48.7634 18.6487 48.7703 18.9069 48.7834 19.1655L48.5832 19.2058C48.5435 18.798 48.5232 18.5325 48.0607 18.5325H47.2591V20.118C47.2591 20.5604 47.6456 20.5604 48.0741 20.5604C48.8777 20.5604 49.2319 20.5055 49.433 19.7308L49.6201 19.7775C49.5327 20.1392 49.4527 20.4988 49.3933 20.8602C48.9642 20.8602 48.1947 20.8335 47.593 20.8335C46.99 20.8335 46.1936 20.8602 45.8122 20.8602V20.6551ZM50.5234 16.8304C50.5234 16.334 50.2557 16.3137 50.0478 16.3137H49.9272V16.1091C50.1415 16.1091 50.5563 16.1365 50.9648 16.1365C51.3658 16.1365 51.6875 16.1091 52.042 16.1091C52.8847 16.1091 53.6351 16.3404 53.6351 17.3077C53.6351 17.9192 53.2338 18.2937 52.705 18.5057L53.8491 20.2467C54.0368 20.5346 54.1699 20.6153 54.4984 20.6548V20.8602C54.2773 20.8602 54.0631 20.8335 53.8425 20.8335C53.6351 20.8335 53.4203 20.8602 53.2138 20.8602C52.6985 20.1729 52.2557 19.438 51.8212 18.6542H51.3804V20.1113C51.3804 20.636 51.6206 20.6548 51.928 20.6548H52.0489V20.8602C51.6666 20.8602 51.2798 20.8335 50.8979 20.8335C50.5762 20.8335 50.2617 20.8602 49.9272 20.8602V20.6548H50.0478C50.2963 20.6548 50.5234 20.5407 50.5234 20.2885V16.8304ZM51.3804 18.409H51.7072C52.3771 18.409 52.7376 18.1511 52.7376 17.3475C52.7376 16.7427 52.3565 16.3546 51.7603 16.3546C51.5592 16.3546 51.4735 16.3755 51.3804 16.3816V18.409ZM59.0422 19.5187L59.0542 19.5053V16.9536C59.0542 16.3953 58.6734 16.3137 58.4729 16.3137H58.3261V16.1094C58.6406 16.1094 58.9474 16.1365 59.2627 16.1365C59.5376 16.1365 59.8107 16.1094 60.0872 16.1094V16.3137H59.9861C59.7052 16.3137 59.3904 16.3683 59.3904 17.1779V20.2752C59.3904 20.5131 59.3967 20.751 59.4299 20.9619H59.1762L55.7296 17.055V19.8595C55.7296 20.4515 55.8431 20.6551 56.3584 20.6551H56.4721V20.8602C56.1847 20.8602 55.8968 20.8335 55.6094 20.8335C55.3071 20.8335 54.9995 20.8602 54.6987 20.8602V20.6551H54.7915C55.254 20.6551 55.3946 20.3359 55.3946 19.7921V16.9254C55.3946 16.5449 55.0866 16.3137 54.7858 16.3137H54.6987V16.1094C54.9521 16.1094 55.2143 16.1365 55.4685 16.1365C55.6677 16.1365 55.8625 16.1094 56.0639 16.1094L59.0422 19.5187ZM61.1633 19.8871C61.0953 20.118 61.0147 20.2961 61.0147 20.4175C61.0147 20.622 61.2961 20.6551 61.5164 20.6551H61.5912V20.8602C61.323 20.8454 61.0496 20.8338 60.7799 20.8338C60.5394 20.8338 60.3 20.8454 60.058 20.8602V20.6551H60.0986C60.3594 20.6551 60.5808 20.4988 60.6796 20.2124L61.7517 17.0899C61.8377 16.838 61.9594 16.4975 61.9997 16.2448C62.2128 16.171 62.4811 16.0351 62.6082 15.9531C62.6287 15.9459 62.6404 15.9389 62.6616 15.9389C62.6816 15.9389 62.6939 15.9389 62.709 15.9598C62.729 16.0142 62.7479 16.0754 62.7696 16.1298L64.0008 19.6895C64.0808 19.9274 64.1605 20.179 64.247 20.3841C64.3282 20.5747 64.4687 20.6551 64.6898 20.6551H64.7298V20.8602C64.4287 20.8454 64.1271 20.8338 63.8065 20.8338C63.4789 20.8338 63.1432 20.8454 62.8019 20.8602V20.6551H62.8761C63.0292 20.6551 63.2912 20.6287 63.2912 20.4582C63.2912 20.3702 63.2309 20.1866 63.1561 19.9681L62.8958 19.1788H61.3767L61.1633 19.8871ZM62.14 16.8717H62.1263L61.5038 18.798H62.7544L62.14 16.8717ZM65.0243 16.4496C64.5221 16.4496 64.5021 16.5722 64.4016 17.0684H64.2005C64.2267 16.8781 64.2607 16.6878 64.2816 16.49C64.3082 16.2991 64.3207 16.1094 64.3207 15.9122H64.4821C64.5353 16.1167 64.7032 16.1094 64.8832 16.1094H68.3372C68.5172 16.1094 68.6843 16.1028 68.698 15.8982L68.8582 15.9256C68.8325 16.1094 68.8057 16.2927 68.7857 16.4769C68.7708 16.6608 68.7708 16.8447 68.7708 17.028L68.5706 17.1035C68.5583 16.8519 68.5246 16.4496 68.0761 16.4496H66.9783V20.0704C66.9783 20.5953 67.2131 20.6551 67.5336 20.6551H67.661V20.8602C67.3999 20.8602 66.9317 20.8335 66.5701 20.8335C66.1693 20.8335 65.6996 20.8602 65.4388 20.8602V20.6551H65.5659C65.9347 20.6551 66.1219 20.6217 66.1219 20.0846V16.4496H65.0243ZM69.1051 20.6551H69.1987C69.4404 20.6551 69.6935 20.622 69.6935 20.2676V16.7023C69.6935 16.3474 69.4404 16.3137 69.1987 16.3137H69.1051V16.1094C69.3667 16.1094 69.7675 16.1362 70.0949 16.1362C70.4305 16.1362 70.8319 16.1094 71.147 16.1094V16.3137H71.0533C70.8119 16.3137 70.5571 16.3474 70.5571 16.7023V20.2676C70.5571 20.622 70.8119 20.6551 71.0533 20.6551H71.147V20.8602C70.8253 20.8602 70.4237 20.8335 70.0895 20.8335C69.7609 20.8335 69.3667 20.8602 69.1051 20.8602V20.6551ZM73.816 16.0078C75.2429 16.0078 76.3798 16.9066 76.3798 18.3561C76.3798 19.9216 75.2754 20.9622 73.8505 20.9622C72.4305 20.9622 71.347 19.9823 71.347 18.5191C71.347 17.1038 72.4242 16.0078 73.816 16.0078ZM73.9171 20.6627C75.2157 20.6627 75.4417 19.4981 75.4417 18.506C75.4417 17.5108 74.9146 16.3067 73.8031 16.3067C72.6316 16.3067 72.2839 17.3687 72.2839 18.2797C72.2839 19.4981 72.8327 20.6627 73.9171 20.6627ZM80.8896 19.5187L80.9033 19.5053V16.9536C80.9033 16.3953 80.5208 16.3137 80.32 16.3137H80.1749V16.1094C80.4882 16.1094 80.7965 16.1365 81.1098 16.1365C81.3855 16.1365 81.6597 16.1094 81.9346 16.1094V16.3137H81.8334C81.5529 16.3137 81.2378 16.3683 81.2378 17.1779V20.2752C81.2378 20.5131 81.2441 20.751 81.2781 20.9619H81.0241L77.5767 17.055V19.8595C77.5767 20.4515 77.6907 20.6551 78.2055 20.6551H78.3198V20.8602C78.0318 20.8602 77.7447 20.8335 77.4568 20.8335C77.1557 20.8335 76.8469 20.8602 76.5455 20.8602V20.6551H76.64C77.1025 20.6551 77.2416 20.3359 77.2416 19.7921V16.9254C77.2416 16.5449 76.9354 16.3137 76.6329 16.3137H76.5455V16.1094C76.8003 16.1094 77.0614 16.1365 77.3153 16.1365C77.5159 16.1365 77.7096 16.1094 77.911 16.1094L80.8896 19.5187ZM83.0098 19.8871C82.9441 20.118 82.863 20.2961 82.863 20.4175C82.863 20.622 83.1449 20.6551 83.3643 20.6551H83.4392V20.8602C83.1712 20.8454 82.8964 20.8338 82.6287 20.8338C82.387 20.8338 82.1471 20.8454 81.9071 20.8602V20.6551H81.9451C82.2071 20.6551 82.4288 20.4988 82.5276 20.2124L83.6 17.0899C83.6865 16.838 83.8077 16.4975 83.8465 16.2448C84.061 16.171 84.3284 16.0351 84.4567 15.9531C84.4758 15.9459 84.4893 15.9389 84.5095 15.9389C84.5295 15.9389 84.5424 15.9389 84.5558 15.9598C84.5761 16.0142 84.5967 16.0754 84.6169 16.1298L85.8476 19.6895C85.9279 19.9274 86.0078 20.179 86.0958 20.3841C86.1761 20.5747 86.3172 20.6551 86.5375 20.6551H86.5783V20.8602C86.2767 20.8454 85.9753 20.8338 85.6536 20.8338C85.3265 20.8338 84.9912 20.8454 84.6498 20.8602V20.6551H84.7238C84.8766 20.6551 85.1394 20.6287 85.1394 20.4582C85.1394 20.3702 85.0786 20.1866 85.004 19.9681L84.7441 19.1788H83.2246L83.0098 19.8871ZM83.9879 16.8717H83.9745L83.3512 18.798H84.6038L83.9879 16.8717ZM88.2646 20.193C88.2646 20.4657 88.4506 20.5468 88.6648 20.5747C88.9393 20.5953 89.2404 20.5953 89.5492 20.5607C89.8298 20.5264 90.0706 20.3635 90.1908 20.193C90.2977 20.0431 90.3577 19.8528 90.3985 19.7029H90.5925C90.5191 20.0907 90.4251 20.4727 90.3442 20.8602C89.7569 20.8602 89.1659 20.8338 88.5786 20.8338C87.9887 20.8338 87.4005 20.8602 86.8114 20.8602V20.6551H86.9037C87.1457 20.6551 87.4073 20.622 87.4073 20.1996V16.702C87.4073 16.3474 87.1457 16.3137 86.9037 16.3137H86.8114V16.1094C87.1654 16.1094 87.5139 16.1365 87.8681 16.1365C88.2106 16.1365 88.5446 16.1094 88.8862 16.1094V16.3137H88.718C88.4643 16.3137 88.2646 16.3212 88.2646 16.6811V20.193Z" fill="#1A1918"/>
</svg>
