<svg width="65" height="24" viewBox="0 0 65 24" fill="none" xmlns="http://www.w3.org/2000/svg">
<path d="M26.8613 22.029V8.70294C26.8613 6.25104 28.8189 4.26343 31.2336 4.26343L35.1084 4.26924C37.5161 4.27412 39.4654 6.25746 39.4654 8.70233V11.5389C39.4654 13.9908 37.5079 15.9786 35.0932 15.9786H29.6178" stroke="#939598" stroke-miterlimit="10" stroke-linecap="round" stroke-linejoin="round"/>
<path d="M40.5483 4.26166H42.2292C43.2202 4.26166 44.0234 5.07739 44.0234 6.08367V16.0382" stroke="#939598" stroke-miterlimit="10" stroke-linecap="round" stroke-linejoin="round"/>
<path d="M43.6629 2.71874L42.9007 1.94466C42.7115 1.7527 42.7115 1.44128 42.9007 1.24921L43.6625 0.475742C43.8518 0.283368 44.1589 0.283368 44.3483 0.475742L45.1101 1.24921C45.2993 1.44128 45.2993 1.7527 45.1101 1.94466L44.3479 2.71874C44.1587 2.91081 43.852 2.91081 43.6629 2.71874Z" fill="#32BCAD"/>
<path d="M47.248 4.25217H48.9149C49.7724 4.25217 50.5948 4.59802 51.2011 5.21376L55.1 9.17276C55.6051 9.68574 56.4239 9.68574 56.929 9.17276L60.8136 5.22822C61.4199 4.61259 62.2423 4.26673 63.0998 4.26673H64.455" stroke="#939598" stroke-miterlimit="10" stroke-linecap="round" stroke-linejoin="round"/>
<path d="M47.248 15.9505H48.9149C49.7724 15.9505 50.5948 15.6047 51.2011 14.989L55.1 11.03C55.6051 10.5172 56.4239 10.5172 56.929 11.03L60.8136 14.9744C61.4199 15.5901 62.2423 15.936 63.0998 15.936H64.455" stroke="#939598" stroke-miterlimit="10" stroke-linecap="round" stroke-linejoin="round"/>
<path d="M16.9233 18.4801C16.0867 18.4801 15.2999 18.1493 14.7083 17.5488L11.51 14.3013C11.2855 14.0726 10.8941 14.0733 10.6696 14.3013L7.45959 17.5608C6.86796 18.1611 6.08116 18.4919 5.2445 18.4919H4.61426L8.66493 22.6051C9.93003 23.8896 11.9811 23.8896 13.2462 22.6051L17.3087 18.4801H16.9233Z" fill="#32BCAD"/>
<path d="M5.24489 6.99231C6.08154 6.99231 6.86834 7.3232 7.45987 7.92365L10.6699 11.1837C10.901 11.4184 11.2786 11.4195 11.5103 11.1834L14.7086 7.93547C15.3002 7.33501 16.087 7.00423 16.9237 7.00423H17.3089L13.2466 2.87924C11.9815 1.59461 9.93041 1.59461 8.6653 2.87924L4.61475 6.99231H5.24489Z" fill="#32BCAD"/>
<path d="M20.6687 10.4162L18.2139 7.92339C18.1598 7.94539 18.1013 7.95914 18.0395 7.95914H16.9235C16.3464 7.95914 15.7815 8.19673 15.3738 8.61102L12.1755 11.8587C11.8763 12.1626 11.483 12.3148 11.0901 12.3148C10.6968 12.3148 10.3039 12.1626 10.0046 11.859L6.79432 8.59921C6.38653 8.18492 5.82178 7.94732 5.24469 7.94732H3.87227C3.8138 7.94732 3.75904 7.93327 3.70739 7.91351L1.24277 10.4162C-0.0223305 11.7007 -0.0223305 13.7834 1.24277 15.0682L3.70729 17.5707C3.75894 17.551 3.8138 17.5369 3.87227 17.5369H5.24469C5.82178 17.5369 6.38653 17.2993 6.79432 16.885L10.0043 13.6255C10.5845 13.0368 11.5959 13.0365 12.1755 13.6258L15.3738 16.8731C15.7815 17.2875 16.3464 17.5251 16.9235 17.5251H18.0395C18.1014 17.5251 18.1598 17.5387 18.214 17.5607L20.6687 15.0682C21.9338 13.7834 21.9338 11.7007 20.6687 10.4162Z" fill="#32BCAD"/>
<path d="M30.1934 20.8966C30.0122 20.8966 29.8013 20.9408 29.5928 20.9896V21.8016C29.7373 21.8551 29.9022 21.8808 30.0605 21.8808C30.4615 21.8808 30.6517 21.7436 30.6517 21.385C30.6517 21.0477 30.4959 20.8966 30.1934 20.8966ZM29.4575 22.4044V20.7988H29.5675L29.5791 20.8687C29.7647 20.8244 30.0214 20.7663 30.2047 20.7663C30.3538 20.7663 30.4959 20.7893 30.615 20.8872C30.7526 21.0013 30.7961 21.185 30.7961 21.385C30.7961 21.5946 30.7273 21.7924 30.5395 21.9017C30.4087 21.9761 30.2323 22.0063 30.0741 22.0063C29.9113 22.0063 29.7556 21.9806 29.5928 21.9319V22.4044H29.4575Z" fill="#939598"/>
<path d="M31.8034 20.8922C31.4022 20.8922 31.2235 21.0202 31.2235 21.3785C31.2235 21.7252 31.4 21.8812 31.8034 21.8812C32.2022 21.8812 32.381 21.7555 32.381 21.3971C32.381 21.0505 32.2046 20.8922 31.8034 20.8922ZM32.319 21.8812C32.1861 21.9788 32.0074 22.0068 31.8034 22.0068C31.5949 22.0068 31.4161 21.9764 31.2853 21.8812C31.1387 21.7766 31.0791 21.6042 31.0791 21.3879C31.0791 21.1738 31.1387 20.9995 31.2853 20.8922C31.4161 20.7969 31.5949 20.7667 31.8034 20.7667C32.0097 20.7667 32.1861 20.7969 32.319 20.8922C32.4682 20.9995 32.5253 21.1738 32.5253 21.3855C32.5253 21.6019 32.4658 21.7766 32.319 21.8812Z" fill="#939598"/>
<path d="M34.2175 21.974L33.7705 20.9991H33.7613L33.3212 21.974H33.1998L32.7231 20.7987H32.872L33.2685 21.7853H33.2778L33.7086 20.7987H33.8324L34.2747 21.7853H34.284L34.6714 20.7987H34.8157L34.3389 21.974H34.2175Z" fill="#939598"/>
<path d="M35.6801 20.8894C35.3088 20.8894 35.1828 21.0569 35.1598 21.2992H36.2004C36.189 21.0316 36.0537 20.8894 35.6801 20.8894ZM35.6756 22.0068C35.4532 22.0068 35.3088 21.9742 35.1942 21.8762C35.0589 21.7575 35.0132 21.5855 35.0132 21.3877C35.0132 21.199 35.0751 20.999 35.2287 20.8848C35.357 20.794 35.5152 20.7661 35.6801 20.7661C35.8292 20.7661 36.0011 20.7823 36.1431 20.8802C36.3104 20.9941 36.3426 21.1945 36.3426 21.4224H35.1553C35.1598 21.6645 35.2378 21.8788 35.687 21.8788C35.9002 21.8788 36.0996 21.8437 36.2853 21.8112V21.9346C36.0926 21.9696 35.8795 22.0068 35.6756 22.0068Z" fill="#939598"/>
<path d="M36.731 21.974V20.7984H36.841L36.8525 20.8684C37.0976 20.8054 37.2124 20.7659 37.4277 20.7659H37.4438V20.8963H37.4118C37.2306 20.8963 37.1207 20.9216 36.8663 20.9893V21.974H36.731Z" fill="#939598"/>
<path d="M38.229 20.8894C37.8577 20.8894 37.7316 21.0569 37.7086 21.2992H38.7492C38.7379 21.0316 38.6026 20.8894 38.229 20.8894ZM38.2244 22.0068C38.002 22.0068 37.8577 21.9742 37.743 21.8762C37.6077 21.7575 37.562 21.5855 37.562 21.3877C37.562 21.199 37.6239 20.999 37.7775 20.8848C37.9058 20.794 38.064 20.7661 38.229 20.7661C38.378 20.7661 38.5499 20.7823 38.6919 20.8802C38.8592 20.9941 38.8914 21.1945 38.8914 21.4224H37.7041C37.7086 21.6645 37.7867 21.8788 38.2358 21.8788C38.449 21.8788 38.6484 21.8437 38.8341 21.8112V21.9346C38.6415 21.9696 38.4283 22.0068 38.2244 22.0068Z" fill="#939598"/>
<path d="M40.3728 20.9714C40.2285 20.9177 40.0634 20.892 39.9053 20.892C39.5041 20.892 39.3139 21.0295 39.3139 21.3879C39.3139 21.7275 39.4697 21.8763 39.7722 21.8763C39.9533 21.8763 40.1643 21.8321 40.3728 21.7856V20.9714ZM40.3981 21.9743L40.3865 21.9043C40.201 21.9485 39.9442 22.0068 39.7609 22.0068C39.6119 22.0068 39.4697 21.9859 39.3506 21.8857C39.2131 21.7715 39.1694 21.5879 39.1694 21.3879C39.1694 21.1785 39.2382 20.9804 39.4262 20.8734C39.5569 20.7967 39.7333 20.7665 39.8938 20.7665C40.0542 20.7665 40.21 20.7945 40.3728 20.8409V20.3034H40.5081V21.9743H40.3981Z" fill="#939598"/>
<path d="M42.4907 20.8969C42.3096 20.8969 42.0987 20.9411 41.8902 20.9898V21.7996C42.0369 21.8555 42.1996 21.8812 42.3578 21.8812C42.7588 21.8812 42.9491 21.7439 42.9491 21.3854C42.9491 21.048 42.7932 20.8969 42.4907 20.8969ZM42.8367 21.9021C42.7061 21.9765 42.5296 22.0068 42.3715 22.0068C42.1996 22.0068 42.0278 21.9765 41.8535 21.9183L41.8467 21.9743H41.7549V20.3034H41.8902V20.8641C42.0758 20.8224 42.3256 20.7665 42.5021 20.7665C42.6512 20.7665 42.7932 20.7895 42.9124 20.8874C43.05 21.0016 43.0935 21.1853 43.0935 21.3854C43.0935 21.5949 43.0246 21.7928 42.8367 21.9021Z" fill="#939598"/>
<path d="M43.273 22.4248V22.297C43.3395 22.3039 43.4015 22.3087 43.445 22.3087C43.6123 22.3087 43.7131 22.2596 43.807 22.0665L43.8506 21.9735L43.2456 20.7983H43.4015L43.9195 21.8128H43.9286L44.4213 20.7983H44.5749L43.924 22.1178C43.8048 22.3575 43.6764 22.4365 43.4403 22.4365C43.3876 22.4365 43.3304 22.4319 43.273 22.4248Z" fill="#939598"/>
<path d="M46.4386 21.3037H45.9894V21.7157H46.4408C46.7502 21.7157 46.8671 21.6806 46.8671 21.5086C46.8671 21.3245 46.7068 21.3037 46.4386 21.3037ZM46.3561 20.6356H45.9894V21.0546H46.3584C46.6633 21.0546 46.7846 21.0174 46.7846 20.8428C46.7846 20.6567 46.6311 20.6356 46.3561 20.6356ZM47.0529 21.8624C46.8878 21.9694 46.6885 21.974 46.3239 21.974H45.6387V20.3797H46.3079C46.622 20.3797 46.8144 20.3843 46.9749 20.4822C47.0895 20.552 47.1354 20.6591 47.1354 20.7986C47.1354 20.9662 47.0667 21.0779 46.8878 21.1524V21.1615C47.0895 21.2083 47.2202 21.3131 47.2202 21.5388C47.2202 21.6923 47.1652 21.7925 47.0529 21.8624Z" fill="#939598"/>
<path d="M48.5914 21.4808C48.4561 21.4691 48.3187 21.4621 48.1743 21.4621C47.9382 21.4621 47.8557 21.511 47.8557 21.6203C47.8557 21.7228 47.9245 21.7787 48.1054 21.7787C48.2567 21.7787 48.4379 21.7439 48.5914 21.7087V21.4808ZM48.6601 21.9743L48.651 21.9043C48.4539 21.9534 48.2247 22.0068 48.0229 22.0068C47.8992 22.0068 47.7662 21.9905 47.6722 21.9205C47.5853 21.8578 47.5439 21.7553 47.5439 21.6365C47.5439 21.5039 47.6013 21.3807 47.7387 21.3178C47.8603 21.2595 48.0229 21.255 48.172 21.255C48.2934 21.255 48.4561 21.2619 48.5914 21.2713V21.2502C48.5914 21.0664 48.4722 21.0059 48.1467 21.0059C48.0207 21.0059 47.8671 21.0126 47.7205 21.0267V20.7893C47.8831 20.7755 48.0665 20.7661 48.2178 20.7661C48.4195 20.7661 48.6281 20.7824 48.7564 20.8754C48.8893 20.9711 48.9146 21.1038 48.9146 21.2782V21.9743H48.6601Z" fill="#939598"/>
<path d="M50.4256 21.974V21.3243C50.4256 21.1103 50.318 21.0336 50.1253 21.0336C49.9833 21.0336 49.8046 21.0707 49.6532 21.1081V21.974H49.3301V20.7984H49.5937L49.605 20.8727C49.8091 20.8195 50.036 20.7659 50.224 20.7659C50.366 20.7659 50.5105 20.7867 50.6205 20.8868C50.712 20.9707 50.7465 21.0869 50.7465 21.2546V21.974H50.4256Z" fill="#939598"/>
<path d="M51.6597 22.0068C51.5108 22.0068 51.3479 21.9859 51.2287 21.8834C51.0867 21.767 51.0454 21.5832 51.0454 21.3851C51.0454 21.199 51.105 20.9964 51.2815 20.8826C51.4258 20.7869 51.6046 20.7661 51.7904 20.7661C51.9233 20.7661 52.054 20.7755 52.1983 20.7893V21.0407C52.0813 21.0292 51.9415 21.0199 51.8293 21.0199C51.5221 21.0199 51.3777 21.1177 51.3777 21.3877C51.3777 21.6414 51.4855 21.7507 51.7375 21.7507C51.8842 21.7507 52.0562 21.7228 52.2236 21.6903V21.9323C52.0424 21.9697 51.8454 22.0068 51.6597 22.0068Z" fill="#939598"/>
<path d="M53.1781 21.0126C52.8709 21.0126 52.7356 21.1106 52.7356 21.3783C52.7356 21.646 52.8686 21.7602 53.1781 21.7602C53.4829 21.7602 53.6158 21.6645 53.6158 21.3967C53.6158 21.1292 53.4853 21.0126 53.1781 21.0126ZM53.7327 21.8834C53.5906 21.981 53.4051 22.0068 53.1781 22.0068C52.9465 22.0068 52.761 21.9787 52.6212 21.8834C52.4607 21.7764 52.4033 21.5994 52.4033 21.3877C52.4033 21.1757 52.4607 20.9964 52.6212 20.8894C52.761 20.794 52.9465 20.7661 53.1781 20.7661C53.4073 20.7661 53.5906 20.794 53.7327 20.8894C53.8931 20.9964 53.9482 21.1757 53.9482 21.3851C53.9482 21.5971 53.8909 21.7764 53.7327 21.8834Z" fill="#939598"/>
<path d="M55.8139 22.0068C55.6192 22.0068 55.4083 21.9743 55.25 21.8415C55.0622 21.6831 55.0049 21.4389 55.0049 21.1759C55.0049 20.9409 55.0782 20.6617 55.3233 20.4986C55.5136 20.3732 55.7497 20.3475 55.9881 20.3475C56.1624 20.3475 56.341 20.3591 56.536 20.3754V20.6617C56.3686 20.6476 56.1624 20.6359 56.0019 20.6359C55.5549 20.6359 55.3646 20.8082 55.3646 21.1759C55.3646 21.5507 55.5412 21.7183 55.8712 21.7183C56.0866 21.7183 56.3273 21.674 56.5703 21.6227V21.9067C56.3273 21.9557 56.0728 22.0068 55.8139 22.0068Z" fill="#939598"/>
<path d="M57.5197 20.9756C57.2515 20.9756 57.1483 21.0735 57.1277 21.2527H57.9071C57.8978 21.0618 57.7878 20.9756 57.5197 20.9756ZM57.4716 22.0068C57.2813 22.0068 57.1094 21.9836 56.9811 21.8763C56.8437 21.7602 56.7954 21.5855 56.7954 21.3851C56.7954 21.206 56.8528 21.0059 57.0132 20.8894C57.1553 20.7869 57.3364 20.7661 57.5197 20.7661C57.6847 20.7661 57.8796 20.7847 58.0216 20.8848C58.2073 21.0175 58.2234 21.2225 58.2257 21.4645H57.1255C57.1324 21.6438 57.2264 21.7602 57.5517 21.7602C57.7535 21.7602 57.9781 21.7299 58.1683 21.6996V21.93C57.946 21.9674 57.7031 22.0068 57.4716 22.0068Z" fill="#939598"/>
<path d="M59.6639 21.974V21.3243C59.6639 21.1103 59.5563 21.0336 59.3636 21.0336C59.2216 21.0336 59.0429 21.0707 58.8915 21.1081V21.974H58.5684V20.7984H58.8319L58.8434 20.8727C59.0474 20.8195 59.2742 20.7659 59.4623 20.7659C59.6043 20.7659 59.7487 20.7867 59.8588 20.8868C59.9504 20.9707 59.9848 21.0869 59.9848 21.2546V21.974H59.6639Z" fill="#939598"/>
<path d="M60.9045 22.0068C60.7486 22.0068 60.6064 21.9625 60.5286 21.8391C60.4713 21.7553 60.4437 21.6414 60.4437 21.4831V21.0431H60.21V20.7988H60.4437L60.4782 20.4427H60.7647V20.7988H61.2207V21.0431H60.7647V21.4203C60.7647 21.5111 60.7715 21.5879 60.7967 21.6438C60.8312 21.7228 60.9067 21.7531 61.0076 21.7531C61.0832 21.7531 61.175 21.7414 61.2389 21.7299V21.9648C61.1336 21.9859 61.0121 22.0068 60.9045 22.0068Z" fill="#939598"/>
<path d="M61.5361 21.974V20.7984H61.7997L61.8112 20.8727C62.0245 20.8123 62.1824 20.7659 62.3842 20.7659C62.3933 20.7659 62.4072 20.7659 62.4254 20.768V21.0474C62.3887 21.0452 62.3452 21.0452 62.3132 21.0452C62.1549 21.0452 62.0358 21.0637 61.8593 21.1058V21.974H61.5361Z" fill="#939598"/>
<path d="M63.6002 21.4808C63.4649 21.4691 63.3275 21.4621 63.183 21.4621C62.947 21.4621 62.8643 21.511 62.8643 21.6203C62.8643 21.7228 62.9332 21.7787 63.1142 21.7787C63.2655 21.7787 63.4467 21.7439 63.6002 21.7087V21.4808ZM63.6689 21.9743L63.6598 21.9043C63.4626 21.9534 63.2334 22.0068 63.0317 22.0068C62.908 22.0068 62.775 21.9905 62.681 21.9205C62.5941 21.8578 62.5527 21.7553 62.5527 21.6365C62.5527 21.5039 62.61 21.3807 62.7475 21.3178C62.869 21.2595 63.0317 21.255 63.1808 21.255C63.3021 21.255 63.4649 21.2619 63.6002 21.2713V21.2502C63.6002 21.0664 63.481 21.0059 63.1555 21.0059C63.0294 21.0059 62.8759 21.0126 62.7292 21.0267V20.7893C62.8919 20.7755 63.0753 20.7661 63.2266 20.7661C63.4282 20.7661 63.6369 20.7824 63.7652 20.8754C63.8981 20.9711 63.9233 21.1038 63.9233 21.2782V21.9743H63.6689Z" fill="#939598"/>
<path d="M64.3389 20.3031H64.662V21.974H64.3389V20.3031Z" fill="#939598"/>
</svg>
