<svg width="46" height="37" viewBox="0 0 46 37" fill="none" xmlns="http://www.w3.org/2000/svg">
<path d="M8.4894 36.3509V33.9929C8.50293 33.7946 8.47469 33.5956 8.40656 33.4093C8.33843 33.2229 8.23197 33.0535 8.09427 32.9121C7.95657 32.7708 7.7908 32.661 7.608 32.5898C7.4252 32.5187 7.22956 32.4879 7.03413 32.4995C6.77831 32.4825 6.52269 32.5355 6.29394 32.653C6.06519 32.7705 5.8717 32.9483 5.73367 33.1676C5.60786 32.9548 5.42784 32.7805 5.21259 32.6629C4.99733 32.5453 4.75483 32.4889 4.51063 32.4995C4.29776 32.4886 4.08578 32.5343 3.89569 32.6322C3.7056 32.7301 3.54401 32.8767 3.42692 33.0576V32.5938H2.62188V36.3509H3.43466V34.2837C3.41737 34.1552 3.42825 34.0245 3.46651 33.9008C3.50478 33.7771 3.56949 33.6635 3.65602 33.5681C3.74254 33.4727 3.84875 33.3979 3.96705 33.3491C4.08535 33.3002 4.21281 33.2785 4.34033 33.2855C4.87445 33.2855 5.14537 33.6392 5.14537 34.2759V36.3666H5.95816V34.2837C5.94158 34.1554 5.95295 34.0249 5.99148 33.9015C6.03 33.7781 6.09474 33.6648 6.18112 33.5696C6.2675 33.4744 6.37342 33.3996 6.49138 33.3505C6.60935 33.3014 6.73649 33.2792 6.86383 33.2855C7.41343 33.2855 7.67661 33.6392 7.67661 34.2759V36.3666L8.4894 36.3509ZM20.5147 32.5938H19.191V31.4542H18.3783V32.5938H17.6429V33.3405H18.3937V35.0697C18.3937 35.9422 18.7266 36.4609 19.6787 36.4609C20.0344 36.4621 20.3832 36.3613 20.685 36.1701L20.4528 35.4706C20.2369 35.6013 19.9919 35.6743 19.7406 35.6828C19.3536 35.6828 19.2065 35.4313 19.2065 35.054V33.3405H20.5225L20.5147 32.5938ZM27.3808 32.4995C27.1845 32.4937 26.9903 32.5417 26.8187 32.6385C26.647 32.7353 26.5043 32.8774 26.4055 33.0497V32.5938H25.6082V36.3509H26.4132V34.2444C26.4132 33.6235 26.6764 33.2777 27.1873 33.2777C27.3595 33.2753 27.5304 33.3073 27.6904 33.372L27.9381 32.586C27.7543 32.5192 27.5606 32.4847 27.3653 32.4838L27.3808 32.4995ZM17.0004 32.8925C16.5447 32.6174 16.0208 32.481 15.4909 32.4995C14.5543 32.4995 13.9428 32.9554 13.9428 33.7021C13.9428 34.3152 14.3918 34.6924 15.22 34.8103L15.6071 34.8654C16.0483 34.9282 16.2573 35.0461 16.2573 35.2584C16.2573 35.5492 15.9631 35.7142 15.4135 35.7142C14.9715 35.7272 14.5379 35.5888 14.1828 35.3212L13.7957 35.9579C14.2647 36.2904 14.8263 36.4612 15.3981 36.4452C16.4663 36.4452 17.0856 35.9343 17.0856 35.2191C17.0856 34.5038 16.5979 34.213 15.7928 34.0951L15.4058 34.0401C15.0575 33.9929 14.7788 33.9222 14.7788 33.6707C14.7788 33.4191 15.042 33.2305 15.4832 33.2305C15.891 33.2353 16.2908 33.3463 16.6443 33.5528L17.0004 32.8925ZM38.5624 32.4995C38.3661 32.4937 38.1719 32.5417 38.0002 32.6385C37.8286 32.7353 37.6858 32.8774 37.587 33.0497V32.5938H36.7897V36.3509H37.5948V34.2444C37.5948 33.6235 37.858 33.2777 38.3689 33.2777C38.541 33.2753 38.712 33.3073 38.872 33.372L39.1197 32.586C38.9359 32.5192 38.7422 32.4847 38.5469 32.4838L38.5624 32.4995ZM28.1897 34.4645C28.1801 34.7285 28.225 34.9917 28.3213 35.2371C28.4176 35.4825 28.5633 35.7048 28.7491 35.8898C28.9349 36.0747 29.1567 36.2183 29.4003 36.3112C29.6438 36.4041 29.9038 36.4444 30.1636 36.4295C30.647 36.4544 31.122 36.2946 31.495 35.9815L31.108 35.3212C30.8297 35.5367 30.4904 35.6552 30.1404 35.6592C29.8428 35.6348 29.5652 35.4975 29.3628 35.2746C29.1604 35.0518 29.048 34.7598 29.048 34.4566C29.048 34.1535 29.1604 33.8615 29.3628 33.6386C29.5652 33.4158 29.8428 33.2785 30.1404 33.2541C30.4904 33.258 30.8297 33.3766 31.108 33.5921L31.495 32.9318C31.122 32.6187 30.647 32.4588 30.1636 32.4838C29.9038 32.4689 29.6438 32.5091 29.4003 32.6021C29.1567 32.695 28.9349 32.8385 28.7491 33.0235C28.5633 33.2085 28.4176 33.4308 28.3213 33.6762C28.225 33.9216 28.1801 34.1848 28.1897 34.4488V34.4645ZM35.7293 34.4645V32.5938H34.9242V33.0497C34.7875 32.8711 34.6109 32.7281 34.409 32.6324C34.2071 32.5367 33.9857 32.4912 33.7631 32.4995C33.2498 32.4995 32.7576 32.7066 32.3947 33.0751C32.0318 33.4436 31.8279 33.9434 31.8279 34.4645C31.8279 34.9856 32.0318 35.4854 32.3947 35.8539C32.7576 36.2225 33.2498 36.4295 33.7631 36.4295C33.9857 36.4378 34.2071 36.3923 34.409 36.2966C34.6109 36.2009 34.7875 36.0579 34.9242 35.8793V36.3352H35.7293V34.4645ZM32.7336 34.4645C32.7464 34.2434 32.8227 34.0308 32.9529 33.8531C33.0832 33.6754 33.2618 33.5403 33.4668 33.4644C33.6717 33.3884 33.8941 33.375 34.1065 33.4258C34.3188 33.4766 34.512 33.5893 34.662 33.7501C34.8121 33.9109 34.9126 34.1127 34.9511 34.3308C34.9897 34.5488 34.9645 34.7735 34.8789 34.9773C34.7932 35.181 34.6507 35.3549 34.469 35.4774C34.2872 35.6 34.0742 35.6659 33.856 35.6671C33.7027 35.669 33.5507 35.6388 33.4096 35.5782C33.2684 35.5176 33.1411 35.4281 33.0357 35.3151C32.9302 35.2022 32.849 35.0683 32.797 34.9219C32.745 34.7755 32.7234 34.6198 32.7336 34.4645ZM23.0189 32.4995C22.5057 32.5069 22.0163 32.7209 21.6585 33.0946C21.3007 33.4682 21.1038 33.9709 21.1109 34.492C21.1181 35.0131 21.3289 35.51 21.6968 35.8733C22.0648 36.2367 22.5598 36.4367 23.0731 36.4295C23.6299 36.4585 24.1775 36.2764 24.6096 35.9186L24.2226 35.3134C23.9169 35.5622 23.5383 35.7005 23.1466 35.7064C22.8805 35.7296 22.6159 35.6465 22.4092 35.4748C22.2025 35.3031 22.0699 35.0562 22.0397 34.7868H24.7876C24.7876 34.6846 24.7876 34.5824 24.7876 34.4724C24.7876 33.2934 24.0677 32.5074 23.0305 32.5074L23.0189 32.4995ZM23.0189 33.2305C23.1393 33.2279 23.2591 33.2494 23.3714 33.2938C23.4837 33.3382 23.5862 33.4047 23.6732 33.4893C23.7602 33.574 23.8299 33.6753 23.8783 33.7873C23.9268 33.8993 23.953 34.0199 23.9555 34.1422H22.0203C22.0343 33.89 22.1451 33.6533 22.3288 33.4829C22.5125 33.3125 22.7547 33.2219 23.0034 33.2305H23.0189ZM43.1875 34.4724V31.0847H42.4134V33.0497C42.2767 32.8711 42.1001 32.7281 41.8982 32.6324C41.6963 32.5367 41.4749 32.4912 41.2523 32.4995C40.7391 32.4995 40.2468 32.7066 39.8839 33.0751C39.521 33.4436 39.3171 33.9434 39.3171 34.4645C39.3171 34.9856 39.521 35.4854 39.8839 35.8539C40.2468 36.2225 40.7391 36.4295 41.2523 36.4295C41.4749 36.4378 41.6963 36.3923 41.8982 36.2966C42.1001 36.2009 42.2767 36.0579 42.4134 35.8793V36.3352H43.1875V34.4724ZM44.5305 35.8046C44.5809 35.804 44.6308 35.8133 44.6776 35.8321C44.7221 35.8505 44.7627 35.8772 44.7976 35.9107C44.8316 35.9446 44.8591 35.9846 44.8789 36.0286C44.8985 36.0745 44.9086 36.124 44.9086 36.174C44.9086 36.2241 44.8985 36.2735 44.8789 36.3194C44.8591 36.3635 44.8316 36.4035 44.7976 36.4373C44.7627 36.4709 44.7221 36.4975 44.6776 36.5159C44.6313 36.5367 44.5812 36.5474 44.5305 36.5474C44.4572 36.5468 44.3855 36.5251 44.3238 36.4847C44.2621 36.4444 44.213 36.387 44.1822 36.3194C44.1628 36.2735 44.1528 36.224 44.1528 36.174C44.1528 36.124 44.1628 36.0746 44.1822 36.0286C44.2019 35.9846 44.2295 35.9446 44.2635 35.9107C44.2983 35.8772 44.339 35.8505 44.3835 35.8321C44.4339 35.8118 44.4879 35.8024 44.5421 35.8046H44.5305ZM44.5305 36.4688C44.5692 36.469 44.6074 36.461 44.6428 36.4452C44.6761 36.4301 44.7063 36.4088 44.7318 36.3823C44.7802 36.3287 44.8071 36.2586 44.8071 36.1858C44.8071 36.1131 44.7802 36.043 44.7318 35.9893C44.7063 35.9628 44.6761 35.9415 44.6428 35.9264C44.6074 35.9108 44.5692 35.9027 44.5305 35.9029C44.4919 35.9031 44.4538 35.9111 44.4183 35.9264C44.3835 35.9409 44.3519 35.9623 44.3254 35.9893C44.277 36.043 44.2501 36.1131 44.2501 36.1858C44.2501 36.2586 44.277 36.3287 44.3254 36.3823C44.352 36.4093 44.3836 36.4306 44.4183 36.4452C44.4573 36.4623 44.4996 36.4703 44.5421 36.4688H44.5305ZM44.5538 36.0011C44.5899 35.9993 44.6255 36.0105 44.6544 36.0325C44.6662 36.0425 44.6756 36.0552 44.6816 36.0695C44.6877 36.0839 44.6903 36.0995 44.6892 36.1151C44.6898 36.1281 44.6877 36.1412 44.683 36.1533C44.6783 36.1655 44.6712 36.1766 44.6621 36.1858C44.6397 36.2065 44.6111 36.219 44.5808 36.2212L44.6931 36.3509H44.6041L44.4996 36.2212H44.4647V36.3509H44.3912V36.005L44.5538 36.0011ZM44.4686 36.0679V36.1622H44.5538C44.5689 36.1668 44.585 36.1668 44.6002 36.1622C44.6029 36.1568 44.6043 36.1507 44.6043 36.1446C44.6043 36.1384 44.6029 36.1324 44.6002 36.1269C44.6029 36.1214 44.6043 36.1153 44.6043 36.1092C44.6043 36.103 44.6029 36.097 44.6002 36.0915C44.585 36.0869 44.5689 36.0869 44.5538 36.0915L44.4686 36.0679ZM40.2112 34.4724C40.224 34.2512 40.3003 34.0387 40.4305 33.861C40.5608 33.6833 40.7394 33.5482 40.9444 33.4722C41.1494 33.3963 41.3717 33.3829 41.5841 33.4337C41.7965 33.4844 41.9896 33.5971 42.1396 33.7579C42.2897 33.9187 42.3902 34.1206 42.4287 34.3386C42.4673 34.5567 42.4422 34.7814 42.3565 34.9852C42.2708 35.1889 42.1283 35.3627 41.9466 35.4853C41.7648 35.6079 41.5518 35.6738 41.3336 35.6749C41.1803 35.6769 41.0284 35.6466 40.8872 35.5861C40.746 35.5255 40.6187 35.4359 40.5133 35.323C40.4079 35.21 40.3266 35.0761 40.2746 34.9298C40.2226 34.7834 40.201 34.6276 40.2112 34.4724ZM13.0294 34.4724V32.5938H12.2243V33.0497C12.0876 32.8711 11.911 32.7281 11.7091 32.6324C11.5072 32.5367 11.2858 32.4912 11.0632 32.4995C10.55 32.4995 10.0577 32.7066 9.69482 33.0751C9.3319 33.4436 9.12801 33.9434 9.12801 34.4645C9.12801 34.9856 9.3319 35.4854 9.69482 35.8539C10.0577 36.2225 10.55 36.4295 11.0632 36.4295C11.2858 36.4378 11.5072 36.3923 11.7091 36.2966C11.911 36.2009 12.0876 36.0579 12.2243 35.8793V36.3352H13.0294V34.4724ZM10.0337 34.4724C10.0465 34.2512 10.1228 34.0387 10.2531 33.861C10.3833 33.6833 10.5619 33.5482 10.7669 33.4722C10.9719 33.3963 11.1942 33.3829 11.4066 33.4337C11.619 33.4844 11.8121 33.5971 11.9622 33.7579C12.1122 33.9187 12.2127 34.1206 12.2513 34.3386C12.2898 34.5567 12.2647 34.7814 12.179 34.9852C12.0933 35.1889 11.9508 35.3627 11.7691 35.4853C11.5874 35.6079 11.3743 35.6738 11.1561 35.6749C11.0022 35.678 10.8494 35.6486 10.7073 35.5885C10.5652 35.5284 10.4369 35.439 10.3307 35.3259C10.2244 35.2128 10.1425 35.0786 10.09 34.9316C10.0375 34.7847 10.0157 34.6283 10.0259 34.4724H10.0337Z" fill="#231F20"/>
<path d="M28.9249 3.96146H16.7331V26.2098H28.9249V3.96146Z" fill="#FF5F00"/>
<path d="M17.5074 15.091C17.5051 12.9481 17.9831 10.8327 18.9051 8.90502C19.8271 6.97738 21.169 5.28804 22.8292 3.96492C20.7736 2.32459 18.3051 1.30456 15.7057 1.02142C13.1063 0.738277 10.4808 1.20345 8.12943 2.36377C5.77805 3.52409 3.79559 5.33275 2.40862 7.58302C1.02165 9.8333 0.286133 12.4344 0.286133 15.0891C0.286133 17.7437 1.02165 20.3448 2.40862 22.5951C3.79559 24.8454 5.77805 26.6541 8.12943 27.8144C10.4808 28.9747 13.1063 29.4399 15.7057 29.1567C18.3051 28.8736 20.7736 27.8536 22.8292 26.2132C21.1695 24.8905 19.828 23.2018 18.906 21.2749C17.984 19.348 17.5057 17.2334 17.5074 15.091Z" fill="#EB001B"/>
<path d="M45.3742 15.0881C45.3741 17.7429 44.6384 20.3442 43.2512 22.5945C41.864 24.8448 39.8812 26.6534 37.5296 27.8136C35.1779 28.9737 32.5522 29.4386 29.9526 29.155C27.3531 28.8715 24.8845 27.851 22.8291 26.2102C24.4881 24.8863 25.8293 23.1971 26.7515 21.2701C27.6738 19.3431 28.153 17.2286 28.153 15.0861C28.153 12.9436 27.6738 10.8291 26.7515 8.9021C25.8293 6.9751 24.4881 5.28594 22.8291 3.96207C24.8845 2.32124 27.3531 1.30072 29.9526 1.01718C32.5522 0.733638 35.1779 1.19851 37.5296 2.35865C39.8812 3.51879 41.864 5.3274 43.2512 7.57773C44.6384 9.82806 45.3741 12.4293 45.3742 15.0841V15.0881Z" fill="#F79E1B"/>
<path d="M44.0426 23.8526V23.3968H44.2245V23.3025H43.7639V23.3968H43.9613V23.8526H44.0426ZM44.9366 23.8526V23.3025H44.7973L44.6347 23.6954L44.4722 23.3025H44.3483V23.8526H44.449V23.44L44.5999 23.7976H44.7044L44.8554 23.44V23.8565L44.9366 23.8526Z" fill="#F79E1B"/>
</svg>
